<svg width="556" height="150" viewBox="0 0 556 150" fill="none" xmlns="http://www.w3.org/2000/svg">
<path d="M172.993 115.068V46.842H201.631C204.704 46.842 207.527 47.4827 210.089 48.7639C212.652 50.0451 214.894 51.7468 216.816 53.8588C218.738 55.9709 220.209 58.3432 221.24 60.9657C222.261 63.5883 222.782 66.2809 222.782 69.0336C222.782 72.8172 221.931 76.4207 220.239 79.8441C218.537 83.2674 216.135 86.0401 213.032 88.1521C209.929 90.2642 206.316 91.3252 202.222 91.3252H183.754V115.058H172.993V115.068ZM183.754 81.816H201.531C203.583 81.816 205.375 81.2554 206.916 80.1343C208.458 79.0133 209.659 77.4918 210.52 75.5699C211.381 73.648 211.821 71.4759 211.821 69.0336C211.821 66.5912 211.31 64.329 210.279 62.4071C209.258 60.4853 207.927 58.9938 206.296 57.9428C204.664 56.8818 202.882 56.3613 200.96 56.3613H183.754V81.826V81.816Z" fill="white"/>
<path d="M271.249 62.8876C270.608 62.1869 269.677 61.4262 268.466 60.6254C267.245 59.8246 265.804 59.0739 264.142 58.3632C262.47 57.6625 260.679 57.082 258.757 56.6315C256.835 56.1811 254.853 55.9609 252.801 55.9609C248.317 55.9609 244.983 56.7917 242.811 58.4533C240.629 60.1149 239.548 62.4171 239.548 65.35C239.548 67.5221 240.159 69.2338 241.37 70.475C242.581 71.7262 244.443 72.7572 246.945 73.588C249.448 74.4188 252.581 75.3097 256.364 76.2706C260.979 77.3616 264.983 78.6529 268.376 80.1544C271.769 81.6558 274.362 83.6478 276.164 86.1402C277.955 88.6326 278.856 91.9158 278.856 96.0097C278.856 99.4631 278.216 102.426 276.934 104.918C275.653 107.411 273.861 109.433 271.549 111.004C269.247 112.566 266.584 113.717 263.571 114.458C260.559 115.188 257.325 115.559 253.862 115.559C250.399 115.559 247.085 115.208 243.722 114.498C240.359 113.787 237.156 112.756 234.113 111.375C231.07 109.993 228.267 108.312 225.705 106.33L230.609 97.1008C231.44 97.9316 232.641 98.8525 234.213 99.8435C235.784 100.834 237.606 101.785 239.688 102.676C241.77 103.577 244.042 104.328 246.515 104.938C248.977 105.549 251.5 105.849 254.062 105.849C258.356 105.849 261.64 105.099 263.912 103.607C266.184 102.116 267.325 99.9636 267.325 97.1609C267.325 94.8586 266.584 93.0268 265.113 91.6555C263.642 90.2842 261.489 89.1131 258.677 88.1621C255.854 87.2012 252.491 86.2403 248.587 85.2893C244.102 84.0782 240.359 82.7469 237.346 81.3155C234.333 79.8741 232.081 78.0223 230.569 75.7601C229.068 73.4879 228.307 70.6051 228.307 67.0917C228.307 62.6173 229.398 58.8337 231.57 55.7307C233.742 52.6277 236.715 50.3054 240.459 48.7339C244.203 47.1724 248.417 46.3816 253.091 46.3816C256.164 46.3816 259.077 46.7219 261.84 47.3926C264.592 48.0632 267.175 48.9741 269.577 50.1352C271.98 51.2864 274.172 52.5976 276.164 54.0791L271.259 62.9176L271.249 62.8876Z" fill="white"/>
<path d="M291.258 46.842L310.096 80.765L329.115 46.842H340.936L315.472 90.6646V115.068H304.711V90.4644L279.437 46.842H291.258Z" fill="white"/>
<path d="M337.864 80.3746C337.864 76.2105 338.594 72.1266 340.076 68.1227C341.547 64.1188 343.709 60.4653 346.562 57.1721C349.415 53.8689 352.888 51.2463 356.992 49.2944C361.086 47.3425 365.741 46.3616 370.926 46.3616C377.072 46.3616 382.397 47.7529 386.881 50.5456C391.366 53.3283 394.699 56.9018 396.871 61.266L388.413 66.9315C387.131 64.1789 385.51 61.9967 383.558 60.3952C381.606 58.7936 379.494 57.6725 377.212 57.0319C374.94 56.3913 372.707 56.071 370.535 56.071C366.952 56.071 363.809 56.7917 361.116 58.2331C358.424 59.6745 356.171 61.5863 354.34 63.9486C352.518 66.3209 351.136 68.9835 350.206 71.9264C349.275 74.8692 348.814 77.8221 348.814 80.765C348.814 84.0281 349.355 87.1912 350.446 90.2341C351.537 93.2771 353.058 95.9697 355.01 98.302C356.962 100.644 359.284 102.486 361.977 103.827C364.67 105.169 367.612 105.849 370.816 105.849C372.988 105.849 375.27 105.469 377.642 104.698C380.015 103.927 382.207 102.726 384.229 101.095C386.251 99.4631 387.832 97.301 388.983 94.6084L397.922 99.7033C396.511 103.097 394.318 105.979 391.336 108.352C388.353 110.724 385.029 112.516 381.346 113.737C377.662 114.958 374.029 115.559 370.435 115.559C365.631 115.559 361.246 114.548 357.272 112.536C353.299 110.514 349.875 107.831 346.992 104.468C344.11 101.105 341.867 97.321 340.266 93.1269C338.664 88.9329 337.864 84.6888 337.864 80.3946V80.3746Z" fill="white"/>
<path d="M461.674 46.842V115.068H450.814V84.989H416.41V115.068H405.65V46.842H416.41V75.3797H450.814V46.842H461.674Z" fill="white"/>
<path d="M475.177 115.068V46.842H485.938V115.068H475.177Z" fill="white"/>
<path d="M495.287 80.3746C495.287 76.2105 496.017 72.1266 497.499 68.1227C498.97 64.1188 501.132 60.4653 503.985 57.1721C506.838 53.8689 510.311 51.2463 514.415 49.2944C518.509 47.3425 523.164 46.3616 528.349 46.3616C534.495 46.3616 539.82 47.7529 544.304 50.5456C548.789 53.3283 552.122 56.9018 554.294 61.266L545.836 66.9315C544.555 64.1789 542.933 61.9967 540.981 60.3952C539.029 58.7936 536.917 57.6725 534.635 57.0319C532.363 56.3913 530.131 56.071 527.958 56.071C524.375 56.071 521.232 56.7917 518.539 58.2331C515.847 59.6745 513.594 61.5863 511.763 63.9486C509.941 66.3209 508.56 68.9835 507.629 71.9264C506.698 74.8692 506.237 77.8221 506.237 80.765C506.237 84.0281 506.778 87.1912 507.869 90.2341C508.96 93.2771 510.481 95.9697 512.433 98.302C514.385 100.644 516.707 102.486 519.4 103.827C522.093 105.169 525.036 105.849 528.239 105.849C530.411 105.849 532.693 105.469 535.065 104.698C537.438 103.927 539.63 102.726 541.652 101.095C543.674 99.4631 545.255 97.301 546.406 94.6084L555.345 99.7033C553.934 103.097 551.742 105.979 548.759 108.352C545.776 110.724 542.453 112.516 538.769 113.737C535.085 114.958 531.452 115.559 527.858 115.559C523.054 115.559 518.669 114.548 514.695 112.536C510.722 110.514 507.298 107.831 504.415 104.468C501.533 101.105 499.291 97.321 497.689 93.1269C496.087 88.9329 495.287 84.6888 495.287 80.3946V80.3746Z" fill="white"/>
<path fill-rule="evenodd" clip-rule="evenodd" d="M69.197 -0.000244136C70.7784 -0.000307138 72.2827 0.682876 73.3233 1.8737L108.928 42.6195L108.929 42.6203L130.588 67.4181C132.13 69.183 132.379 71.7327 131.207 73.7622L114.798 102.188L137.66 141.78C138.639 143.476 138.639 145.564 137.66 147.26C136.682 148.955 134.873 150 132.915 150L5.47946 150C3.52183 150 1.71291 148.955 0.7341 147.26C-0.244709 145.565 -0.244699 143.476 0.734125 141.781L23.5964 102.183L7.18751 73.7625C6.01563 71.7329 6.26439 69.1826 7.8064 67.4176L29.4717 42.6198L65.0708 1.87403C66.1113 0.683122 67.6156 -0.000181135 69.197 -0.000244136ZM29.9241 113.14L14.9702 139.041H44.8814L29.9241 113.14ZM57.5365 139.041H80.8635L102.144 102.188L90.4797 81.9863L73.9423 110.623C72.9634 112.318 71.1545 113.362 69.197 113.362C67.2395 113.362 65.4308 112.318 64.452 110.623L47.9143 81.9812L36.2509 102.182L57.5365 139.041ZM29.9235 91.2239L41.5871 71.0226L32.6835 55.6001L18.6376 71.6768L29.9235 91.2239ZM40.3028 46.8791L47.9146 60.0639L64.452 31.4228C65.4308 29.7276 67.2397 28.6833 69.1972 28.6833C71.1548 28.6833 72.9636 29.7276 73.9425 31.4228L90.4808 60.0656L98.0967 46.8788L69.1975 13.807L40.3028 46.8791ZM105.715 55.5999L119.757 71.6765L108.47 91.2289L96.806 71.026L105.715 55.5999ZM108.471 113.146L93.5183 139.041L123.424 139.041L108.471 113.146Z" fill="url(#paint0_radial_1944_122838)"/>
<defs>
<radialGradient id="paint0_radial_1944_122838" cx="0" cy="0" r="1" gradientUnits="userSpaceOnUse" gradientTransform="translate(138.394 -0.273987) rotate(132.696) scale(204.091 184.76)">
<stop stop-color="#01ECFB"/>
<stop offset="0.506871" stop-color="#427EF8"/>
<stop offset="1" stop-color="#8310F5"/>
</radialGradient>
</defs>
</svg>
