<svg width="526" height="108" viewBox="0 0 526 108" fill="none" xmlns="http://www.w3.org/2000/svg">
<g clip-path="url(#clip0_1815_188988)">
<path d="M58.9121 58.912H19.639C8.79791 58.912 0 67.7051 0 78.551V108.005C7.33239 108.005 13.7291 103.976 17.0994 98.0181C17.93 98.1279 18.7749 98.1852 19.639 98.1852H58.9121C69.7532 98.1852 78.5463 89.392 78.5463 78.5462C78.5463 67.7051 69.7532 58.9072 58.9074 58.9072L58.9121 58.912Z" fill="#017AFF"/>
<path d="M71.2665 9.98656C70.4359 9.87677 69.5909 9.81948 68.7269 9.81948H29.4537C18.6127 9.81948 9.81952 18.6126 9.81952 29.4585C9.81952 40.2995 18.6127 49.0974 29.4585 49.0974H68.7316C79.5727 49.0974 88.3706 40.3043 88.3706 29.4585V0C81.0382 0 74.6415 4.029 71.2713 9.98656H71.2665Z" fill="#7FBDFF"/>
<path d="M148.863 37.5069C148.505 34.3133 147.02 31.8357 144.409 30.0695C141.798 28.3032 138.518 27.4201 134.561 27.4201C131.725 27.4201 129.276 27.864 127.205 28.7519C125.138 29.6398 123.534 30.8571 122.397 32.3943C121.261 33.9362 120.693 35.6833 120.693 37.6405C120.693 39.2827 121.08 40.7005 121.858 41.8891C122.636 43.0825 123.658 44.0755 124.928 44.8727C126.197 45.6699 127.563 46.3334 129.028 46.8633C130.489 47.3932 131.897 47.8228 133.243 48.1618L139.989 49.9137C142.194 50.4531 144.452 51.1835 146.767 52.1048C149.082 53.0261 151.231 54.2434 153.212 55.7472C155.193 57.2556 156.792 59.1222 158.019 61.3467C159.246 63.5712 159.857 66.2397 159.857 69.3426C159.857 73.257 158.849 76.7323 156.84 79.7684C154.825 82.8044 151.913 85.2008 148.104 86.9528C144.29 88.7047 139.688 89.5831 134.289 89.5831C128.89 89.5831 124.641 88.762 120.86 87.1199C117.084 85.4777 114.125 83.1434 111.986 80.1216C109.847 77.0999 108.668 73.5053 108.444 69.3426H118.903C119.104 71.8393 119.92 73.9158 121.347 75.5675C122.775 77.2192 124.608 78.4461 126.847 79.2433C129.085 80.0405 131.539 80.4415 134.217 80.4415C137.163 80.4415 139.788 79.9736 142.094 79.0428C144.399 78.1071 146.213 76.8039 147.541 75.1283C148.868 73.4528 149.531 71.4908 149.531 69.2424C149.531 67.1945 148.954 65.5189 147.794 64.2157C146.634 62.9125 145.073 61.8336 143.106 60.9791C141.139 60.1246 138.919 59.3704 136.442 58.7212L128.279 56.4966C122.746 54.9881 118.364 52.7731 115.141 49.8516C111.914 46.9301 110.301 43.0587 110.301 38.2468C110.301 34.2655 111.38 30.7903 113.537 27.8211C115.695 24.8518 118.621 22.5414 122.307 20.8897C125.997 19.238 130.155 18.4121 134.79 18.4121C139.425 18.4121 143.602 19.2332 147.187 20.8753C150.772 22.5175 153.603 24.7707 155.67 27.6397C157.737 30.5086 158.821 33.7977 158.907 37.5069H148.853H148.863Z" fill="white"/>
<path d="M181.572 19.3574V88.4471H171.146V19.3574H181.572Z" fill="white"/>
<path d="M218.148 88.4423H195.783V19.3574H218.859C225.629 19.3574 231.443 20.737 236.303 23.4914C241.162 26.2459 244.886 30.1937 247.487 35.3302C250.084 40.4715 251.383 46.6247 251.383 53.7996C251.383 60.9745 250.07 67.1803 247.454 72.3549C244.833 77.5296 241.048 81.5013 236.102 84.2796C231.152 87.0579 225.17 88.4471 218.153 88.4471L218.148 88.4423ZM206.204 79.3341H217.571C222.831 79.3341 227.209 78.3412 230.693 76.3505C234.178 74.3599 236.789 71.4718 238.522 67.6815C240.255 63.8912 241.119 59.2655 241.119 53.7996C241.119 48.3337 240.26 43.7796 238.537 40.0036C236.818 36.2229 234.259 33.3587 230.861 31.4014C227.466 29.4442 223.246 28.4656 218.21 28.4656H206.2V79.3389L206.204 79.3341Z" fill="white"/>
<path d="M262.763 88.4423V19.3574H306.08V28.332H273.189V49.3839H303.822V58.3251H273.189V79.4773H306.485V88.4518H262.768L262.763 88.4423Z" fill="white"/>
<path d="M317.727 88.4423V19.3574H328.153V52.3484H328.998L357.974 19.3574H371.097L343.233 50.4628L371.198 88.4471H358.647L336.316 57.5804L328.153 66.9607V88.4518H317.727V88.4423Z" fill="white"/>
<path d="M389.834 19.3574V88.4471H379.408V19.3574H389.834Z" fill="white"/>
<path d="M461.105 41.8226H450.579C450.173 39.5742 449.419 37.5931 448.321 35.8841C447.219 34.1751 445.868 32.7239 444.273 31.5305C442.674 30.3371 440.893 29.4396 438.927 28.8333C436.96 28.2271 434.874 27.9216 432.668 27.9216C428.687 27.9216 425.131 28.924 421.99 30.9242C418.853 32.9244 416.38 35.8602 414.566 39.7269C412.757 43.5936 411.85 48.3196 411.85 53.8952C411.85 59.4709 412.757 64.2637 414.566 68.1304C416.376 71.9971 418.858 74.9233 422.004 76.8996C425.155 78.8807 428.697 79.8689 432.63 79.8689C434.812 79.8689 436.888 79.5729 438.855 78.9762C440.822 78.3795 442.602 77.4964 444.202 76.3268C445.796 75.1572 447.152 73.7251 448.269 72.0257C449.381 70.3263 450.154 68.3786 450.579 66.1732L461.105 66.2066C460.542 69.6007 459.458 72.7227 457.85 75.5678C456.241 78.4129 454.183 80.8618 451.677 82.924C449.171 84.9815 446.307 86.5711 443.094 87.6977C439.877 88.8243 436.368 89.3829 432.568 89.3829C426.587 89.3829 421.254 87.9603 416.576 85.1152C411.898 82.27 408.217 78.1933 405.53 72.885C402.842 67.5766 401.501 61.2467 401.501 53.8904C401.501 46.5342 402.852 40.1756 405.549 34.8816C408.246 29.5876 411.936 25.5156 416.614 22.6705C421.293 19.8254 426.61 18.4028 432.573 18.4028C436.239 18.4028 439.662 18.9279 442.846 19.9734C446.03 21.0188 448.889 22.5464 451.429 24.5609C453.969 26.5754 456.074 29.0243 457.735 31.9172C459.401 34.8052 460.523 38.1086 461.11 41.8178L461.105 41.8226Z" fill="white"/>
<path d="M472.027 88.4423V19.3574H482.453V52.3484H483.298L512.274 19.3574H525.397L497.533 50.4628L525.497 88.4471H512.948L490.616 57.5804L482.453 66.9607V88.4518H472.027V88.4423Z" fill="white"/>
</g>
<defs>
<clipPath id="clip0_1815_188988">
<rect width="525.497" height="108" fill="white"/>
</clipPath>
</defs>
</svg>
