<svg width="556" height="150" viewBox="0 0 556 150" fill="none" xmlns="http://www.w3.org/2000/svg">
<path d="M172.993 115.069V46.8425H201.631C204.704 46.8425 207.527 47.4832 210.089 48.7644C212.652 50.0456 214.894 51.7473 216.816 53.8593C218.738 55.9714 220.209 58.3437 221.24 60.9662C222.261 63.5888 222.782 66.2814 222.782 69.0341C222.782 72.8177 221.931 76.4212 220.239 79.8445C218.537 83.2679 216.135 86.0406 213.032 88.1526C209.929 90.2647 206.316 91.3257 202.222 91.3257H183.754V115.059H172.993V115.069ZM183.754 81.8165H201.531C203.583 81.8165 205.375 81.2559 206.916 80.1348C208.458 79.0137 209.659 77.4923 210.52 75.5704C211.381 73.6485 211.821 71.4764 211.821 69.0341C211.821 66.5917 211.31 64.3295 210.279 62.4076C209.258 60.4858 207.927 58.9943 206.296 57.9433C204.664 56.8823 202.882 56.3618 200.96 56.3618H183.754V81.8265V81.8165Z" fill="#1A0331"/>
<path d="M271.249 62.8883C270.608 62.1877 269.677 61.4269 268.466 60.6261C267.245 59.8254 265.804 59.0746 264.142 58.3639C262.47 57.6633 260.679 57.0827 258.757 56.6323C256.835 56.1818 254.853 55.9616 252.801 55.9616C248.317 55.9616 244.983 56.7924 242.811 58.454C240.629 60.1156 239.548 62.4179 239.548 65.3507C239.548 67.5228 240.159 69.2345 241.37 70.4757C242.581 71.7269 244.443 72.7579 246.945 73.5887C249.448 74.4195 252.581 75.3104 256.364 76.2713C260.979 77.3624 264.983 78.6536 268.376 80.1551C271.769 81.6565 274.362 83.6485 276.164 86.1409C277.955 88.6333 278.856 91.9165 278.856 96.0105C278.856 99.4638 278.216 102.427 276.934 104.919C275.653 107.412 273.861 109.434 271.549 111.005C269.247 112.567 266.584 113.718 263.571 114.458C260.559 115.189 257.325 115.559 253.862 115.559C250.399 115.559 247.085 115.209 243.722 114.498C240.359 113.788 237.156 112.757 234.113 111.375C231.07 109.994 228.267 108.312 225.705 106.33L230.609 97.1015C231.44 97.9323 232.641 98.8532 234.213 99.8442C235.784 100.835 237.606 101.786 239.688 102.677C241.77 103.578 244.042 104.329 246.515 104.939C248.977 105.55 251.5 105.85 254.062 105.85C258.356 105.85 261.64 105.099 263.912 103.608C266.184 102.116 267.325 99.9643 267.325 97.1616C267.325 94.8594 266.584 93.0276 265.113 91.6563C263.642 90.2849 261.489 89.1138 258.677 88.1629C255.854 87.2019 252.491 86.241 248.587 85.2901C244.102 84.0789 240.359 82.7476 237.346 81.3162C234.333 79.8748 232.081 78.023 230.569 75.7608C229.068 73.4886 228.307 70.6058 228.307 67.0924C228.307 62.6181 229.398 58.8344 231.57 55.7314C233.742 52.6284 236.715 50.3061 240.459 48.7346C244.203 47.1731 248.417 46.3823 253.091 46.3823C256.164 46.3823 259.077 46.7227 261.84 47.3933C264.592 48.064 267.175 48.9748 269.577 50.136C271.98 51.2871 274.172 52.5984 276.164 54.0798L271.259 62.9184L271.249 62.8883Z" fill="#1A0331"/>
<path d="M291.258 46.8425L310.096 80.7654L329.115 46.8425H340.936L315.472 90.665V115.069H304.711V90.4649L279.437 46.8425H291.258Z" fill="#1A0331"/>
<path d="M337.864 80.3751C337.864 76.211 338.594 72.1271 340.076 68.1232C341.547 64.1193 343.709 60.4657 346.562 57.1725C349.415 53.8693 352.888 51.2468 356.992 49.2949C361.086 47.343 365.741 46.3621 370.926 46.3621C377.072 46.3621 382.397 47.7534 386.881 50.5461C391.366 53.3288 394.699 56.9023 396.871 61.2665L388.413 66.932C387.131 64.1793 385.51 61.9972 383.558 60.3957C381.606 58.7941 379.494 57.673 377.212 57.0324C374.94 56.3918 372.707 56.0715 370.535 56.0715C366.952 56.0715 363.809 56.7922 361.116 58.2336C358.424 59.675 356.171 61.5868 354.34 63.9491C352.518 66.3214 351.136 68.984 350.206 71.9269C349.275 74.8697 348.814 77.8226 348.814 80.7654C348.814 84.0286 349.355 87.1917 350.446 90.2346C351.537 93.2776 353.058 95.9702 355.01 98.3025C356.962 100.645 359.284 102.487 361.977 103.828C364.67 105.169 367.612 105.85 370.816 105.85C372.988 105.85 375.27 105.469 377.642 104.699C380.015 103.928 382.207 102.727 384.229 101.095C386.251 99.4636 387.832 97.3015 388.983 94.6089L397.922 99.7038C396.511 103.097 394.318 105.98 391.336 108.352C388.353 110.725 385.029 112.516 381.346 113.737C377.662 114.959 374.029 115.559 370.435 115.559C365.631 115.559 361.246 114.548 357.272 112.536C353.299 110.514 349.875 107.832 346.992 104.468C344.11 101.105 341.867 97.3215 340.266 93.1274C338.664 88.9334 337.864 84.6892 337.864 80.3951V80.3751Z" fill="#1A0331"/>
<path d="M461.674 46.8425V115.069H450.814V84.9895H416.41V115.069H405.65V46.8425H416.41V75.3802H450.814V46.8425H461.674Z" fill="#1A0331"/>
<path d="M475.177 115.069V46.8425H485.938V115.069H475.177Z" fill="#1A0331"/>
<path d="M495.287 80.3751C495.287 76.211 496.017 72.1271 497.499 68.1232C498.97 64.1193 501.132 60.4657 503.985 57.1725C506.838 53.8693 510.311 51.2468 514.415 49.2949C518.509 47.343 523.164 46.3621 528.349 46.3621C534.495 46.3621 539.82 47.7534 544.304 50.5461C548.789 53.3288 552.122 56.9023 554.294 61.2665L545.836 66.932C544.555 64.1793 542.933 61.9972 540.981 60.3957C539.029 58.7941 536.917 57.673 534.635 57.0324C532.363 56.3918 530.131 56.0715 527.958 56.0715C524.375 56.0715 521.232 56.7922 518.539 58.2336C515.847 59.675 513.594 61.5868 511.763 63.9491C509.941 66.3214 508.56 68.984 507.629 71.9269C506.698 74.8697 506.237 77.8226 506.237 80.7654C506.237 84.0286 506.778 87.1917 507.869 90.2346C508.96 93.2776 510.481 95.9702 512.433 98.3025C514.385 100.645 516.707 102.487 519.4 103.828C522.093 105.169 525.036 105.85 528.239 105.85C530.411 105.85 532.693 105.469 535.065 104.699C537.438 103.928 539.63 102.727 541.652 101.095C543.674 99.4636 545.255 97.3015 546.406 94.6089L555.345 99.7038C553.934 103.097 551.742 105.98 548.759 108.352C545.776 110.725 542.453 112.516 538.769 113.737C535.085 114.959 531.452 115.559 527.858 115.559C523.054 115.559 518.669 114.548 514.695 112.536C510.722 110.514 507.298 107.832 504.415 104.468C501.533 101.105 499.291 97.3215 497.689 93.1274C496.087 88.9334 495.287 84.6892 495.287 80.3951V80.3751Z" fill="#1A0331"/>
<path fill-rule="evenodd" clip-rule="evenodd" d="M69.197 4.35699e-09C70.7784 -6.29971e-05 72.2827 0.68312 73.3233 1.87395L108.928 42.6197L108.929 42.6206L130.588 67.4184C132.13 69.1832 132.379 71.733 131.207 73.7624L114.798 102.188L137.66 141.781C138.639 143.476 138.639 145.565 137.66 147.26C136.682 148.956 134.873 150 132.915 150L5.47946 150C3.52183 150 1.71291 148.956 0.7341 147.26C-0.244709 145.565 -0.244699 143.476 0.734125 141.781L23.5964 102.183L7.18751 73.7628C6.01563 71.7331 6.26439 69.1828 7.8064 67.4178L29.4717 42.6201L65.0708 1.87428C66.1113 0.683366 67.6156 6.30058e-05 69.197 4.35699e-09ZM29.9241 113.141L14.9702 139.041H44.8814L29.9241 113.141ZM57.5365 139.041H80.8635L102.144 102.188L90.4797 81.9865L73.9423 110.623C72.9634 112.318 71.1545 113.363 69.197 113.362C67.2395 113.362 65.4308 112.318 64.452 110.623L47.9143 81.9814L36.2509 102.183L57.5365 139.041ZM29.9235 91.2242L41.5871 71.0229L32.6835 55.6003L18.6376 71.677L29.9235 91.2242ZM40.3028 46.8794L47.9146 60.0642L64.452 31.4231C65.4308 29.7278 67.2397 28.6835 69.1972 28.6835C71.1548 28.6835 72.9636 29.7278 73.9425 31.4231L90.4808 60.0658L98.0967 46.8791L69.1975 13.8072L40.3028 46.8794ZM105.715 55.6002L119.757 71.6768L108.47 91.2291L96.806 71.0263L105.715 55.6002ZM108.471 113.146L93.5183 139.041L123.424 139.041L108.471 113.146Z" fill="url(#paint0_radial_1944_122849)"/>
<defs>
<radialGradient id="paint0_radial_1944_122849" cx="0" cy="0" r="1" gradientUnits="userSpaceOnUse" gradientTransform="translate(138.394 -0.273743) rotate(132.696) scale(204.091 184.76)">
<stop stop-color="#01ECFB"/>
<stop offset="0.506871" stop-color="#427EF8"/>
<stop offset="1" stop-color="#8310F5"/>
</radialGradient>
</defs>
</svg>
