<svg width="900" height="109" viewBox="0 0 900 109" fill="none" xmlns="http://www.w3.org/2000/svg">
<path d="M58.9121 58.912H19.639C8.79791 58.912 0 67.7051 0 78.551V108.005C7.33239 108.005 13.7291 103.976 17.0994 98.0181C17.93 98.1279 18.7749 98.1852 19.639 98.1852H58.9121C69.7532 98.1852 78.5463 89.392 78.5463 78.5462C78.5463 67.7051 69.7532 58.9072 58.9074 58.9072L58.9121 58.912Z" fill="#017AFF"/>
<path d="M71.2665 9.98656C70.4359 9.87677 69.591 9.81948 68.7269 9.81948H29.4538C18.6127 9.81948 9.81958 18.6126 9.81958 29.4585C9.81958 40.2995 18.6127 49.0974 29.4585 49.0974H68.7317C79.5728 49.0974 88.3707 40.3043 88.3707 29.4585V0C81.0383 0 74.6415 4.029 71.2713 9.98656H71.2665Z" fill="#7FBDFF"/>
<path d="M111.584 93V21.48H137.312C142.112 21.48 146.304 22.376 149.888 24.168C153.536 25.96 156.384 28.52 158.432 31.848C160.48 35.176 161.504 39.144 161.504 43.752C161.504 48.296 160.48 52.232 158.432 55.56C156.384 58.888 153.536 61.448 149.888 63.24C146.304 65.032 142.112 65.928 137.312 65.928H122.144V93H111.584ZM122.144 56.424H137.6C140.288 56.424 142.624 55.912 144.608 54.888C146.592 53.8 148.128 52.328 149.216 50.472C150.368 48.552 150.944 46.28 150.944 43.656C150.944 41.096 150.368 38.856 149.216 36.936C148.128 35.016 146.592 33.544 144.608 32.52C142.624 31.496 140.288 30.984 137.6 30.984H122.144V56.424ZM198.323 94.152C193.843 94.152 189.683 93.32 185.843 91.656C182.067 89.928 178.835 87.592 176.147 84.648C173.459 81.704 171.507 78.344 170.291 74.568L179.315 70.824C181.043 75.368 183.603 78.856 186.995 81.288C190.387 83.656 194.291 84.84 198.707 84.84C201.395 84.84 203.731 84.424 205.715 83.592C207.699 82.696 209.235 81.512 210.323 80.04C211.475 78.504 212.051 76.712 212.051 74.664C212.051 71.848 211.251 69.64 209.651 68.04C208.115 66.44 205.811 65.192 202.739 64.296L189.491 60.072C184.179 58.472 180.115 55.944 177.299 52.488C174.547 49.032 173.171 45.032 173.171 40.488C173.171 36.52 174.131 33.032 176.051 30.024C177.971 27.016 180.659 24.648 184.115 22.92C187.571 21.192 191.507 20.328 195.923 20.328C200.211 20.328 204.083 21.096 207.539 22.632C211.059 24.168 214.067 26.248 216.563 28.872C219.059 31.432 220.883 34.408 222.035 37.8L213.203 41.64C211.731 37.736 209.491 34.76 206.483 32.712C203.475 30.664 199.955 29.64 195.923 29.64C193.491 29.64 191.347 30.056 189.491 30.888C187.635 31.72 186.195 32.936 185.171 34.536C184.147 36.072 183.635 37.864 183.635 39.912C183.635 42.344 184.403 44.52 185.939 46.44C187.475 48.296 189.843 49.736 193.043 50.76L205.331 54.504C211.027 56.232 215.283 58.728 218.099 61.992C220.979 65.192 222.419 69.16 222.419 73.896C222.419 77.864 221.395 81.384 219.347 84.456C217.299 87.464 214.451 89.832 210.803 91.56C207.219 93.288 203.059 94.152 198.323 94.152ZM251.038 93V60.552L226.462 21.48H238.366L258.43 53.64H254.206L274.078 21.48H285.982L261.598 60.552V93H251.038ZM324.894 94.152C319.774 94.152 315.07 93.256 310.782 91.464C306.494 89.608 302.75 87.016 299.55 83.688C296.414 80.36 293.95 76.456 292.158 71.976C290.43 67.496 289.566 62.6 289.566 57.288C289.566 51.912 290.43 46.984 292.158 42.504C293.95 38.024 296.414 34.12 299.55 30.792C302.75 27.464 306.494 24.904 310.782 23.112C315.07 21.256 319.774 20.328 324.894 20.328C329.886 20.328 334.366 21.192 338.334 22.92C342.302 24.648 345.662 26.92 348.414 29.736C351.166 32.488 353.118 35.464 354.27 38.664L344.766 43.08C343.166 39.24 340.638 36.104 337.182 33.672C333.79 31.24 329.694 30.024 324.894 30.024C320.03 30.024 315.71 31.176 311.934 33.48C308.222 35.72 305.31 38.888 303.198 42.984C301.15 47.08 300.126 51.848 300.126 57.288C300.126 62.664 301.15 67.4 303.198 71.496C305.31 75.592 308.222 78.792 311.934 81.096C315.71 83.336 320.03 84.456 324.894 84.456C329.694 84.456 333.79 83.272 337.182 80.904C340.638 78.472 343.166 75.304 344.766 71.4L354.27 75.816C353.118 79.016 351.166 82.024 348.414 84.84C345.662 87.592 342.302 89.832 338.334 91.56C334.366 93.288 329.886 94.152 324.894 94.152ZM366.303 93V21.48H376.863V53.16H411.039V21.48H421.599V93H411.039V62.664H376.863V93H366.303ZM436.803 93V21.48H447.363V93H436.803ZM495.706 94.152C490.586 94.152 485.882 93.256 481.594 91.464C477.306 89.608 473.562 87.016 470.362 83.688C467.226 80.36 464.762 76.456 462.97 71.976C461.242 67.496 460.378 62.6 460.378 57.288C460.378 51.912 461.242 46.984 462.97 42.504C464.762 38.024 467.226 34.12 470.362 30.792C473.562 27.464 477.306 24.904 481.594 23.112C485.882 21.256 490.586 20.328 495.706 20.328C500.698 20.328 505.178 21.192 509.146 22.92C513.114 24.648 516.474 26.92 519.226 29.736C521.978 32.488 523.93 35.464 525.082 38.664L515.578 43.08C513.978 39.24 511.45 36.104 507.994 33.672C504.602 31.24 500.506 30.024 495.706 30.024C490.842 30.024 486.522 31.176 482.746 33.48C479.034 35.72 476.122 38.888 474.01 42.984C471.962 47.08 470.938 51.848 470.938 57.288C470.938 62.664 471.962 67.4 474.01 71.496C476.122 75.592 479.034 78.792 482.746 81.096C486.522 83.336 490.842 84.456 495.706 84.456C500.506 84.456 504.602 83.272 507.994 80.904C511.45 78.472 513.978 75.304 515.578 71.4L525.082 75.816C523.93 79.016 521.978 82.024 519.226 84.84C516.474 87.592 513.114 89.832 509.146 91.56C505.178 93.288 500.698 94.152 495.706 94.152ZM540.379 93V80.904H550.747V93H540.379ZM581.818 93.768C578.532 93.768 575.588 92.9787 572.986 91.4C570.383 89.8213 568.314 87.6667 566.778 84.936C565.284 82.2053 564.538 79.1333 564.538 75.72C564.538 72.264 565.284 69.192 566.778 66.504C568.314 63.7733 570.383 61.6187 572.986 60.04C575.588 58.4613 578.532 57.672 581.818 57.672C584.591 57.672 587.066 58.248 589.242 59.4C591.418 60.552 593.146 62.1307 594.426 64.136L593.338 65.736V44.552H600.058V93H593.594V85.832L594.426 87.048C593.231 89.224 591.503 90.888 589.242 92.04C587.023 93.192 584.548 93.768 581.818 93.768ZM582.458 87.432C584.548 87.432 586.404 86.9413 588.026 85.96C589.69 84.936 590.991 83.528 591.93 81.736C592.868 79.944 593.338 77.9387 593.338 75.72C593.338 73.5013 592.868 71.5173 591.93 69.768C590.991 67.976 589.69 66.568 588.026 65.544C586.404 64.52 584.548 64.008 582.458 64.008C580.41 64.008 578.554 64.52 576.89 65.544C575.226 66.568 573.924 67.9547 572.986 69.704C572.047 71.4533 571.578 73.4587 571.578 75.72C571.578 77.9387 572.047 79.944 572.986 81.736C573.924 83.528 575.204 84.936 576.826 85.96C578.49 86.9413 580.367 87.432 582.458 87.432ZM619.062 93.768C616.758 93.768 614.71 93.3627 612.918 92.552C611.169 91.6987 609.804 90.5467 608.822 89.096C607.841 87.6027 607.35 85.8747 607.35 83.912C607.35 82.0773 607.756 80.4133 608.566 78.92C609.42 77.4267 610.7 76.168 612.406 75.144C614.113 74.12 616.268 73.3947 618.87 72.968L631.222 70.92V76.36L620.278 78.216C618.23 78.5573 616.737 79.1973 615.798 80.136C614.86 81.0747 614.39 82.248 614.39 83.656C614.39 85.0213 614.924 86.152 615.99 87.048C617.057 87.9013 618.401 88.328 620.022 88.328C622.07 88.328 623.841 87.9013 625.334 87.048C626.87 86.152 628.065 84.9573 628.918 83.464C629.772 81.9707 630.198 80.328 630.198 78.536V69.64C630.198 67.8907 629.537 66.4613 628.214 65.352C626.934 64.2 625.206 63.624 623.03 63.624C621.11 63.624 619.404 64.136 617.91 65.16C616.46 66.1413 615.393 67.4427 614.71 69.064L609.014 66.184C609.654 64.52 610.678 63.048 612.086 61.768C613.537 60.488 615.222 59.4853 617.142 58.76C619.062 58.0347 621.089 57.672 623.222 57.672C625.91 57.672 628.278 58.184 630.326 59.208C632.417 60.232 634.038 61.64 635.19 63.432C636.342 65.224 636.918 67.2933 636.918 69.64V93H630.454V86.664L631.734 86.92C630.966 88.2853 629.964 89.48 628.726 90.504C627.489 91.528 626.06 92.3387 624.438 92.936C622.817 93.4907 621.025 93.768 619.062 93.768ZM658.241 93.768C654.743 93.768 651.671 92.9147 649.025 91.208C646.423 89.4587 644.588 87.112 643.521 84.168L648.769 81.672C649.708 83.6773 651.009 85.2773 652.673 86.472C654.38 87.624 656.236 88.2 658.241 88.2C660.033 88.2 661.484 87.7947 662.593 86.984C663.745 86.1733 664.321 85.0853 664.321 83.72C664.321 82.7813 664.065 82.0347 663.553 81.48C663.041 80.8827 662.401 80.4133 661.633 80.072C660.908 79.7307 660.204 79.4747 659.521 79.304L654.145 77.768C651.116 76.9147 648.876 75.6347 647.425 73.928C645.975 72.2213 645.249 70.2373 645.249 67.976C645.249 65.8853 645.761 64.072 646.785 62.536C647.852 61 649.303 59.8053 651.137 58.952C653.015 58.0987 655.105 57.672 657.409 57.672C660.524 57.672 663.297 58.4613 665.729 60.04C668.204 61.576 669.953 63.7307 670.977 66.504L665.665 68.936C664.94 67.2293 663.831 65.8853 662.337 64.904C660.844 63.88 659.18 63.368 657.345 63.368C655.681 63.368 654.359 63.7733 653.377 64.584C652.396 65.352 651.905 66.3547 651.905 67.592C651.905 68.488 652.14 69.2133 652.609 69.768C653.079 70.3227 653.655 70.7707 654.337 71.112C655.063 71.4533 655.767 71.7093 656.449 71.88L662.145 73.544C664.961 74.3973 667.137 75.6773 668.673 77.384C670.209 79.0907 670.977 81.1387 670.977 83.528C670.977 85.5333 670.444 87.304 669.377 88.84C668.311 90.376 666.817 91.592 664.897 92.488C663.02 93.3413 660.801 93.768 658.241 93.768ZM678.321 93V44.552H685.041V65.224L683.953 64.456C684.763 62.28 686.107 60.616 687.985 59.464C689.905 58.2693 692.123 57.672 694.641 57.672C697.158 57.672 699.377 58.2267 701.297 59.336C703.259 60.4453 704.795 61.9813 705.905 63.944C707.057 65.9067 707.633 68.1467 707.633 70.664V93H700.913V72.584C700.913 70.792 700.571 69.2773 699.889 68.04C699.249 66.76 698.331 65.7787 697.137 65.096C695.942 64.3707 694.577 64.008 693.041 64.008C691.505 64.008 690.118 64.3707 688.881 65.096C687.686 65.7787 686.747 66.76 686.065 68.04C685.382 69.2773 685.041 70.792 685.041 72.584V93H678.321ZM733.873 93.768C731.143 93.768 728.668 93.192 726.449 92.04C724.231 90.888 722.503 89.224 721.265 87.048L722.097 85.832V93H715.633V44.552H722.353V65.736L721.329 64.136C722.609 62.1307 724.316 60.552 726.449 59.4C728.625 58.248 731.121 57.672 733.937 57.672C737.18 57.672 740.103 58.4613 742.705 60.04C745.308 61.6187 747.356 63.7733 748.849 66.504C750.385 69.192 751.153 72.264 751.153 75.72C751.153 79.1333 750.407 82.2053 748.913 84.936C747.42 87.6667 745.372 89.8213 742.769 91.4C740.167 92.9787 737.201 93.768 733.873 93.768ZM733.297 87.432C735.388 87.432 737.244 86.9413 738.865 85.96C740.487 84.936 741.767 83.528 742.705 81.736C743.644 79.944 744.113 77.9387 744.113 75.72C744.113 73.4587 743.644 71.4533 742.705 69.704C741.767 67.9547 740.487 66.568 738.865 65.544C737.244 64.52 735.388 64.008 733.297 64.008C731.207 64.008 729.329 64.52 727.665 65.544C726.044 66.568 724.743 67.976 723.761 69.768C722.823 71.5173 722.353 73.5013 722.353 75.72C722.353 77.9387 722.823 79.944 723.761 81.736C724.743 83.528 726.044 84.936 727.665 85.96C729.329 86.9413 731.207 87.432 733.297 87.432ZM775.022 93.768C771.694 93.768 768.664 93 765.934 91.464C763.246 89.8853 761.091 87.7307 759.47 85C757.848 82.2693 757.038 79.1547 757.038 75.656C757.038 72.2 757.827 69.128 759.406 66.44C761.027 63.7093 763.182 61.576 765.87 60.04C768.6 58.4613 771.651 57.672 775.022 57.672C778.392 57.672 781.422 58.4613 784.11 60.04C786.84 61.576 788.995 63.7093 790.574 66.44C792.152 69.128 792.942 72.2 792.942 75.656C792.942 79.1547 792.131 82.2693 790.51 85C788.888 87.7307 786.734 89.8853 784.046 91.464C781.358 93 778.35 93.768 775.022 93.768ZM775.022 87.432C777.112 87.432 778.968 86.9413 780.59 85.96C782.254 84.936 783.555 83.528 784.494 81.736C785.432 79.944 785.902 77.9173 785.902 75.656C785.902 73.4373 785.432 71.4533 784.494 69.704C783.555 67.9547 782.254 66.568 780.59 65.544C778.968 64.52 777.112 64.008 775.022 64.008C772.931 64.008 771.054 64.52 769.39 65.544C767.768 66.568 766.467 67.9547 765.486 69.704C764.547 71.4533 764.078 73.4373 764.078 75.656C764.078 77.9173 764.547 79.944 765.486 81.736C766.467 83.528 767.768 84.936 769.39 85.96C771.054 86.9413 772.931 87.432 775.022 87.432ZM810.562 93.768C808.258 93.768 806.21 93.3627 804.418 92.552C802.669 91.6987 801.304 90.5467 800.322 89.096C799.341 87.6027 798.85 85.8747 798.85 83.912C798.85 82.0773 799.256 80.4133 800.066 78.92C800.92 77.4267 802.2 76.168 803.906 75.144C805.613 74.12 807.768 73.3947 810.37 72.968L822.722 70.92V76.36L811.778 78.216C809.73 78.5573 808.237 79.1973 807.298 80.136C806.36 81.0747 805.89 82.248 805.89 83.656C805.89 85.0213 806.424 86.152 807.49 87.048C808.557 87.9013 809.901 88.328 811.522 88.328C813.57 88.328 815.341 87.9013 816.834 87.048C818.37 86.152 819.565 84.9573 820.418 83.464C821.272 81.9707 821.698 80.328 821.698 78.536V69.64C821.698 67.8907 821.037 66.4613 819.714 65.352C818.434 64.2 816.706 63.624 814.53 63.624C812.61 63.624 810.904 64.136 809.41 65.16C807.96 66.1413 806.893 67.4427 806.21 69.064L800.514 66.184C801.154 64.52 802.178 63.048 803.586 61.768C805.037 60.488 806.722 59.4853 808.642 58.76C810.562 58.0347 812.589 57.672 814.722 57.672C817.41 57.672 819.778 58.184 821.826 59.208C823.917 60.232 825.538 61.64 826.69 63.432C827.842 65.224 828.418 67.2933 828.418 69.64V93H821.954V86.664L823.234 86.92C822.466 88.2853 821.464 89.48 820.226 90.504C818.989 91.528 817.56 92.3387 815.938 92.936C814.317 93.4907 812.525 93.768 810.562 93.768ZM837.133 93V58.44H843.597V65.16L842.957 64.2C843.768 62.024 845.005 60.4453 846.669 59.464C848.376 58.4827 850.424 57.992 852.813 57.992H854.925V64.2H851.917C849.485 64.2 847.523 64.9467 846.029 66.44C844.579 67.9333 843.853 70.0453 843.853 72.776V93H837.133ZM875.88 93.768C872.595 93.768 869.651 92.9787 867.048 91.4C864.446 89.8213 862.376 87.6667 860.84 84.936C859.347 82.2053 858.6 79.1333 858.6 75.72C858.6 72.264 859.347 69.192 860.84 66.504C862.376 63.7733 864.446 61.6187 867.048 60.04C869.651 58.4613 872.595 57.672 875.88 57.672C878.654 57.672 881.128 58.248 883.304 59.4C885.48 60.552 887.208 62.1307 888.488 64.136L887.4 65.736V44.552H894.12V93H887.656V85.832L888.488 87.048C887.294 89.224 885.566 90.888 883.304 92.04C881.086 93.192 878.611 93.768 875.88 93.768ZM876.52 87.432C878.611 87.432 880.467 86.9413 882.088 85.96C883.752 84.936 885.054 83.528 885.992 81.736C886.931 79.944 887.4 77.9387 887.4 75.72C887.4 73.5013 886.931 71.5173 885.992 69.768C885.054 67.976 883.752 66.568 882.088 65.544C880.467 64.52 878.611 64.008 876.52 64.008C874.472 64.008 872.616 64.52 870.952 65.544C869.288 66.568 867.987 67.9547 867.048 69.704C866.11 71.4533 865.64 73.4587 865.64 75.72C865.64 77.9387 866.11 79.944 867.048 81.736C867.987 83.528 869.267 84.936 870.888 85.96C872.552 86.9413 874.43 87.432 876.52 87.432Z" fill="white"/>
</svg>
