<svg width="274" height="48" viewBox="0 0 274 48" fill="none" xmlns="http://www.w3.org/2000/svg">
<rect width="274" height="48" rx="4" fill="#2CA01C"/>
<path d="M41.7645 18.64C40.6445 17.16 38.4645 16.48 36.6245 16.48C32.2645 16.48 28.9445 19.34 28.9445 23.88C28.9445 28.3 32.0845 31.36 36.5045 31.36C38.9045 31.36 40.7445 30.44 41.9845 28.88L39.9645 27.46C39.2445 28.44 38.0445 29.1 36.5245 29.1C33.6045 29.1 31.7245 26.96 31.7245 23.88C31.7245 20.96 33.7045 18.7 36.6245 18.7C37.7645 18.7 39.1045 19.14 39.8445 20.16L41.7645 18.64ZM42.6359 26.16C42.6359 29.18 44.9559 31.28 47.8559 31.28C50.7559 31.28 53.0759 29.18 53.0759 26.16C53.0759 23.14 50.7559 21.12 47.8559 21.12C44.9559 21.12 42.6359 23.14 42.6359 26.16ZM45.0759 26.16C45.0759 24.66 45.9559 23.08 47.8559 23.08C49.7559 23.08 50.6359 24.66 50.6359 26.16C50.6359 27.66 49.7559 29.28 47.8559 29.28C45.9559 29.28 45.0759 27.66 45.0759 26.16ZM55.4029 31H57.8029V25.72C57.8029 24.44 58.5229 23.12 60.0429 23.12C61.5829 23.12 61.8429 24.54 61.8429 25.68V31H64.2429V25C64.2429 23.04 63.2029 21.12 60.7029 21.12C59.2829 21.12 58.1429 21.98 57.7229 22.94H57.6829V21.4H55.4029V31ZM67.0435 31H69.4435V25.72C69.4435 24.44 70.1635 23.12 71.6835 23.12C73.2235 23.12 73.4835 24.54 73.4835 25.68V31H75.8835V25C75.8835 23.04 74.8435 21.12 72.3435 21.12C70.9235 21.12 69.7835 21.98 69.3635 22.94H69.3235V21.4H67.0435V31ZM80.5241 25.24C80.6241 23.9 81.7641 22.92 83.1841 22.92C84.7441 22.92 85.4441 24 85.4441 25.24H80.5241ZM87.8441 26.32C87.8441 22.86 85.8841 21.12 83.2041 21.12C80.3041 21.12 78.1241 23.16 78.1241 26.26C78.1241 29.38 80.3241 31.28 83.2841 31.28C85.1041 31.28 86.4641 30.64 87.4041 29.36L85.8041 28.08C85.2641 28.84 84.4641 29.32 83.2641 29.32C81.8641 29.32 80.6241 28.32 80.5241 26.96H87.8241C87.8441 26.74 87.8441 26.54 87.8441 26.32ZM98.3685 22.62C97.6085 21.68 96.1485 21.12 94.7485 21.12C91.9285 21.12 89.6085 23.08 89.6085 26.2C89.6085 29.4 91.9685 31.28 94.8085 31.28C96.2285 31.28 97.5485 30.8 98.3485 29.94L96.8485 28.42C96.3885 28.98 95.5685 29.28 94.8285 29.28C93.0085 29.28 92.1085 27.7 92.1085 26.2C92.1085 24.7 92.9885 23.12 94.7485 23.12C95.5285 23.12 96.3485 23.52 96.7285 24.06L98.3685 22.62ZM100.234 23.32V27.8C100.234 29.64 100.814 31.2 103.354 31.2C103.894 31.2 104.534 31.1 104.954 30.94L104.874 29.06C104.594 29.2 104.174 29.26 103.854 29.26C102.794 29.26 102.594 28.64 102.594 27.78V23.32H104.994V21.4H102.594V18.62H100.234V21.4H98.5541V23.32H100.234ZM112.031 23.32V27.8C112.031 29.64 112.611 31.2 115.151 31.2C115.691 31.2 116.331 31.1 116.751 30.94L116.671 29.06C116.391 29.2 115.971 29.26 115.651 29.26C114.591 29.26 114.391 28.64 114.391 27.78V23.32H116.791V21.4H114.391V18.62H112.031V21.4H110.351V23.32H112.031ZM117.968 26.16C117.968 29.18 120.288 31.28 123.188 31.28C126.088 31.28 128.408 29.18 128.408 26.16C128.408 23.14 126.088 21.12 123.188 21.12C120.288 21.12 117.968 23.14 117.968 26.16ZM120.408 26.16C120.408 24.66 121.288 23.08 123.188 23.08C125.088 23.08 125.968 24.66 125.968 26.16C125.968 27.66 125.088 29.28 123.188 29.28C121.288 29.28 120.408 27.66 120.408 26.16ZM151.115 28.96H147.615V28.92C148.875 28.02 150.135 26.28 150.135 23.74C150.135 19.44 146.955 16.48 142.615 16.48C138.275 16.48 135.035 19.44 135.035 23.74C135.035 28.34 138.055 31 142.575 31H151.115V28.96ZM142.615 18.74C145.475 18.74 147.395 20.86 147.395 23.74C147.395 26.76 145.375 28.8 142.575 28.8C139.735 28.8 137.795 26.76 137.795 23.74C137.795 20.86 139.875 18.74 142.615 18.74ZM161.526 21.4H159.126V26.68C159.126 27.96 158.406 29.28 156.886 29.28C155.346 29.28 155.086 27.86 155.086 26.72V21.4H152.686V27.4C152.686 29.36 153.726 31.28 156.226 31.28C157.646 31.28 158.786 30.42 159.206 29.46H159.246V31H161.526V21.4ZM164.447 31H166.847V21.4H164.447V31ZM164.107 18.14C164.107 18.9 164.747 19.58 165.627 19.58C166.507 19.58 167.187 18.96 167.187 18.14C167.187 17.32 166.507 16.7 165.627 16.7C164.747 16.7 164.107 17.38 164.107 18.14ZM177.958 22.62C177.198 21.68 175.738 21.12 174.338 21.12C171.518 21.12 169.198 23.08 169.198 26.2C169.198 29.4 171.558 31.28 174.398 31.28C175.818 31.28 177.138 30.8 177.938 29.94L176.438 28.42C175.978 28.98 175.158 29.28 174.418 29.28C172.598 29.28 171.698 27.7 171.698 26.2C171.698 24.7 172.578 23.12 174.338 23.12C175.118 23.12 175.938 23.52 176.318 24.06L177.958 22.62ZM179.564 31H181.964V26.08H182.024L185.824 31H189.004L184.584 25.74L188.744 21.4H185.664L182.024 25.44H181.964V15.88H179.564V31ZM190.503 31H195.603C198.283 31 200.963 29.96 200.963 26.88C200.963 24.98 199.683 23.78 197.903 23.54V23.5C199.363 23.06 200.363 22 200.363 20.4C200.363 17.82 198.163 16.84 196.023 16.84H190.503V31ZM193.023 18.92H195.043C196.943 18.92 197.843 19.42 197.843 20.68C197.843 21.9 196.943 22.6 195.263 22.6H193.023V18.92ZM193.023 24.76H195.383C197.423 24.76 198.443 25.28 198.443 26.76C198.443 28.62 196.583 28.88 195.283 28.88H193.023V24.76ZM202.773 26.16C202.773 29.18 205.093 31.28 207.993 31.28C210.893 31.28 213.213 29.18 213.213 26.16C213.213 23.14 210.893 21.12 207.993 21.12C205.093 21.12 202.773 23.14 202.773 26.16ZM205.213 26.16C205.213 24.66 206.093 23.08 207.993 23.08C209.893 23.08 210.773 24.66 210.773 26.16C210.773 27.66 209.893 29.28 207.993 29.28C206.093 29.28 205.213 27.66 205.213 26.16ZM214.98 26.16C214.98 29.18 217.3 31.28 220.2 31.28C223.1 31.28 225.42 29.18 225.42 26.16C225.42 23.14 223.1 21.12 220.2 21.12C217.3 21.12 214.98 23.14 214.98 26.16ZM217.42 26.16C217.42 24.66 218.3 23.08 220.2 23.08C222.1 23.08 222.98 24.66 222.98 26.16C222.98 27.66 222.1 29.28 220.2 29.28C218.3 29.28 217.42 27.66 217.42 26.16ZM227.787 31H230.187V26.08H230.247L234.047 31H237.227L232.807 25.74L236.967 21.4H233.887L230.247 25.44H230.187V15.88H227.787V31ZM245.309 22.58C244.529 21.6 243.089 21.12 241.709 21.12C239.809 21.12 237.889 22.04 237.889 24.18C237.889 25.98 239.309 26.56 240.729 26.9C242.189 27.24 242.929 27.48 242.929 28.28C242.929 29.14 242.089 29.42 241.389 29.42C240.349 29.42 239.449 28.9 238.929 28.22L237.349 29.7C238.269 30.72 239.809 31.28 241.289 31.28C243.389 31.28 245.289 30.42 245.289 28.08C245.289 26.2 243.609 25.56 242.189 25.22C240.849 24.9 240.109 24.7 240.109 23.96C240.109 23.2 240.889 22.92 241.649 22.92C242.529 22.92 243.329 23.4 243.749 23.96L245.309 22.58Z" fill="white"/>
</svg>
