<svg width="16" height="16" viewBox="0 0 16 16" fill="none" xmlns="http://www.w3.org/2000/svg">
<path d="M12.4613 5.0954V4.72106C12.4613 4.10153 11.9534 3.60241 11.3251 3.60241H10.5742L11.2638 4.78016L12.4591 5.0954H12.4613ZM11.266 4.78016L10.202 2.96099C9.88896 2.42465 9.19499 2.24076 8.65207 2.55162L4.73562 4.78016L7.39767 2.57789L7.3517 2.55162C6.80878 2.24295 6.1148 2.42684 5.80175 2.96099L4.73781 4.78016L5.05743 3.60241H4.67651C4.0504 3.60241 3.54032 4.10372 3.54032 4.72106V5.46099L2.89013 5.83095C2.34721 6.13962 2.16113 6.82482 2.47638 7.35897L4.73562 11.2206L2.50265 8.59584L2.47638 8.64181C2.16332 9.17815 2.3494 9.86335 2.89232 10.172L4.73781 11.2228L3.54251 10.9076V11.2819C3.54251 11.8992 4.0504 12.4006 4.6787 12.4006H5.42959L4.74 11.2228V4.78016H11.2703H11.266ZM4.73562 11.2206L5.79956 13.0398C6.11262 13.5761 6.80659 13.76 7.34951 13.4492L11.2638 11.2206H4.73562ZM13.5252 7.35897C13.8383 6.82263 13.6522 6.13962 13.1093 5.82876L11.2638 4.77798V11.2184L8.60172 13.4207L8.64769 13.447C9.19061 13.7556 9.88458 13.5739 10.1976 13.0376L11.2616 11.2184L10.942 12.3962H11.3229C11.949 12.3962 12.4591 11.8949 12.4591 11.2775V10.5376L12.1022 10.7412L13.1071 10.1698C13.65 9.86116 13.8361 9.17596 13.523 8.63962L11.2638 4.77798L13.4967 7.40276L13.523 7.35678L13.5252 7.35897Z" fill="white"/>
</svg>
