<svg width="28" height="20" viewBox="0 0 28 20" fill="none" xmlns="http://www.w3.org/2000/svg">
<rect width="28" height="20" rx="2" fill="white"/>
<mask id="mask0" style="mask-type:alpha" maskUnits="userSpaceOnUse" x="0" y="0" width="28" height="20">
<rect width="28" height="20" rx="2" fill="white"/>
</mask>
<g mask="url(#mask0)">
<rect width="28" height="20" fill="#1537D1"/>
<rect x="13.3333" width="14.6667" height="20" fill="#EA3058"/>
<path fill-rule="evenodd" clip-rule="evenodd" d="M9.33325 20H18.6666V0H9.33325V20Z" fill="#FFCF3C"/>
<path fill-rule="evenodd" clip-rule="evenodd" d="M12.6667 8.66683H14.0001V9.3335H12.6667V8.66683Z" fill="#FFEDB1"/>
<path d="M12.3924 8.69435C12.3762 8.50001 12.5296 8.33333 12.7246 8.33333H15.2755C15.4706 8.33333 15.6239 8.50001 15.6077 8.69435L15.4364 10.7497C15.3933 11.268 14.96 11.6667 14.4399 11.6667H13.5603C13.0402 11.6667 12.6069 11.268 12.5637 10.7497L12.3924 8.69435Z" stroke="#D32E28" stroke-width="0.666667"/>
<path fill-rule="evenodd" clip-rule="evenodd" d="M12.6667 9.33333H15.3334V10H14.6667H13.3334H12.6667V9.33333Z" fill="#D32E28"/>
</g>
</svg>
