<svg width="28" height="20" viewBox="0 0 28 20" fill="none" xmlns="http://www.w3.org/2000/svg">
<rect x="0.25" y="0.25" width="27.5" height="19.5" rx="1.75" fill="white" stroke="#F5F5F5" stroke-width="0.5"/>
<mask id="mask0" style="mask-type:alpha" maskUnits="userSpaceOnUse" x="0" y="0" width="28" height="20">
<rect x="0.25" y="0.25" width="27.5" height="19.5" rx="1.75" fill="white" stroke="white" stroke-width="0.5"/>
</mask>
<g mask="url(#mask0)">
<rect x="10.6667" width="6.66667" height="20" fill="#D6182D"/>
<rect y="6.6665" width="28" height="6.66667" fill="#1425A2"/>
<path fill-rule="evenodd" clip-rule="evenodd" d="M11.3334 11.6665L10.862 11.8046L11.0001 11.3332L10.862 10.8618L11.3334 10.9998L11.8048 10.8618L11.6667 11.3332L11.8048 11.8046L11.3334 11.6665Z" fill="white"/>
<path fill-rule="evenodd" clip-rule="evenodd" d="M16.6667 11.6665L16.1953 11.8046L16.3333 11.3332L16.1953 10.8618L16.6667 10.9998L17.1381 10.8618L17 11.3332L17.1381 11.8046L16.6667 11.6665Z" fill="white"/>
<path fill-rule="evenodd" clip-rule="evenodd" d="M8.66667 10.3335L8.19526 10.4716L8.33333 10.0002L8.19526 9.52876L8.66667 9.66683L9.13807 9.52876L9 10.0002L9.13807 10.4716L8.66667 10.3335Z" fill="white"/>
<path fill-rule="evenodd" clip-rule="evenodd" d="M19.3334 10.3335L18.862 10.4716L19.0001 10.0002L18.862 9.52876L19.3334 9.66683L19.8048 9.52876L19.6667 10.0002L19.8048 10.4716L19.3334 10.3335Z" fill="white"/>
<path fill-rule="evenodd" clip-rule="evenodd" d="M13.9999 9L13.5285 9.13807L13.6666 8.66667L13.5285 8.19526L13.9999 8.33333L14.4713 8.19526L14.3333 8.66667L14.4713 9.13807L13.9999 9Z" fill="white"/>
</g>
</svg>
