<svg width="28" height="20" viewBox="0 0 28 20" fill="none" xmlns="http://www.w3.org/2000/svg">
<rect width="28" height="20" rx="2" fill="white"/>
<mask id="mask0" style="mask-type:alpha" maskUnits="userSpaceOnUse" x="0" y="0" width="28" height="20">
<rect width="28" height="20" rx="2" fill="white"/>
</mask>
<g mask="url(#mask0)">
<rect width="28" height="20" fill="#0A17A7"/>
<path d="M0 -0.333333H-0.901086L-0.21693 0.253086L4.33333 4.15331V5.16179L-0.193746 8.39542L-0.333333 8.49513V8.66667V9.33333V9.93475L0.176666 9.616L5.42893 6.33333H6.55984L11.0821 9.56351C11.176 9.6306 11.2886 9.66667 11.404 9.66667C11.9182 9.66667 12.1548 9.02698 11.7644 8.69237L7.66667 5.18002V4.17154L12.0542 1.03762C12.2294 0.912475 12.3333 0.710428 12.3333 0.495127V0V-0.601416L11.8233 -0.282666L6.57107 3H5.44016L0.860413 -0.271244L0.773488 -0.333333H0.666667H0Z" fill="#FF2E3B" stroke="white" stroke-width="0.666667"/>
<path fill-rule="evenodd" clip-rule="evenodd" d="M0 3.33333V6H4.66667V9.33333C4.66667 9.70152 4.96514 10 5.33333 10H6.66667C7.03486 10 7.33333 9.70152 7.33333 9.33333V6H12C12.3682 6 12.6667 5.70152 12.6667 5.33333V4C12.6667 3.63181 12.3682 3.33333 12 3.33333H7.33333V0H4.66667V3.33333H0Z" fill="url(#paint0_linear)"/>
<path fill-rule="evenodd" clip-rule="evenodd" d="M0 4H5.33333V3.33333V0H6.66667V3.33333V4H12V5.33333H6.66667V6V9.33333H5.33333V6V5.33333H0V4Z" fill="url(#paint1_linear)"/>
<path fill-rule="evenodd" clip-rule="evenodd" d="M6 16.3335L4.82443 16.9515L5.04894 15.6425L4.09789 14.7155L5.41221 14.5245L6 13.3335L6.58779 14.5245L7.90211 14.7155L6.95106 15.6425L7.17557 16.9515L6 16.3335Z" fill="white"/>
<path fill-rule="evenodd" clip-rule="evenodd" d="M20.0001 17.3335L19.0573 17.6096L19.3334 16.6668L19.0573 15.724L20.0001 16.0002L20.9429 15.724L20.6667 16.6668L20.9429 17.6096L20.0001 17.3335Z" fill="white"/>
<path fill-rule="evenodd" clip-rule="evenodd" d="M20.0001 4.6665L19.0573 4.94265L19.3334 3.99984L19.0573 3.05703L20.0001 3.33317L20.9429 3.05703L20.6667 3.99984L20.9429 4.94265L20.0001 4.6665Z" fill="white"/>
<path fill-rule="evenodd" clip-rule="evenodd" d="M24.0001 8.6665L23.0573 8.94265L23.3334 7.99984L23.0573 7.05703L24.0001 7.33317L24.9429 7.05703L24.6667 7.99984L24.9429 8.94265L24.0001 8.6665Z" fill="white"/>
<path fill-rule="evenodd" clip-rule="evenodd" d="M16.0001 10L15.0573 10.2761L15.3334 9.33333L15.0573 8.39052L16.0001 8.66667L16.9429 8.39052L16.6667 9.33333L16.9429 10.2761L16.0001 10Z" fill="white"/>
<path fill-rule="evenodd" clip-rule="evenodd" d="M21.9999 11.6665L21.5285 11.8046L21.6666 11.3332L21.5285 10.8618L21.9999 10.9998L22.4713 10.8618L22.3333 11.3332L22.4713 11.8046L21.9999 11.6665Z" fill="white"/>
</g>
<defs>
<linearGradient id="paint0_linear" x1="0" y1="0" x2="0" y2="10" gradientUnits="userSpaceOnUse">
<stop stop-color="white"/>
<stop offset="1" stop-color="#F0F0F0"/>
</linearGradient>
<linearGradient id="paint1_linear" x1="0" y1="0" x2="0" y2="9.33333" gradientUnits="userSpaceOnUse">
<stop stop-color="#FF2E3B"/>
<stop offset="1" stop-color="#FC0D1B"/>
</linearGradient>
</defs>
</svg>
