<svg width="28" height="20" viewBox="0 0 28 20" fill="none" xmlns="http://www.w3.org/2000/svg">
<rect width="28" height="20" rx="2" fill="white"/>
<mask id="mask0" style="mask-type:alpha" maskUnits="userSpaceOnUse" x="0" y="0" width="28" height="20">
<rect width="28" height="20" rx="2" fill="white"/>
</mask>
<g mask="url(#mask0)">
<rect width="28" height="20" fill="url(#paint0_linear)"/>
<rect x="13.3333" width="14.6667" height="20" fill="#08379D"/>
<path fill-rule="evenodd" clip-rule="evenodd" d="M0 20H9.33333V0H0V20Z" fill="#08379D"/>
<path fill-rule="evenodd" clip-rule="evenodd" d="M9.33325 20H18.6666V0H9.33325V20Z" fill="#FFCC50"/>
<path fill-rule="evenodd" clip-rule="evenodd" d="M13.7456 6.41362C13.8794 6.21692 14.1702 6.21962 14.3003 6.41877L14.9965 7.48448C15.1413 7.70619 14.9822 8.00012 14.7174 8.00012H14.7017C14.5044 8.00012 14.3504 8.17039 14.37 8.36662L14.6366 11.0333C14.6537 11.2037 14.7971 11.3335 14.9683 11.3335H15.1963C15.2841 11.3335 15.3683 11.2988 15.4307 11.2371L15.9011 10.7718C15.9644 10.7092 16 10.6238 16 10.5348V9.47152C16 9.38312 15.9649 9.29833 15.9024 9.23582L15.7147 9.04816C15.5395 8.87294 15.6099 8.57459 15.845 8.49623L16.798 8.17856C17.0387 8.09834 17.2771 8.30561 17.2313 8.55508L16.7397 11.2279C16.7271 11.2965 16.6932 11.3595 16.6429 11.4079L15.4301 12.5738C15.368 12.6334 15.2852 12.6668 15.1991 12.6668H15C14.8159 12.6668 14.6667 12.816 14.6667 13.0001V13.6668C14.6667 13.8509 14.5174 14.0001 14.3333 14.0001H13.6667C13.4826 14.0001 13.3333 13.8509 13.3333 13.6668V13.0001C13.3333 12.816 13.1841 12.6668 13 12.6668H12.8047C12.7163 12.6668 12.6315 12.6317 12.569 12.5692L11.4047 11.4048C11.3582 11.3583 11.3264 11.299 11.3135 11.2345L10.7793 8.56336C10.7291 8.31239 10.9688 8.10082 11.2116 8.18176L12.155 8.49623C12.3901 8.57459 12.4605 8.87294 12.2853 9.04816L12.0976 9.23582C12.0351 9.29833 12 9.38312 12 9.47152V10.5348C12 10.6238 12.0356 10.7092 12.0989 10.7718L12.5693 11.2371C12.6317 11.2988 12.7159 11.3335 12.8037 11.3335H13.0317C13.2029 11.3335 13.3463 11.2037 13.3633 11.0333L13.63 8.36662C13.6496 8.17039 13.4948 8.00012 13.2976 8.00012C13.03 8.00012 12.8703 7.70064 13.0208 7.47934L13.7456 6.41362Z" fill="#262626"/>
</g>
<defs>
<linearGradient id="paint0_linear" x1="0" y1="0" x2="0" y2="20" gradientUnits="userSpaceOnUse">
<stop stop-color="#1132C7"/>
<stop offset="1" stop-color="#0522A5"/>
</linearGradient>
</defs>
</svg>
