<svg width="28" height="20" viewBox="0 0 28 20" fill="none" xmlns="http://www.w3.org/2000/svg">
<rect width="28" height="20" rx="2" fill="white"/>
<mask id="mask0" style="mask-type:alpha" maskUnits="userSpaceOnUse" x="0" y="0" width="28" height="20">
<rect width="28" height="20" rx="2" fill="white"/>
</mask>
<g mask="url(#mask0)">
<rect width="28" height="20" fill="#05AB41"/>
<path fill-rule="evenodd" clip-rule="evenodd" d="M3.53176 10.5596C3.12576 10.2968 3.12576 9.70283 3.53176 9.44012L13.6379 2.90085C13.8583 2.75824 14.1419 2.75824 14.3622 2.90085L24.4684 9.44012C24.8744 9.70283 24.8744 10.2968 24.4684 10.5596L14.3622 17.0988C14.1419 17.2414 13.8583 17.2414 13.6379 17.0988L3.53176 10.5596Z" fill="#FDD216"/>
<path fill-rule="evenodd" clip-rule="evenodd" d="M13.9999 14.6668C16.5772 14.6668 18.6666 12.5775 18.6666 10.0002C18.6666 7.42283 16.5772 5.3335 13.9999 5.3335C11.4226 5.3335 9.33325 7.42283 9.33325 10.0002C9.33325 12.5775 11.4226 14.6668 13.9999 14.6668Z" fill="#053087"/>
<mask id="mask1" style="mask-type:alpha" maskUnits="userSpaceOnUse" x="9" y="5" width="10" height="10">
<path fill-rule="evenodd" clip-rule="evenodd" d="M13.9999 14.6668C16.5772 14.6668 18.6666 12.5775 18.6666 10.0002C18.6666 7.42283 16.5772 5.3335 13.9999 5.3335C11.4226 5.3335 9.33325 7.42283 9.33325 10.0002C9.33325 12.5775 11.4226 14.6668 13.9999 14.6668Z" fill="white"/>
</mask>
<g mask="url(#mask1)">
<path d="M8.77987 8.78057C9.51257 8.18724 11.8769 8.74931 14.084 9.33806C16.291 9.9268 18.5929 11.1608 19.179 11.8846" stroke="white" stroke-width="1.33333" stroke-linecap="square"/>
</g>
</g>
</svg>
