<svg fill="none" height="20" viewBox="0 0 28 20" width="28" xmlns="http://www.w3.org/2000/svg" xmlns:xlink="http://www.w3.org/1999/xlink"><mask id="a" height="20" maskUnits="userSpaceOnUse" width="28" x="0" y="0"><rect fill="#fff" height="19.5" rx="1.75" stroke="#fff" stroke-width=".5" width="27.5" x=".25" y=".25"/></mask><rect fill="#fff" height="19.5" rx="1.75" stroke="#f5f5f5" stroke-width=".5" width="27.5" x=".25" y=".25"/><g fill="#ff3131" mask="url(#a)"><path d="m20 0h8v20h-8z"/><g clip-rule="evenodd" fill-rule="evenodd"><path d="m0 20h8v-20h-8z"/><path d="m16.1117 9.22169c-.2332.23321-.6272.02232-.5625-.30107l.4507-2.25379-1.3333.66667-.6667-2-.6666 2-1.3334-.66667.4508 2.25379c.0647.32339-.3294.53428-.5626.30107l-.3191-.31916c-.1302-.13017-.3413-.13017-.4715 0l-.4309.43097-1.33335-.66667.66667 1.33337-.43097.4309c-.13017.1302-.13017.3413 0 .4714l1.76435 1.7643h2l.3333 2h.6667l.3333-2h2l1.7643-1.7643c.1302-.1301.1302-.3412 0-.4714l-.431-.4309.6667-1.33337-1.3333.66667-.431-.43097c-.1302-.13017-.3412-.13017-.4714 0z"/></g></g></svg>