<svg width="28" height="20" viewBox="0 0 28 20" fill="none" xmlns="http://www.w3.org/2000/svg">
<rect width="28" height="20" rx="2" fill="white"/>
<mask id="mask0" style="mask-type:alpha" maskUnits="userSpaceOnUse" x="0" y="0" width="28" height="20">
<rect width="28" height="20" rx="2" fill="white"/>
</mask>
<g mask="url(#mask0)">
<rect width="28" height="20" fill="#19BFBF"/>
<path fill-rule="evenodd" clip-rule="evenodd" d="M5.4824 8.36861C5.40007 8.53327 5.46682 8.73349 5.63148 8.81582L7.70186 9.85101C7.86652 9.93334 7.93326 10.1336 7.85093 10.2982L7.4824 11.0353C7.40007 11.1999 7.19985 11.2667 7.03519 11.1843L6.07038 10.7019C6.0241 10.6788 5.97306 10.6667 5.92131 10.6667H4.33333C4.14924 10.6667 4 10.816 4 11.0001V11.7598C4 11.9033 4.09181 12.0307 4.22792 12.0761L5.48833 12.4962C5.72341 12.5746 5.79384 12.8729 5.61863 13.0481L5.43096 13.2358C5.36845 13.2983 5.33333 13.3831 5.33333 13.4715V13.946C5.33333 13.9818 5.33911 14.0174 5.35044 14.0514L5.95634 15.8691C5.98429 15.953 6.04442 16.0223 6.12349 16.0618L7.11844 16.5593C7.24677 16.6235 7.40176 16.5983 7.50322 16.4969L8.66667 15.3334L9.00631 14.9938C9.16719 14.8329 9.12318 14.5617 8.91968 14.4599L8.18426 14.0922C8.07133 14.0357 8 13.9203 8 13.7941V13.7603C8 13.5435 8.2038 13.3844 8.41418 13.437L10.4142 13.937C10.5626 13.9741 10.6667 14.1074 10.6667 14.2603V15.2325C10.6667 15.2983 10.6861 15.3626 10.7226 15.4174L11.901 17.185C11.9629 17.2777 12.0669 17.3334 12.1784 17.3334H12.441C12.5773 17.3334 12.6999 17.2504 12.7505 17.1239L13.7243 14.6893C13.8311 14.4222 14.2033 14.4067 14.332 14.664L14.6425 15.285C14.6585 15.3171 14.6796 15.3463 14.7049 15.3717L15.9618 16.6285C15.9871 16.6538 16.0163 16.6749 16.0484 16.6909L16.8509 17.0922C17.0726 17.203 17.3333 17.0419 17.3333 16.7941V16.1382C17.3333 16.0497 17.2982 15.965 17.2357 15.9024L16.9024 15.5691C16.7722 15.4389 16.7722 15.2279 16.9024 15.0977L17.2357 14.7644C17.2982 14.7019 17.383 14.6667 17.4714 14.6667H18.588C18.6397 14.6667 18.6908 14.6547 18.737 14.6316L19.8157 14.0922C19.9287 14.0357 20 13.9203 20 13.7941V12.8048C20 12.7164 19.9649 12.6316 19.9024 12.5691L19.569 12.2358C19.4389 12.1056 19.4389 11.8946 19.569 11.7644L20.3396 10.9938C20.5005 10.8329 20.7717 10.8769 20.8735 11.0804L21.2509 11.8353C21.3014 11.9363 21.4047 12.0001 21.5176 12.0001C21.7392 12.0001 21.8834 11.7668 21.7843 11.5686L21.4824 10.9649C21.4001 10.8002 21.4668 10.6 21.6315 10.5177L22.3685 10.1492C22.5332 10.0668 22.5999 9.8666 22.5176 9.70194L22.0617 8.79024C22.0222 8.71117 21.9529 8.65104 21.869 8.62309L20.5117 8.17064C20.2766 8.09228 20.2062 7.79392 20.3814 7.61871L21.2357 6.76438C21.2982 6.70187 21.383 6.66675 21.4714 6.66675H23.1273C23.2536 6.66675 23.369 6.59541 23.4255 6.48249L23.7816 5.77023C23.8866 5.56027 23.7474 5.31045 23.5136 5.2892L17.3754 4.73118C17.094 4.70559 16.9701 4.36335 17.1699 4.16351L17.2357 4.09771C17.2982 4.0352 17.3333 3.95042 17.3333 3.86201V3.00008C17.3333 2.81599 17.1841 2.66675 17 2.66675H14.1381C14.0497 2.66675 13.9649 2.70187 13.9024 2.76438L12.0653 4.60146C12.0226 4.64418 11.969 4.67449 11.9104 4.68914L9.33333 5.33341L6.78629 5.97017C6.7091 5.98947 6.62755 5.98052 6.55638 5.94494L6.05311 5.6933C5.7875 5.5605 5.4939 5.81513 5.58781 6.09686L5.95634 7.20243C5.98429 7.2863 5.97779 7.37784 5.93825 7.45691L5.4824 8.36861ZM14.6667 16.6667C14.6667 17.0349 14.3682 17.3334 14 17.3334C13.6318 17.3334 13.3333 17.0349 13.3333 16.6667C13.3333 16.2986 13.6318 16.0001 14 16.0001C14.3682 16.0001 14.6667 16.2986 14.6667 16.6667ZM10 10.6667C10.3682 10.6667 10.6667 10.3683 10.6667 10.0001C10.6667 9.63189 10.3682 9.33341 10 9.33341C9.63181 9.33341 9.33333 9.63189 9.33333 10.0001C9.33333 10.3683 9.63181 10.6667 10 10.6667ZM22.6667 12.6667V13.3334L21.9024 14.0977C21.6924 14.3077 21.8411 14.6667 22.1381 14.6667H22.4607C22.5869 14.6667 22.7023 14.5954 22.7588 14.4825L23.3333 13.3334L22.6667 12.6667ZM22.6667 12.6667L23.0352 12.4825C23.2755 12.3623 23.19 12.0001 22.9213 12.0001C22.7807 12.0001 22.6667 12.1141 22.6667 12.2547V12.6667Z" fill="white"/>
</g>
</svg>
