<svg width="28" height="20" viewBox="0 0 28 20" fill="none" xmlns="http://www.w3.org/2000/svg">
<rect width="28" height="20" rx="2" fill="white"/>
<mask id="mask0" style="mask-type:alpha" maskUnits="userSpaceOnUse" x="0" y="0" width="28" height="20">
<rect width="28" height="20" rx="2" fill="white"/>
</mask>
<g mask="url(#mask0)">
<rect width="28" height="20" fill="#19BFBF"/>
<path fill-rule="evenodd" clip-rule="evenodd" d="M17.0977 17.7644L16.0557 16.7224C16.0191 16.6858 15.9916 16.6412 15.9752 16.5921L15.4093 14.8945C15.364 14.7585 15.2367 14.6667 15.0933 14.6667C14.8767 14.6667 14.7177 14.8704 14.7702 15.0806L15.2876 17.1503C15.316 17.2639 15.2828 17.3841 15.2 17.4669L14.9025 17.7644C14.7723 17.8946 14.5612 17.8946 14.431 17.7644L14.0977 17.431C14.0352 17.3685 14.0001 17.2837 14.0001 17.1953V16.0788C14.0001 16.027 13.988 15.976 13.9649 15.9297L13.4255 14.851C13.3691 14.7381 13.2537 14.6667 13.1274 14.6667H11.4121C11.3604 14.6667 11.3093 14.6788 11.263 14.7019L10.1236 15.2717C10.0445 15.3112 9.98438 15.3805 9.95642 15.4644L9.37708 17.2024C9.34912 17.2863 9.28899 17.3556 9.20992 17.3952L8.14915 17.9255C8.05531 17.9725 7.94485 17.9725 7.85101 17.9255L6.85101 17.4255C6.73808 17.3691 6.66675 17.2537 6.66675 17.1274V15.0001C6.66675 14.816 6.81599 14.6667 7.00008 14.6667H8.33341C8.51751 14.6667 8.66675 14.5175 8.66675 14.3334V13.3875C8.66675 13.3517 8.67252 13.3161 8.68385 13.2821L9.25744 11.5613C9.30281 11.4252 9.43019 11.3334 9.57367 11.3334H10.5881C10.6398 11.3334 10.6908 11.3214 10.7371 11.2982L11.9297 10.7019C11.976 10.6788 12.027 10.6667 12.0788 10.6667H13.0001C13.1842 10.6667 13.3334 10.5175 13.3334 10.3334V10.1382C13.3334 10.0497 13.3685 9.96496 13.431 9.90245L13.6731 9.66043C13.8339 9.49955 14.1052 9.54357 14.2069 9.74707L14.5746 10.4825C14.6311 10.5954 14.7465 10.6667 14.8728 10.6667H16.4265C16.57 10.6667 16.6974 10.5749 16.7427 10.4388L17.2574 8.89467C17.3028 8.75856 17.4302 8.66675 17.5737 8.66675H18.3334C18.5175 8.66675 18.6667 8.51751 18.6667 8.33342C18.6667 8.14932 18.5175 8.00008 18.3334 8.00008H17.6667C17.4827 8.00008 17.3334 7.85084 17.3334 7.66675V6.74544C17.3334 6.69369 17.3455 6.64265 17.3686 6.59637L17.8926 5.5483C17.9568 5.41997 17.9317 5.26498 17.8302 5.16353L17.5691 4.90245C17.4389 4.77228 17.2279 4.77228 17.0977 4.90245L16.0977 5.90245C16.0352 5.96496 16.0001 6.04975 16.0001 6.13815V7.27932C16.0001 7.31515 15.9943 7.35074 15.983 7.38473L15.4094 9.10549C15.364 9.2416 15.2366 9.33341 15.0932 9.33341H14.8048C14.7164 9.33341 14.6316 9.2983 14.5691 9.23578L14.0962 8.76283C14.0346 8.70131 14.0001 8.61787 14.0001 8.53087C14.0001 8.28701 13.7434 8.1284 13.5253 8.23746L12.8816 8.5593C12.7533 8.62347 12.5983 8.59832 12.4969 8.49686L12.0977 8.09771C12.0352 8.0352 12.0001 7.95042 12.0001 7.86201V6.80482C12.0001 6.71641 12.0352 6.63163 12.0977 6.56912L13.3334 5.33341L15.2778 3.38906C15.3144 3.35246 15.359 3.3249 15.4081 3.30853L17.2821 2.68385C17.3161 2.67252 17.3517 2.66675 17.3875 2.66675H18.4607C18.587 2.66675 18.7024 2.73808 18.7589 2.85101L19.2982 3.9297C19.3214 3.97598 19.3334 4.02702 19.3334 4.07877V5.86201C19.3334 5.95042 19.3685 6.0352 19.431 6.09771L19.8544 6.52108C19.9437 6.61035 19.9749 6.74241 19.9349 6.86219L19.4139 8.42521C19.3664 8.56782 19.4202 8.72459 19.5453 8.80797L21.3334 10.0001L22.329 10.4979C22.5083 10.5875 22.5685 10.8141 22.4573 10.9809L21.3894 12.5828C21.3529 12.6375 21.3334 12.7019 21.3334 12.7677V14.4265C21.3334 14.57 21.2416 14.6974 21.1055 14.7427L19.4644 15.2898C19.3805 15.3177 19.3112 15.3778 19.2717 15.4569L18.6909 16.6184C18.6749 16.6504 18.6538 16.6797 18.6285 16.705L17.5691 17.7644C17.4389 17.8946 17.2279 17.8946 17.0977 17.7644ZM11.3334 17.3334C11.7016 17.3334 12.0001 17.0349 12.0001 16.6667C12.0001 16.2986 11.7016 16.0001 11.3334 16.0001C10.9652 16.0001 10.6667 16.2986 10.6667 16.6667C10.6667 17.0349 10.9652 17.3334 11.3334 17.3334ZM9.33341 8.66675C9.33341 9.03494 9.03494 9.33342 8.66675 9.33342C8.29856 9.33342 8.00008 9.03494 8.00008 8.66675C8.00008 8.29856 8.29856 8.00008 8.66675 8.00008C9.03494 8.00008 9.33341 8.29856 9.33341 8.66675Z" fill="white"/>
<path fill-rule="evenodd" clip-rule="evenodd" d="M9.96473 8.73713C9.98787 8.69084 9.99992 8.63981 9.99992 8.58806V8.07877C9.99992 8.02702 9.98787 7.97598 9.96473 7.9297L9.57445 7.14915C9.46364 6.92752 9.6248 6.66675 9.8726 6.66675H10.3333C10.5173 6.66675 10.6666 6.81599 10.6666 7.00008V8.58806C10.6666 8.63981 10.6786 8.69084 10.7018 8.73713L11.092 9.51768C11.2029 9.73931 11.0417 10.0001 10.7939 10.0001H9.8726C9.6248 10.0001 9.46364 9.73931 9.57445 9.51768L9.96473 8.73713Z" fill="white"/>
</g>
</svg>
