<svg width="28" height="20" viewBox="0 0 28 20" fill="none" xmlns="http://www.w3.org/2000/svg">
<rect width="28" height="20" rx="2" fill="white"/>
<mask id="mask0" style="mask-type:alpha" maskUnits="userSpaceOnUse" x="0" y="0" width="28" height="20">
<rect width="28" height="20" rx="2" fill="white"/>
</mask>
<g mask="url(#mask0)">
<rect width="28" height="20" fill="#19BFBF"/>
<path fill-rule="evenodd" clip-rule="evenodd" d="M13.3333 14.6667L12.7588 13.5177C12.7023 13.4047 12.5869 13.3334 12.4607 13.3334H12.1381C12.0497 13.3334 11.9649 13.2983 11.9024 13.2358L9.43096 10.7644C9.36845 10.7019 9.33333 10.6171 9.33333 10.5287V9.47149C9.33333 9.38308 9.29821 9.2983 9.2357 9.23578L8.06529 8.06537C8.02257 8.02265 7.99226 7.96912 7.97761 7.91051L7.37771 5.51093C7.35007 5.40037 7.26786 5.31159 7.15974 5.27555L5.35581 4.67424C5.34084 4.66925 5.32625 4.66321 5.31215 4.65615L4.18426 4.09221C4.07133 4.03575 4 3.92033 4 3.79407V3.00008C4 2.81599 4.14924 2.66675 4.33333 2.66675H5.19526C5.28367 2.66675 5.36845 2.70187 5.43096 2.76438L5.90237 3.23578C5.96488 3.2983 6.04967 3.33341 6.13807 3.33341H7.19526C7.28367 3.33341 7.36845 3.2983 7.43096 3.23578L7.90237 2.76438C7.96488 2.70187 8.04967 2.66675 8.13807 2.66675H10.588C10.6397 2.66675 10.6908 2.6788 10.737 2.70194L11.9296 3.29822C11.9759 3.32137 12.0269 3.33341 12.0787 3.33341H13.2546C13.3064 3.33341 13.3574 3.32137 13.4037 3.29822L14.5963 2.70194C14.6426 2.6788 14.6936 2.66675 14.7454 2.66675H17C17.1841 2.66675 17.3333 2.81599 17.3333 3.00008V3.66675C17.3333 3.85084 17.1841 4.00008 17 4.00008H16.3333C16.1492 4.00008 16 4.14932 16 4.33341V5.79407C16 5.92033 16.0713 6.03575 16.1843 6.09221L16.8509 6.42555C17.0726 6.53636 17.3333 6.3752 17.3333 6.1274V5.00008C17.3333 4.81599 17.4826 4.66675 17.6667 4.66675H19C19.1841 4.66675 19.3333 4.81599 19.3333 5.00008C19.3333 5.18418 19.4826 5.33341 19.6667 5.33341H21C21.1841 5.33341 21.3333 5.48265 21.3333 5.66675V6.61266C21.3333 6.64848 21.3276 6.68408 21.3162 6.71806L20.6915 8.5921C20.6752 8.64119 20.6476 8.6858 20.611 8.72239L18.7049 10.6285C18.6796 10.6538 18.6585 10.6831 18.6425 10.7151L18.0352 11.9297C18.012 11.976 18 12.027 18 12.0788V13.0001C18 13.1842 17.8508 13.3334 17.6667 13.3334H17.5393C17.4131 13.3334 17.2977 13.2621 17.2412 13.1492L16.7588 12.1843C16.7023 12.0714 16.5869 12.0001 16.4607 12.0001H14.8727C14.7464 12.0001 14.631 12.0714 14.5745 12.1843L14.0745 13.1843C14.0276 13.2782 14.0276 13.3886 14.0745 13.4825L14.5745 14.4825C14.631 14.5954 14.7464 14.6667 14.8727 14.6667H15.8619C15.9503 14.6667 16.0351 14.7019 16.0976 14.7644L17.2357 15.9024C17.2982 15.965 17.3333 16.0497 17.3333 16.1382V17.0001C17.3333 17.1842 17.1841 17.3334 17 17.3334H16.206C16.0798 17.3334 15.9643 17.2621 15.9079 17.1492L15.4255 16.1843C15.369 16.0714 15.2536 16.0001 15.1273 16.0001H14.206C14.0798 16.0001 13.9643 15.9287 13.9079 15.8158L13.3333 14.6667Z" fill="white"/>
</g>
</svg>
