<svg width="28" height="20" viewBox="0 0 28 20" fill="none" xmlns="http://www.w3.org/2000/svg">
<rect width="28" height="20" rx="2" fill="white"/>
<mask id="mask0" style="mask-type:alpha" maskUnits="userSpaceOnUse" x="0" y="0" width="28" height="20">
<rect width="28" height="20" rx="2" fill="white"/>
</mask>
<g mask="url(#mask0)">
<rect width="28" height="20" fill="url(#paint0_linear)"/>
<path fill-rule="evenodd" clip-rule="evenodd" d="M13.4444 3.33341C13.3723 3.33341 13.3021 3.35681 13.2444 3.40008L10.7205 5.29303C10.6849 5.31968 10.6444 5.33897 10.6013 5.34974L8.03545 5.99121C8.01186 5.99711 7.98898 6.00557 7.96722 6.01645L5.43267 7.28372C5.36816 7.31598 5.31585 7.36829 5.28359 7.4328L4.08646 9.82706C4.03297 9.93405 4.0409 10.0615 4.10725 10.161L5.2773 11.9161C5.31381 11.9709 5.33329 12.0352 5.33329 12.101V13.862C5.33329 13.9504 5.3684 14.0352 5.43092 14.0977L6.49673 15.1635C6.59819 15.265 6.75318 15.2901 6.88151 15.226L10.5962 13.3686C10.6425 13.3455 10.6936 13.3334 10.7453 13.3334H13.2126C13.2906 13.3334 13.3661 13.3608 13.426 13.4107L17.2406 16.5895C17.3005 16.6394 17.376 16.6667 17.454 16.6667H19.8216C19.933 16.6667 20.0371 16.611 20.0989 16.5183L22.6106 12.7507C22.6471 12.696 22.6666 12.6316 22.6666 12.5658V10.101C22.6666 10.0352 22.6471 9.97086 22.6106 9.91611L20 6.00008L18.0971 2.82858C18.0368 2.72818 17.9283 2.66675 17.8112 2.66675H17.3927C17.1247 2.66675 16.9906 2.99069 17.18 3.18014C17.2715 3.27167 17.2942 3.41151 17.2363 3.52729L16.7587 4.48249C16.7023 4.59541 16.5869 4.66675 16.4606 4.66675H14.8726C14.7464 4.66675 14.631 4.59541 14.5745 4.48249L14.0921 3.51768C14.0356 3.40475 13.9202 3.33341 13.7939 3.33341H13.4444ZM19.3333 17.3334H18L18.4309 17.7644C18.5611 17.8946 18.7721 17.8946 18.9023 17.7644L19.3333 17.3334Z" fill="white"/>
</g>
<defs>
<linearGradient id="paint0_linear" x1="0" y1="0" x2="0" y2="20" gradientUnits="userSpaceOnUse">
<stop stop-color="#19BFBF"/>
<stop offset="1" stop-color="#10ACAC"/>
</linearGradient>
</defs>
</svg>
