<svg width="28" height="20" viewBox="0 0 28 20" fill="none" xmlns="http://www.w3.org/2000/svg">
<rect width="28" height="20" rx="2" fill="white"/>
<mask id="mask0" style="mask-type:alpha" maskUnits="userSpaceOnUse" x="0" y="0" width="28" height="20">
<rect width="28" height="20" rx="2" fill="white"/>
</mask>
<g mask="url(#mask0)">
<rect width="28" height="20" fill="#19BFBF"/>
<path fill-rule="evenodd" clip-rule="evenodd" d="M9.99992 16.0411C9.99992 16.0139 10.0033 15.9867 10.0099 15.9603L10.6666 13.3334L11.3097 10.7609C11.3251 10.6994 11.3226 10.6348 11.3026 10.5747L10.7102 8.79773C10.6823 8.71386 10.6222 8.64454 10.5431 8.605L9.51751 8.09221C9.40459 8.03575 9.33325 7.92033 9.33325 7.79407V5.4121C9.33325 5.36036 9.3453 5.30932 9.36844 5.26303L9.99992 4.00008L10.5745 2.85101C10.6309 2.73808 10.7463 2.66675 10.8726 2.66675H14.3333C14.5173 2.66675 14.6666 2.81599 14.6666 3.00008V3.66675C14.6666 3.85084 14.8158 4.00008 14.9999 4.00008H15.6666C15.8507 4.00008 15.9999 4.14932 15.9999 4.33341V5.1274C15.9999 5.25366 16.0713 5.36908 16.1842 5.42555L18.4823 6.57462C18.5953 6.63108 18.6666 6.7465 18.6666 6.87276V7.92139C18.6666 7.97314 18.6545 8.02418 18.6314 8.07046L18.0395 9.25424C18.0136 9.30612 17.9745 9.35034 17.9263 9.38252L16.0736 10.6176C16.0253 10.6498 15.9863 10.694 15.9603 10.7459L14.7062 13.2542C14.6802 13.3061 14.6412 13.3503 14.5929 13.3825L12.7402 14.6176C12.692 14.6498 12.6529 14.694 12.627 14.7459L11.4254 17.1492C11.3689 17.2621 11.2535 17.3334 11.1272 17.3334H10.3333C10.1492 17.3334 9.99992 17.1842 9.99992 17.0001V16.0411Z" fill="white"/>
</g>
</svg>
