<svg width="28" height="20" viewBox="0 0 28 20" fill="none" xmlns="http://www.w3.org/2000/svg">
<rect x="0.25" y="0.25" width="27.5" height="19.5" rx="1.75" fill="white" stroke="#F5F5F5" stroke-width="0.5"/>
<mask id="mask0" style="mask-type:alpha" maskUnits="userSpaceOnUse" x="0" y="0" width="28" height="20">
<rect x="0.25" y="0.25" width="27.5" height="19.5" rx="1.75" fill="white" stroke="white" stroke-width="0.5"/>
</mask>
<g mask="url(#mask0)">
<path fill-rule="evenodd" clip-rule="evenodd" d="M20.0002 3.33317C20.3633 3.15162 20.7318 3.56907 20.5066 3.90685L20.0674 4.56564C20.023 4.63222 19.9659 4.68936 19.8993 4.73375L18.0551 5.96322C18.0186 5.98757 17.9845 6.01547 17.9535 6.04652L17.8049 6.1951C17.5446 6.45545 17.5446 6.87756 17.8049 7.13791L18.1954 7.52843C18.4558 7.78878 18.4558 8.21089 18.1954 8.47124L17.6733 8.9934C17.4704 9.19631 17.1604 9.24661 16.9037 9.11828L16.5964 8.96465C16.2671 8.79999 15.8667 8.93347 15.702 9.26279L15.457 9.75285C15.3779 9.91099 15.2393 10.0312 15.0715 10.0872L13.4361 10.6323C13.3682 10.655 13.297 10.6665 13.2253 10.6665H12.4122C12.1597 10.6665 11.9288 10.8092 11.8159 11.035L11.6316 11.4036C11.467 11.7329 11.0665 11.8664 10.7372 11.7017L8.76359 10.7149C8.6995 10.6828 8.641 10.6407 8.59033 10.59L7.52876 9.52843C7.40373 9.40341 7.3335 9.23384 7.3335 9.05703V8.47124C7.3335 8.21089 7.54455 7.99984 7.8049 7.99984C7.92992 7.99984 8.04983 7.95017 8.13823 7.86177L9.13823 6.86177C9.26326 6.73674 9.43283 6.6665 9.60964 6.6665H10.1863C10.4733 6.6665 10.728 6.48288 10.8188 6.21066L11.1474 5.22482C11.2537 4.90586 11.5809 4.71599 11.9106 4.78192L14.5198 5.30377C14.6166 5.32313 14.7165 5.32075 14.8123 5.29681L17.2625 4.68425C17.3097 4.67246 17.3554 4.65553 17.399 4.63378L18.6668 3.99984L20.0002 3.33317Z" fill="#E7832C"/>
<path fill-rule="evenodd" clip-rule="evenodd" d="M14.0002 15.9998C14.3684 15.9998 14.6668 15.7014 14.6668 15.3332C14.6668 14.965 14.3684 14.6665 14.0002 14.6665C13.632 14.6665 13.3335 14.965 13.3335 15.3332C13.3335 15.7014 13.632 15.9998 14.0002 15.9998Z" fill="#445128"/>
<path opacity="0.75" d="M16 14.6665C16 14.6665 18 13.9998 18.6667 12.6665" stroke="#445128" stroke-width="1.33333" stroke-linecap="round"/>
<path opacity="0.75" d="M12 14.6665C12 14.6665 10 13.9998 9.33333 12.6665" stroke="#445128" stroke-width="1.33333" stroke-linecap="round"/>
</g>
</svg>
