<svg width="28" height="20" viewBox="0 0 28 20" fill="none" xmlns="http://www.w3.org/2000/svg">
<rect x="0.25" y="0.25" width="27.5" height="19.5" rx="1.75" fill="white" stroke="#F5F5F5" stroke-width="0.5"/>
<mask id="mask0" style="mask-type:alpha" maskUnits="userSpaceOnUse" x="0" y="0" width="28" height="20">
<rect x="0.25" y="0.25" width="27.5" height="19.5" rx="1.75" fill="white" stroke="white" stroke-width="0.5"/>
</mask>
<g mask="url(#mask0)">
<path fill-rule="evenodd" clip-rule="evenodd" d="M0 8H12V0H0V8Z" fill="#083D7A"/>
<path fill-rule="evenodd" clip-rule="evenodd" d="M16 20H28V12H16V20Z" fill="#083D7A"/>
<path fill-rule="evenodd" clip-rule="evenodd" d="M0 20H12V12H0V20Z" fill="#DF1E35"/>
<path fill-rule="evenodd" clip-rule="evenodd" d="M16 8H28V0H16V8Z" fill="#DF1E35"/>
<mask id="path-7-inside-1" fill="white">
<path fill-rule="evenodd" clip-rule="evenodd" d="M12.5858 8.58579C11.8048 9.36684 11.8048 10.6332 12.5858 11.4142C13.3669 12.1953 14.6332 12.1953 15.4143 11.4142C16.1953 10.6332 16.1953 9.36683 15.4143 8.58579"/>
</mask>
<path d="M12.1144 8.11438C11.073 9.15578 11.073 10.8442 12.1144 11.8856L13.0572 10.9428C12.5365 10.4221 12.5365 9.57789 13.0572 9.05719L12.1144 8.11438ZM12.1144 11.8856C13.1558 12.927 14.8443 12.927 15.8857 11.8856L14.9429 10.9428C14.4222 11.4635 13.5779 11.4635 13.0572 10.9428L12.1144 11.8856ZM15.8857 11.8856C16.9271 10.8442 16.9271 9.15578 15.8857 8.11438L14.9429 9.05719C15.4636 9.57789 15.4636 10.4221 14.9429 10.9428L15.8857 11.8856Z" fill="#0F6D1A" mask="url(#path-7-inside-1)"/>
<path fill-rule="evenodd" clip-rule="evenodd" d="M13.9999 10.6668C14.3681 10.6668 14.6666 10.3684 14.6666 10.0002C14.6666 9.63197 14.3681 9.3335 13.9999 9.3335C13.6317 9.3335 13.3333 9.63197 13.3333 10.0002C13.3333 10.3684 13.6317 10.6668 13.9999 10.6668Z" fill="#042F60"/>
</g>
</svg>
