<svg width="28" height="20" viewBox="0 0 28 20" fill="none" xmlns="http://www.w3.org/2000/svg">
<rect x="0.25" y="0.25" width="27.5" height="19.5" rx="1.75" fill="white" stroke="#F5F5F5" stroke-width="0.5"/>
<mask id="mask0" style="mask-type:alpha" maskUnits="userSpaceOnUse" x="0" y="0" width="28" height="20">
<rect x="0.25" y="0.25" width="27.5" height="19.5" rx="1.75" fill="white" stroke="white" stroke-width="0.5"/>
</mask>
<g mask="url(#mask0)">
<path fill-rule="evenodd" clip-rule="evenodd" d="M0 6.66667H28V0H0V6.66667Z" fill="#E41D33"/>
<path fill-rule="evenodd" clip-rule="evenodd" d="M0 20.0002H28V13.3335H0V20.0002Z" fill="#262626"/>
<path d="M12.3686 9.4824L12.6529 10.0509L12.9588 9.49398L12.9588 9.49396L12.9589 9.49391L12.9589 9.49382L12.959 9.49366L12.9601 9.49162L12.9654 9.48219C12.9703 9.4736 12.9777 9.46052 12.9875 9.44361C13.0072 9.40975 13.0364 9.3607 13.0733 9.30155C13.1476 9.18264 13.2514 9.0259 13.3716 8.8708C13.4933 8.71374 13.6235 8.56902 13.749 8.46658C13.883 8.3572 13.9662 8.33333 14.0001 8.33333C14.0574 8.33333 14.1512 8.3644 14.2814 8.46862C14.4071 8.56914 14.5336 8.71141 14.6501 8.86667C14.7651 9.01999 14.8622 9.17512 14.9309 9.29296C14.9651 9.35153 14.9917 9.40005 15.0096 9.43345C15.0186 9.45013 15.0253 9.46298 15.0296 9.47137L15.0343 9.48049L15.0353 9.48238L15.0353 9.4824L15.0353 9.48251L15.0354 9.48258L15.0354 9.48263L15.3334 10.0787L15.6316 9.4824L16.2061 8.33333L16.6667 8.33333C16.8508 8.33333 17.0001 8.48257 17.0001 8.66667V10.7543C17.0001 11.0206 16.7034 11.1794 16.4818 11.0317L15.5183 10.3893L15.4343 10.3333H15.3334H14.6667H14.3334V10.6667V11.3333C14.3334 11.5174 14.1842 11.6667 14.0001 11.6667C13.816 11.6667 13.6667 11.5174 13.6667 11.3333V10.6667V10.3333H13.3334H12.6667H12.5658L12.4818 10.3893L11.5183 11.0317C11.2968 11.1794 11.0001 11.0206 11.0001 10.7543V8.66667C11.0001 8.48257 11.1493 8.33333 11.3334 8.33333L11.7941 8.33333L12.3686 9.4824Z" fill="#F4B32E" fill-opacity="0.25" stroke="#C6A846" stroke-width="0.666667"/>
</g>
</svg>
