<svg width="28" height="20" viewBox="0 0 28 20" fill="none" xmlns="http://www.w3.org/2000/svg">
<rect width="28" height="20" rx="2" fill="white"/>
<mask id="mask0" style="mask-type:alpha" maskUnits="userSpaceOnUse" x="0" y="0" width="28" height="20">
<rect width="28" height="20" rx="2" fill="white"/>
</mask>
<g mask="url(#mask0)">
<rect width="28" height="20" fill="#07319C"/>
<path fill-rule="evenodd" clip-rule="evenodd" d="M17.3333 10.0002C17.3333 8.90642 17.3333 7.61331 17.3333 6.66598C17.3333 5.9296 17.9302 5.3335 18.6666 5.3335H22.6666C23.403 5.3335 23.9999 5.9296 23.9999 6.66598C23.9999 7.61331 23.9999 8.90642 23.9999 10.0002C23.9999 13.3335 20.6666 14.6668 20.6666 14.6668C20.6666 14.6668 17.3333 13.3335 17.3333 10.0002Z" fill="#0072C4"/>
<mask id="mask1" style="mask-type:alpha" maskUnits="userSpaceOnUse" x="17" y="5" width="7" height="10">
<path fill-rule="evenodd" clip-rule="evenodd" d="M17.3333 10.0002C17.3333 8.90642 17.3333 7.61331 17.3333 6.66598C17.3333 5.9296 17.9302 5.3335 18.6666 5.3335H22.6666C23.403 5.3335 23.9999 5.9296 23.9999 6.66598C23.9999 7.61331 23.9999 8.90642 23.9999 10.0002C23.9999 13.3335 20.6666 14.6668 20.6666 14.6668C20.6666 14.6668 17.3333 13.3335 17.3333 10.0002Z" fill="white"/>
</mask>
<g mask="url(#mask1)">
<path fill-rule="evenodd" clip-rule="evenodd" d="M18.869 9.26787C18.1858 9.95793 19.5247 9.87041 19.5247 9.87041L20.4783 9.56508C20.4783 9.56508 20.9071 9.61695 21.1965 9.70419C21.3882 9.76198 21.9216 10.0002 21.9216 10.0002C21.9216 10.0002 23.0484 9.77524 22.6522 9.26787C22.256 8.76049 19.5522 8.5778 18.869 9.26787Z" fill="#005121"/>
<path fill-rule="evenodd" clip-rule="evenodd" d="M21.7098 8.55113C21.7372 8.54491 21.8012 8.5463 21.8251 8.57538C21.8626 8.62084 21.9393 8.60573 21.9768 8.64954C22.0141 8.69348 22.0575 8.73399 22.0575 8.79646C22.0575 8.85894 22.0503 9.01386 22.0516 9.04789C22.0535 9.10034 22.0626 9.10846 22.1165 9.10707C22.1815 9.10542 22.2713 9.10034 22.2741 8.98389C22.276 8.90275 22.1953 8.85208 22.1718 8.56345C22.2072 8.5331 22.2387 8.50605 22.2269 8.46567C22.215 8.42516 22.2938 8.40484 22.286 8.34402C22.278 8.28332 22.3646 8.24611 22.3292 8.17869C22.2938 8.11113 22.3725 8.10783 22.3411 8.05373C22.3095 7.99976 22.3922 7.9524 22.3568 7.90529C22.3214 7.85792 22.404 7.81411 22.3608 7.75672C22.3174 7.69932 22.3843 7.66554 22.3411 7.62161C22.3686 7.5778 22.3449 7.45284 22.2583 7.38199C22.1718 7.311 22.0497 7.27392 21.9787 7.24688C21.8467 7.19659 21.6006 7.21983 21.4273 7.24015C21.254 7.26034 20.931 7.28065 20.8325 7.26719C20.7341 7.25373 20.5018 7.24015 20.3186 7.27049C20.2559 7.28091 20.1846 7.26211 20.1473 7.22669C20.1174 7.19837 20.1 7.20142 20.0725 7.20307C20.0449 7.20472 20.0291 7.19621 20.0153 7.16243C19.991 7.103 19.9366 7.14389 19.911 7.06961C19.8938 7.01996 19.8045 7.06288 19.7771 7.02072C19.7494 6.97856 19.716 6.97348 19.6411 6.97856C19.6372 6.95316 19.5959 6.93462 19.5584 6.94135C19.5643 6.89919 19.523 6.86542 19.4541 6.86707C19.462 6.81475 19.3655 6.77424 19.3162 6.80637C19.2848 6.76751 19.2217 6.77589 19.206 6.80637C19.1725 6.76751 19.0661 6.77932 19.0405 6.82148C18.9953 6.79621 18.9073 6.8583 18.9146 6.95659C18.9165 6.98364 18.9183 7.0117 18.8731 7.02072C18.7885 7.03761 18.7393 7.13208 18.6663 7.14554C18.5935 7.15913 18.5206 7.18275 18.5069 7.22326C18.4931 7.26376 18.5187 7.30605 18.4912 7.32624C18.4636 7.34656 18.5088 7.3651 18.5226 7.37513C18.5363 7.38529 18.558 7.40218 18.562 7.4258C18.5676 7.45932 18.6229 7.46935 18.6802 7.43253C18.7038 7.41742 18.7451 7.463 18.812 7.43088C18.879 7.39888 18.9741 7.41576 18.9578 7.46808C18.95 7.49335 18.9676 7.5204 18.9894 7.54567C19.011 7.57094 19.0435 7.64726 19.0248 7.69081C18.9972 7.75494 19.0523 7.79049 19.0386 7.84776C19.0248 7.90529 19.0464 7.95761 19.0169 8.03519C18.9873 8.11278 18.9869 8.20992 19.0307 8.23773C19.0918 8.27659 19.0549 8.35354 19.1075 8.3863C19.1507 8.41322 19.1252 8.47913 19.206 8.49932C19.2867 8.51964 19.2395 8.57361 19.324 8.58542C19.4088 8.59722 19.4383 8.65805 19.5269 8.64446C19.5922 8.63456 19.6266 8.65043 19.6646 8.66542C19.6725 8.71951 19.655 8.91799 19.651 8.96865C19.6475 9.01348 19.6235 9.08497 19.6235 9.12903C19.6235 9.15595 19.6786 9.16269 19.7417 9.16269C19.8045 9.16269 19.8322 9.13742 19.8163 9.06656C19.8006 8.99557 19.7968 8.82275 19.8008 8.71469C19.8555 8.74097 19.9075 8.7778 19.9051 8.81843C19.9011 8.88421 19.9021 9.0023 19.8912 9.06313C19.8835 9.10707 19.8952 9.17627 19.8992 9.22186C19.9032 9.23862 20.0094 9.23697 20.0528 9.22186C20.096 9.20662 20.096 9.16611 20.092 8.98211C20.0901 8.89107 19.9935 8.79799 20.1158 8.75253C20.1749 8.73056 20.2575 8.67989 20.2891 8.63278C20.3205 8.58542 20.3895 8.60396 20.4387 8.6277C20.4879 8.65132 20.5667 8.68738 20.616 8.67151C20.679 8.65132 20.746 8.70186 20.8011 8.67151C20.8562 8.64116 20.9272 8.69348 20.9723 8.6564C21.0177 8.61919 21.0965 8.65462 21.13 8.61919C21.1635 8.58376 21.3012 8.63951 21.3506 8.59227C21.3998 8.54491 21.4667 8.60573 21.512 8.5703C21.5239 8.56091 21.538 8.55888 21.5534 8.56002C21.5516 8.63989 21.5366 8.767 21.5337 8.80662C21.5301 8.85157 21.5061 8.92294 21.5061 8.96688C21.5061 8.99392 21.5612 9.00065 21.6242 9.00065C21.6873 9.00065 21.7149 8.97538 21.6992 8.90453C21.6833 8.83367 21.706 8.65932 21.7098 8.55113Z" fill="#A3A3A3"/>
<path fill-rule="evenodd" clip-rule="evenodd" d="M18.5232 7.32012C18.5496 7.30094 18.5252 7.26107 18.5384 7.22272C18.5515 7.1845 18.6213 7.16215 18.6911 7.14945C18.7609 7.13662 18.808 7.04735 18.8892 7.03135C18.9324 7.02285 18.9307 6.99631 18.9287 6.97078C18.9219 6.87796 19.0061 6.81929 19.0495 6.84329C19.0739 6.80329 19.1758 6.79212 19.2078 6.82881C19.2229 6.80012 19.2832 6.79212 19.3135 6.82881C19.3606 6.79859 19.453 6.83681 19.4455 6.88621C19.5115 6.88469 19.5511 6.91656 19.5455 6.95643C19.5813 6.95008 19.6209 6.96761 19.6247 6.99148C19.6187 7.03072 19.7083 7.04075 19.6668 7.06615C19.6305 7.08837 19.596 7.07961 19.5547 7.04926C19.5133 7.01878 19.3754 7.04583 19.3557 7.06107C19.336 7.07631 19.3144 7.08304 19.2985 7.07123C19.2828 7.05942 19.2455 7.04075 19.2277 7.04253C19.2099 7.04418 19.1726 7.04418 19.1508 7.00875C19.1292 6.97332 19.0741 6.96824 19.0643 6.9817C19.0545 6.99516 19.0859 7.04418 19.1175 7.06272C19.1489 7.08139 19.1332 7.11681 19.1707 7.137C19.1951 7.15034 19.1726 7.19605 19.1588 7.2231C19.145 7.25015 19.0918 7.24164 19.0878 7.22145C19.084 7.20126 19.0701 7.18767 19.0387 7.21802C19.0071 7.2485 18.9403 7.23999 18.9244 7.23161C18.9087 7.2231 18.8653 7.20799 18.8358 7.21637C18.8062 7.22488 18.8496 7.23834 18.8536 7.25015C18.8575 7.26196 18.8062 7.26704 18.7767 7.26704C18.7472 7.26704 18.7373 7.2838 18.7551 7.28723C18.7729 7.29066 18.8416 7.29408 18.8693 7.2805C18.8969 7.26704 18.9815 7.2805 18.9895 7.30589C18.9973 7.33116 18.9403 7.34132 18.9067 7.33789C18.8572 7.33294 18.7846 7.35986 18.7492 7.36824C18.7138 7.37675 18.6192 7.35478 18.5818 7.36494C18.5444 7.37497 18.5075 7.33523 18.5232 7.32012Z" fill="#A3A3A3"/>
<path fill-rule="evenodd" clip-rule="evenodd" d="M19.1567 7.52693C19.1213 7.54039 19.1331 7.5809 19.1647 7.59778C19.1962 7.61467 19.267 7.6214 19.3124 7.61302C19.3576 7.60451 19.3675 7.6181 19.338 7.63499C19.3084 7.65175 19.3832 7.65518 19.3773 7.68223C19.3715 7.70915 19.4048 7.70407 19.4364 7.70242C19.4679 7.70077 19.5093 7.68045 19.5447 7.66191C19.5801 7.64337 19.6057 7.65683 19.5722 7.68896C19.5389 7.72096 19.4266 7.76159 19.338 7.75651C19.2493 7.75144 19.202 7.77163 19.2217 7.80032C19.2414 7.82902 19.3359 7.8341 19.3851 7.81886C19.4345 7.80375 19.4266 7.8308 19.3891 7.84921C19.3516 7.86788 19.2985 7.86953 19.2533 7.86788C19.2079 7.86623 19.1685 7.90509 19.2276 7.92693C19.2868 7.9489 19.3656 7.93544 19.395 7.95397C19.4247 7.97251 19.5152 7.94382 19.5171 7.97594C19.519 8.00794 19.4915 8.01975 19.4383 8.01645C19.3851 8.01302 19.4008 8.03702 19.4404 8.0501C19.4758 8.06204 19.5389 8.06204 19.5722 8.05861C19.6057 8.05531 19.5959 8.08896 19.5625 8.10077C19.529 8.11258 19.4207 8.12947 19.3675 8.12782C19.3143 8.12617 19.3398 8.15994 19.4088 8.15994C19.6195 8.15994 19.6905 8.06026 19.7436 7.99105C19.7697 7.95715 19.8204 7.93874 19.8322 7.95905C19.8441 7.97924 19.846 7.98432 19.8225 8.00121C19.7988 8.0181 19.8045 8.02826 19.8479 8.02991C19.8912 8.03156 19.9543 8.01975 19.9918 8.00972C20.0291 7.99956 20.1393 8.06344 20.0488 8.06534C19.8893 8.06877 19.6924 8.12617 19.6275 8.14978C19.5625 8.1734 19.454 8.21785 19.3872 8.21556C19.338 8.21391 19.3182 8.23245 19.338 8.25442C19.3576 8.27639 19.4207 8.27639 19.4561 8.26623C19.4915 8.25607 19.4993 8.26623 19.4758 8.28642C19.4522 8.30674 19.3931 8.31512 19.3516 8.32197C19.3105 8.3287 19.29 8.35512 19.3222 8.36578C19.3832 8.3861 19.3281 8.40464 19.3715 8.4148C19.4148 8.42496 19.3675 8.45696 19.4148 8.46712C19.462 8.47728 19.4896 8.4722 19.525 8.44858C19.5605 8.42496 19.5801 8.41137 19.6176 8.4148C19.655 8.41823 19.6807 8.40121 19.7023 8.37594C19.7239 8.35067 19.7968 8.30509 19.8204 8.32705C19.8441 8.34902 19.8933 8.30839 19.9032 8.33036C19.913 8.35232 19.9543 8.33886 19.9642 8.36921C19.975 8.40299 20.0213 8.40972 20.0528 8.39791C20.0842 8.3861 20.1099 8.3574 20.1099 8.31512C20.1099 8.27296 20.1217 8.25607 20.1336 8.30166C20.1453 8.34724 20.1887 8.3607 20.2103 8.33886C20.2319 8.3169 20.2398 8.24096 20.2241 8.20553C20.2084 8.16997 20.2063 8.12439 20.2222 8.11601C20.2379 8.10763 20.2753 8.18521 20.291 8.21899C20.3069 8.25277 20.3481 8.24261 20.3502 8.20883C20.3521 8.17505 20.3896 8.15817 20.4171 8.18356C20.4447 8.20883 20.429 8.29328 20.4368 8.33378C20.4447 8.37429 20.5214 8.32363 20.5294 8.33709C20.5373 8.35067 20.5668 8.35397 20.5786 8.32528C20.5905 8.29658 20.618 8.27131 20.6337 8.2882C20.6496 8.30509 20.6731 8.33378 20.6829 8.36578C20.6928 8.39791 20.7282 8.4148 20.7499 8.38102C20.7715 8.34724 20.7873 8.28147 20.7795 8.23575C20.7715 8.19029 20.7854 8.16159 20.805 8.18521C20.8247 8.20883 20.8228 8.27296 20.8247 8.32528C20.8268 8.37759 20.8916 8.37264 20.8916 8.29493C20.8916 8.2595 20.9113 8.25277 20.9173 8.27296C20.9232 8.29328 20.9232 8.32705 20.9291 8.34217C20.9436 8.37963 20.9942 8.35905 20.9999 8.33378C21.0059 8.30839 20.9961 8.21721 20.9842 8.17683C20.9724 8.1362 20.9961 8.10763 21.0158 8.12947C21.0355 8.15144 21.0393 8.20883 21.0433 8.27296C21.0472 8.33709 21.0885 8.34051 21.1103 8.32197C21.1319 8.30331 21.1319 8.24934 21.1222 8.21048C21.1122 8.17175 21.1438 8.17175 21.1576 8.19537C21.1713 8.21899 21.195 8.20375 21.191 8.18521C21.1872 8.16667 21.2068 8.14978 21.2265 8.17505C21.2462 8.20045 21.2402 8.25785 21.2305 8.30331C21.2205 8.34902 21.2796 8.34382 21.3072 8.30509C21.3348 8.26623 21.321 8.15994 21.2974 8.12617C21.2737 8.09239 21.2758 8.04845 21.2894 8.00972C21.3033 7.97086 21.329 7.96909 21.3309 7.9861C21.3328 8.00286 21.3447 8.03156 21.3663 8.05353C21.3879 8.0755 21.3998 8.07893 21.4036 8.04502C21.4076 8.01137 21.4273 8.01975 21.4352 8.04502C21.4432 8.07042 21.4568 8.09061 21.4765 8.06877C21.4962 8.0468 21.5219 8.06369 21.5062 8.09747C21.4903 8.13124 21.4903 8.16159 21.5022 8.19537C21.514 8.22915 21.5553 8.22407 21.5593 8.18521C21.5675 8.10445 21.579 8.15817 21.5888 8.19359C21.5986 8.22915 21.6282 8.22737 21.6342 8.20718C21.6401 8.18686 21.646 8.18191 21.646 8.20375C21.646 8.22572 21.6558 8.24426 21.6814 8.24426C21.707 8.24426 21.7011 8.20045 21.7128 8.1734C21.7247 8.14636 21.7463 8.18356 21.7759 8.24591C21.8054 8.30839 21.827 8.24934 21.8961 8.39118C21.9242 8.44896 21.965 8.39956 21.963 8.37937C21.961 8.35905 21.9669 8.34559 22.0004 8.34559C22.0339 8.34559 22.0614 8.33886 22.0497 8.3169C22.0379 8.29493 22.0457 8.25442 22.0438 8.20883C22.0419 8.16324 22.0476 8.13797 22.0536 8.16324C22.0595 8.18851 22.0792 8.22407 22.1106 8.24261C22.1422 8.26115 22.1638 8.21048 22.1382 8.17848C22.1127 8.14636 22.0773 8.07042 22.0792 8.00629C22.0807 7.95905 22.1028 7.97417 22.1028 8.00794C22.1028 8.04172 22.1225 8.10255 22.1521 8.11601C22.1816 8.12947 22.1934 8.06699 22.1796 8.03499C22.1659 8.00286 22.158 7.95905 22.1875 7.95055C22.217 7.94217 22.1796 7.90674 22.154 7.88134C22.1284 7.85607 22.1127 7.8308 22.158 7.83245C22.2032 7.8341 22.1659 7.8054 22.1441 7.78686C22.1225 7.76832 22.0851 7.73112 22.1441 7.7362C22.2032 7.74128 22.1836 7.71093 22.1599 7.69404C22.1362 7.67715 22.1225 7.64502 22.1638 7.6468C22.2053 7.64845 22.2308 7.62813 22.2269 7.61302C22.2118 7.55448 22.1127 7.48642 22.0516 7.4341C21.9906 7.38178 21.8921 7.32947 21.8389 7.32096C21.7857 7.31245 21.7838 7.34636 21.7976 7.36655C21.8113 7.38674 21.8389 7.40032 21.8429 7.38001C21.8468 7.35982 21.8881 7.38178 21.9078 7.4087C21.9275 7.43575 21.9945 7.46953 22.0359 7.49988C22.0773 7.53023 21.9807 7.51512 21.9334 7.47461C21.9065 7.45137 21.9097 7.47956 21.9453 7.51169C21.9807 7.54382 21.9353 7.55728 21.898 7.53023C21.8605 7.50331 21.7641 7.42737 21.703 7.37836C21.642 7.32947 21.6321 7.34128 21.6302 7.37328C21.6282 7.4054 21.6499 7.42737 21.6893 7.45429C21.7287 7.48134 21.7779 7.5235 21.8153 7.5522C21.8527 7.5809 21.8213 7.59944 21.7976 7.57912C21.7739 7.55893 21.6933 7.50331 21.646 7.46445C21.5986 7.42559 21.5553 7.40705 21.5259 7.41213C21.4962 7.41721 21.4983 7.44591 21.5337 7.47626C21.5691 7.50661 21.6125 7.56401 21.6125 7.59778C21.6125 7.63156 21.581 7.65518 21.5651 7.59448C21.5494 7.53366 21.4746 7.4628 21.4195 7.4087C21.3644 7.35474 21.3091 7.34458 21.2678 7.34801C21.2265 7.35131 21.2284 7.39182 21.2284 7.42394C21.2284 7.45594 21.2008 7.4374 21.1989 7.41378C21.197 7.39017 21.1654 7.36997 21.1476 7.37163C21.13 7.37328 21.1359 7.42229 21.13 7.44426C21.1241 7.4661 21.0965 7.48642 21.0965 7.43575C21.0965 7.38509 21.0315 7.35982 21.0039 7.35804C20.9764 7.35639 20.9508 7.36655 20.9645 7.38851C20.9783 7.41036 20.9724 7.46953 20.9626 7.50331C20.9527 7.53696 20.9232 7.47791 20.9173 7.41544C20.9113 7.35309 20.8189 7.30915 20.7539 7.32769C20.6888 7.34636 20.7382 7.38674 20.7263 7.42559C20.7145 7.46445 20.6967 7.42902 20.6908 7.38851C20.685 7.34801 20.6534 7.32261 20.6102 7.33277C20.5668 7.34293 20.5373 7.36312 20.5392 7.39017C20.5411 7.41721 20.5411 7.44083 20.5313 7.48464C20.5214 7.52858 20.5038 7.50661 20.5057 7.47791C20.5078 7.44921 20.4979 7.40197 20.4879 7.37493C20.4782 7.34801 20.4623 7.37328 20.4663 7.40705C20.4703 7.44083 20.4604 7.51842 20.4447 7.56578C20.429 7.61302 20.4053 7.61467 20.4171 7.55055C20.429 7.48642 20.3993 7.39182 20.3699 7.34801C20.3487 7.31664 20.301 7.30585 20.301 7.34966C20.301 7.39359 20.3148 7.42559 20.3502 7.45772C20.3856 7.48972 20.358 7.56909 20.3226 7.61137C20.287 7.65353 20.2891 7.5927 20.301 7.54712C20.3127 7.50153 20.2478 7.48642 20.2222 7.47791C20.1965 7.46953 20.2497 7.42394 20.2616 7.36312C20.2673 7.33315 20.2595 7.31423 20.2359 7.31245C20.2122 7.3108 20.1493 7.3682 20.1217 7.41036C20.1296 7.36655 20.1217 7.32769 20.098 7.32769C20.0745 7.32769 20.0488 7.36997 20.0312 7.40032C20.0134 7.43067 19.9956 7.41378 20.0134 7.38178C20.0312 7.34966 20.0586 7.26356 20.0232 7.24502C19.9878 7.22648 19.9562 7.30242 19.9189 7.28883C19.8977 7.28121 19.9268 7.23321 19.9386 7.21124C19.9503 7.18928 19.9268 7.17239 19.8736 7.2129C19.8204 7.25353 19.7968 7.31931 19.7829 7.35982C19.7693 7.40032 19.6748 7.4661 19.6235 7.50153C19.5722 7.53696 19.5506 7.5235 19.5762 7.50826C19.6019 7.49315 19.653 7.44591 19.6786 7.42737C19.7042 7.4087 19.6924 7.39778 19.6432 7.42978C19.594 7.46191 19.5044 7.5202 19.4127 7.54039C19.3589 7.55232 19.3516 7.54217 19.4048 7.52693C19.458 7.51169 19.5801 7.43905 19.6097 7.4054C19.6282 7.3842 19.5801 7.40197 19.5565 7.40705C19.533 7.41213 19.5133 7.4054 19.5605 7.38851C19.6076 7.37163 19.7574 7.23829 19.789 7.18928C19.8204 7.14039 19.7928 7.12172 19.7731 7.1235C19.7534 7.12515 19.7259 7.13696 19.7318 7.11677C19.7377 7.09645 19.7239 7.0694 19.6983 7.07791C19.6727 7.08629 19.6748 7.13531 19.6648 7.16223C19.655 7.18928 19.5998 7.22483 19.5644 7.22483C19.529 7.22483 19.4798 7.23156 19.4423 7.25683C19.4048 7.2821 19.3872 7.25848 19.4048 7.23829C19.4226 7.21797 19.462 7.2129 19.5014 7.21124C19.5408 7.20959 19.5841 7.20451 19.6176 7.17239C19.651 7.14039 19.653 7.11499 19.6275 7.11334C19.6019 7.11169 19.5585 7.08299 19.5447 7.07118C19.4748 7.01112 19.3466 7.0948 19.2965 7.14369C19.269 7.17074 19.1745 7.24845 19.145 7.26864C19.1153 7.28883 19.1272 7.31753 19.1764 7.2788C19.2257 7.23994 19.2414 7.26699 19.1962 7.29569C19.1508 7.32439 19.1174 7.36655 19.1331 7.38178C19.1488 7.3969 19.2099 7.37836 19.2433 7.35982C19.2768 7.34128 19.2927 7.38674 19.2099 7.40197C19.1543 7.41226 19.1349 7.43182 19.1785 7.4341C19.2119 7.43575 19.263 7.42229 19.3105 7.39867C19.3576 7.37493 19.395 7.38851 19.3556 7.41213C19.3162 7.43575 19.2296 7.46788 19.1863 7.46788C19.15 7.46788 19.1922 7.51347 19.1567 7.52693Z" fill="white"/>
<path fill-rule="evenodd" clip-rule="evenodd" d="M19.3851 7.14968C19.4325 7.10035 19.4739 7.07875 19.5171 7.11422C19.5564 7.14635 19.5605 7.16035 19.5112 7.14968C19.462 7.13902 19.4285 7.14968 19.3991 7.18155C19.3694 7.21355 19.3359 7.20102 19.3851 7.14968Z" fill="#A3A3A3"/>
<path fill-rule="evenodd" clip-rule="evenodd" d="M18.6054 7.2749C18.6408 7.23943 18.6979 7.23943 18.7235 7.2005C18.7491 7.16143 18.7767 7.1757 18.7451 7.2129C18.7137 7.2501 18.6527 7.2573 18.6271 7.28383C18.6014 7.31037 18.5877 7.29263 18.6054 7.2749Z" fill="#A3A3A3"/>
<path fill-rule="evenodd" clip-rule="evenodd" d="M18.8259 7.13938C18.8473 7.13645 18.8889 7.11098 18.9145 7.08085C18.9402 7.05072 18.9953 7.04005 19.0286 7.07552C19.0621 7.11098 19.0799 7.12338 19.0976 7.13058C19.1153 7.13765 19.1153 7.16072 19.0877 7.16765C19.0602 7.17485 19.0228 7.18018 19.0031 7.17125C18.9834 7.16245 18.9538 7.15538 18.9302 7.16072C18.9065 7.16592 18.8967 7.15538 18.9164 7.14645C18.9362 7.13765 18.9597 7.11098 18.9716 7.10032C18.9834 7.08978 19.0148 7.09858 18.9972 7.10925C18.9794 7.11992 18.9873 7.14285 19.005 7.15178C19.0228 7.16072 19.0582 7.16072 19.0739 7.14472C19.0504 7.12165 19.011 7.09152 18.9953 7.08272C18.9794 7.07378 18.9656 7.07018 18.9459 7.09152C18.9262 7.11285 18.879 7.16418 18.8338 7.16245C18.7884 7.16072 18.8003 7.14285 18.8259 7.13938Z" fill="#A3A3A3"/>
<path fill-rule="evenodd" clip-rule="evenodd" d="M20.0704 7.45781C20.053 7.48221 20.037 7.51368 20.035 7.53848C20.0331 7.56328 20.0558 7.58021 20.0586 7.54915C20.0615 7.51808 20.0645 7.49955 20.0891 7.47648C20.1138 7.45341 20.0901 7.43035 20.0704 7.45781Z" fill="#A3A3A3"/>
<path fill-rule="evenodd" clip-rule="evenodd" d="M19.8292 7.45722C19.8496 7.44896 19.8843 7.42976 19.901 7.41202C19.9178 7.39442 19.9286 7.40589 19.9118 7.42536C19.8951 7.44482 19.8567 7.46789 19.839 7.47322C19.8213 7.47856 19.8076 7.46616 19.8292 7.45722Z" fill="#A3A3A3"/>
<path fill-rule="evenodd" clip-rule="evenodd" d="M19.8598 7.55563C19.8315 7.58966 19.7199 7.67055 19.6865 7.68566C19.653 7.7009 19.6648 7.72286 19.7023 7.71105C19.6748 7.7329 19.6136 7.76845 19.5743 7.77848C19.5349 7.78864 19.5269 7.81899 19.586 7.80045C19.6451 7.78191 19.7278 7.7329 19.7494 7.71105C19.7712 7.68909 19.7437 7.67893 19.7771 7.65531C19.8106 7.63169 19.8725 7.58851 19.8814 7.57086C19.8952 7.54394 19.8795 7.53201 19.8598 7.55563Z" fill="#A3A3A3"/>
<path fill-rule="evenodd" clip-rule="evenodd" d="M19.7377 7.831C19.78 7.81043 19.8588 7.73767 19.8814 7.69589C19.8952 7.67062 19.9228 7.67392 19.9011 7.71278C19.8795 7.75164 19.7988 7.82084 19.7712 7.83938C19.7437 7.85792 19.6924 7.85284 19.7377 7.831Z" fill="#A3A3A3"/>
<path fill-rule="evenodd" clip-rule="evenodd" d="M20.6337 7.43081C20.6221 7.45456 20.6199 7.51018 20.6239 7.5371C20.6278 7.56415 20.6515 7.58447 20.6475 7.54396C20.6436 7.50345 20.6436 7.46294 20.6572 7.45113C20.6712 7.4392 20.6534 7.39031 20.6337 7.43081Z" fill="#A3A3A3"/>
<path fill-rule="evenodd" clip-rule="evenodd" d="M20.8739 7.53037C20.8939 7.54878 20.9034 7.63513 20.9015 7.66713C20.8996 7.69925 20.933 7.69925 20.931 7.65367C20.929 7.60808 20.925 7.55068 20.9074 7.52033C20.8896 7.48986 20.8464 7.5051 20.8739 7.53037Z" fill="#A3A3A3"/>
<path fill-rule="evenodd" clip-rule="evenodd" d="M21.0847 7.58631C21.0968 7.6084 21.1122 7.65044 21.1122 7.68079C21.1122 7.71126 21.1379 7.69767 21.1398 7.66225C21.1417 7.62682 21.1359 7.59647 21.1222 7.57285C21.1084 7.54923 21.0669 7.55418 21.0847 7.58631Z" fill="#A3A3A3"/>
<path fill-rule="evenodd" clip-rule="evenodd" d="M21.2146 7.55994C21.2038 7.53274 21.187 7.50847 21.175 7.51207C21.1633 7.51567 21.1712 7.54047 21.187 7.56701C21.2026 7.59367 21.2263 7.59007 21.2146 7.55994Z" fill="#A3A3A3"/>
<path fill-rule="evenodd" clip-rule="evenodd" d="M20.3915 7.74817C20.3856 7.8189 20.3481 7.8815 20.3029 7.90347C20.2576 7.92544 20.2654 7.96087 20.3205 7.92544C20.3758 7.89001 20.4171 7.82919 20.429 7.77522C20.4407 7.72112 20.3955 7.70093 20.3915 7.74817Z" fill="#A3A3A3"/>
<path fill-rule="evenodd" clip-rule="evenodd" d="M20.2929 7.71603C20.2694 7.73965 20.2556 7.79032 20.2556 7.82905C20.2556 7.86791 20.2713 7.83921 20.2753 7.81724C20.2793 7.79527 20.287 7.76492 20.3069 7.75476C20.3264 7.74461 20.3167 7.69242 20.2929 7.71603Z" fill="#A3A3A3"/>
<path fill-rule="evenodd" clip-rule="evenodd" d="M21.9984 7.76489C22.0192 7.79905 22.0497 7.85441 22.0595 7.88641C22.0694 7.91854 22.0457 7.92692 22.0378 7.89822C22.0298 7.86953 21.9925 7.8054 21.9787 7.78343C21.9649 7.76159 21.9747 7.72603 21.9984 7.76489Z" fill="#A3A3A3"/>
<path d="M16 9.33333C16 9.33333 18.2679 10.0071 18.6507 10.0071C18.7583 10.0071 20.2273 9.67023 20.6677 9.67023C20.8324 9.67023 22.353 9.90101 22.75 10.0071C23.1471 10.1132 25.3354 9.33333 25.3354 9.33333" stroke="white" stroke-width="0.666667" stroke-linecap="round" stroke-linejoin="round"/>
<path d="M16 10.6668C16 10.6668 18.2679 11.3406 18.6507 11.3406C18.7583 11.3406 20.2273 11.0037 20.6677 11.0037C20.8324 11.0037 22.353 11.2345 22.75 11.3406C23.1471 11.4467 25.3354 10.6668 25.3354 10.6668" stroke="white" stroke-width="0.666667" stroke-linecap="round" stroke-linejoin="round"/>
<path d="M16 13.3333C16 13.3333 18.2679 14.0071 18.6507 14.0071C18.7583 14.0071 19.634 13.4619 20.6677 13.4619C21.7014 13.4619 22.353 13.901 22.75 14.0071C23.1471 14.1132 25.3354 13.3333 25.3354 13.3333L32.5128 14.4813" stroke="white" stroke-width="1.33333" stroke-linecap="round" stroke-linejoin="round"/>
</g>
<path d="M17.6666 10.0002V9.94875V9.89706V9.8451V9.79288V9.74043V9.68774V9.63484V9.58173V9.52843V9.47495V9.4213V9.3675V9.31356V9.28653V9.27977V9.27301V9.25948V9.20529V9.15099V9.0966V9.04214V8.9876V8.93301V8.87837V8.82371V8.76903V8.74169V8.73485V8.72801V8.72118V8.71434V8.70751V8.70067V8.69384V8.687V8.68017V8.67333V8.6665V8.65966V8.65283V8.646V8.63916V8.63233V8.6255V8.61867V8.61184V8.60501V8.59818V8.59135V8.58452V8.57769V8.57086V8.56403V8.5572V8.55038V8.54355V8.53673V8.5299V8.52308V8.51626V8.50944V8.50262V8.4958V8.48898V8.48216V8.47534V8.46853V8.46171V8.4549V8.44808V8.44127V8.43446V8.42765V8.42084V8.41404V8.40723V8.40042V8.39362V8.38682V8.38002V8.37322V8.36642V8.35962V8.35282V8.34603V8.33924V8.33245V8.32565V8.31887V8.31208V8.30529V8.29851V8.29173V8.28495V8.27817V8.27139V8.26461V8.25784V8.25107V8.2443V8.23753V8.23076V8.224V8.21723V8.21047V8.20371V8.19696V8.1902V8.18345V8.1767V8.16995V8.1632V8.15645V8.14971V8.14297V8.13623V8.12949V8.12276V8.11603V8.1093V8.10257V8.09584V8.08912V8.0824V8.07568V8.06897V8.06225V8.05554V8.04883V8.04213V8.03543V8.02872V8.02203V8.01533V8.00864V8.00195V7.99526V7.98857V7.98189V7.97521V7.96854V7.96186V7.95519V7.94852V7.94186V7.93519V7.92853V7.92188V7.91522V7.90857V7.90193V7.89528V7.88864V7.87536V7.84885V7.79599V7.74335V7.69094V7.63877V7.58686V7.53522V7.48386V7.43279V7.38204V7.3316V7.28149V7.23173V7.18232V7.13329V7.08463V7.03637V6.94109V6.84752V6.75579V6.66598C17.6666 6.11397 18.114 5.66683 18.6666 5.66683H22.6666C23.2191 5.66683 23.6666 6.11397 23.6666 6.66598V6.67154V6.6771V6.68267V6.68825V6.69383V6.69943V6.70503V6.71064V6.71626V6.72188V6.72751V6.73315V6.7388V6.74446V6.75012V6.75579V6.76147V6.76715V6.77285V6.77855V6.78426V6.78997V6.79569V6.80142V6.80716V6.81291V6.81866V6.82442V6.83018V6.83596V6.84174V6.84753V6.85332V6.85912V6.86493V6.87075V6.87657V6.8824V6.88824V6.89408V6.89994V6.90579V6.91166V6.91753V6.92341V6.92929V6.93519V6.94109V6.94699V6.9529V6.95882V6.96475V6.97068V6.97662V6.98257V6.98852V6.99448V7.00045V7.00642V7.0124V7.01838V7.02437V7.03037V7.03637V7.04238V7.0484V7.05442V7.06045V7.06649V7.07253V7.07858V7.08463V7.09069V7.09676V7.10283V7.10891V7.115V7.12109V7.12719V7.13329V7.1394V7.14551V7.15163V7.15776V7.16389V7.17003V7.17617V7.18232V7.18848V7.19464V7.20081V7.20698V7.21316V7.21934V7.22553V7.23173V7.23793V7.24414V7.25035V7.25657V7.26279V7.26902V7.27525V7.28149V7.28774V7.29399V7.30024V7.3065V7.31277V7.31904V7.32532V7.3316V7.33789V7.34418V7.35047V7.35678V7.36308V7.3694V7.37571V7.38204V7.38836V7.3947V7.40103V7.40738V7.41372V7.42008V7.42643V7.43279V7.43916V7.44553V7.45191V7.45829V7.46467V7.47106V7.47746V7.48386V7.49026V7.49667V7.50308V7.5095V7.51592V7.52235V7.52878V7.53522V7.54166V7.5481V7.55455V7.561V7.56746V7.57392V7.58039V7.58686V7.59333V7.59981V7.60629V7.61278V7.61927V7.62577V7.63227V7.63877V7.64528V7.65179V7.6583V7.66482V7.67134V7.67787V7.6844V7.69094V7.69747V7.70402V7.71056V7.71711V7.72367V7.73022V7.73678V7.74335V7.74992V7.75649V7.76306V7.76964V7.77622V7.78281V7.7894V7.79599V7.80259V7.80919V7.81579V7.8224V7.82901V7.83562V7.84224V7.84886V7.85548V7.8621V7.86873V7.87537V7.882V7.88864V7.89528V7.90193V7.90857V7.91522V7.92188V7.92853V7.93519V7.94186V7.94852V7.95519V7.96186V7.96854V7.97521V7.98189V7.98857V7.99526V8.00195V8.00864V8.01533V8.02203V8.02872V8.03543V8.04213V8.04884V8.05554V8.06225V8.06897V8.07568V8.0824V8.08912V8.09585V8.10257V8.1093V8.11603V8.12276V8.12949V8.13623V8.14297V8.14971V8.15645V8.1632V8.16995V8.1767V8.18345V8.1902V8.19696V8.20371V8.21047V8.21723V8.224V8.23076V8.23753V8.2443V8.25107V8.25784V8.26461V8.27139V8.27817V8.28495V8.29173V8.29851V8.30529V8.31208V8.31887V8.32566V8.33245V8.33924V8.34603V8.35282V8.35962V8.36642V8.37322V8.38002V8.38682V8.39362V8.40042V8.40723V8.41404V8.42084V8.42765V8.43446V8.44127V8.44808V8.4549V8.46171V8.46853V8.47534V8.48216V8.48898V8.4958V8.50262V8.50944V8.51626V8.52308V8.52991V8.53673V8.54355V8.55038V8.55721V8.56403V8.57086V8.57769V8.58452V8.59135V8.59818V8.60501V8.61184V8.61867V8.6255V8.63233V8.63916V8.646V8.65283V8.65966V8.6665V8.67333V8.68017V8.687V8.69384V8.70067V8.70751V8.71434V8.72118V8.72802V8.73485V8.74169V8.74852V8.75536V8.76219V8.76903V8.77587V8.7827V8.78954V8.79637V8.80321V8.81004V8.81688V8.82371V8.83055V8.83738V8.84421V8.85105V8.85788V8.86471V8.87154V8.87838V8.88521V8.89204V8.89887V8.9057V8.91253V8.91935V8.92618V8.93301V8.93984V8.94666V8.95349V8.96031V8.96713V8.97396V8.98078V8.9876V8.99442V9.00124V9.00806V9.01488V9.02169V9.02851V9.03532V9.04214V9.04895V9.05576V9.06257V9.06938V9.07619V9.08299V9.0898V9.09661V9.10341V9.11021V9.11701V9.12381V9.13061V9.1374V9.1442V9.15099V9.15779V9.16458V9.17137V9.17815V9.18494V9.19173V9.19851V9.20529V9.21207V9.21885V9.22563V9.2324V9.23917V9.24594V9.25271V9.25948V9.26625V9.27301V9.27977V9.28653V9.29329V9.30005V9.3068V9.31356V9.32031V9.32705V9.3338V9.34055V9.34729V9.35403V9.36076V9.3675V9.37423V9.38096V9.38769V9.39442V9.40114V9.40787V9.41459V9.4213V9.42802V9.43473V9.44144V9.44815V9.45485V9.46155V9.46825V9.47495V9.48164V9.48834V9.49502V9.50171V9.50839V9.51508V9.52175V9.52843V9.5351V9.54177V9.54844V9.5551V9.56176V9.56842V9.57508V9.58173V9.58838V9.59503V9.60167V9.60831V9.61495V9.62158V9.62821V9.63484V9.64146V9.64808V9.6547V9.66132V9.66793V9.67453V9.68114V9.68774V9.69434V9.70093V9.70752V9.71411V9.7207V9.72728V9.73385V9.74043V9.747V9.75356V9.76013V9.76668V9.77324V9.77979V9.78634V9.79288V9.79942V9.80596V9.81249V9.81902V9.82555V9.83207V9.83858V9.8451V9.85161V9.85811V9.86461V9.87111V9.8776V9.88409V9.89058V9.89706V9.90353V9.91001V9.91647V9.92294V9.9294V9.93585V9.9423V9.94875V9.95519V9.96163V9.96806V9.97449V9.98092V9.98734V9.99375V10.0002C23.6666 11.5428 22.8988 12.6261 22.1103 13.3357C21.7158 13.6908 21.3201 13.9481 21.0231 14.1164C20.8749 14.2004 20.7522 14.2617 20.6677 14.3015C20.6673 14.3017 20.6669 14.3019 20.6666 14.302C20.6662 14.3019 20.6659 14.3017 20.6655 14.3015C20.581 14.2617 20.4583 14.2004 20.3101 14.1164C20.0131 13.9481 19.6174 13.6908 19.2229 13.3357C18.4344 12.6261 17.6666 11.5428 17.6666 10.0002Z" stroke="white" stroke-width="0.666667"/>
<mask id="mask2" style="mask-type:alpha" maskUnits="userSpaceOnUse" x="17" y="5" width="7" height="10">
<path d="M17.6666 10.0002V9.94875V9.89706V9.8451V9.79288V9.74043V9.68774V9.63484V9.58173V9.52843V9.47495V9.4213V9.3675V9.31356V9.28653V9.27977V9.27301V9.25948V9.20529V9.15099V9.0966V9.04214V8.9876V8.93301V8.87837V8.82371V8.76903V8.74169V8.73485V8.72801V8.72118V8.71434V8.70751V8.70067V8.69384V8.687V8.68017V8.67333V8.6665V8.65966V8.65283V8.646V8.63916V8.63233V8.6255V8.61867V8.61184V8.60501V8.59818V8.59135V8.58452V8.57769V8.57086V8.56403V8.5572V8.55038V8.54355V8.53673V8.5299V8.52308V8.51626V8.50944V8.50262V8.4958V8.48898V8.48216V8.47534V8.46853V8.46171V8.4549V8.44808V8.44127V8.43446V8.42765V8.42084V8.41404V8.40723V8.40042V8.39362V8.38682V8.38002V8.37322V8.36642V8.35962V8.35282V8.34603V8.33924V8.33245V8.32565V8.31887V8.31208V8.30529V8.29851V8.29173V8.28495V8.27817V8.27139V8.26461V8.25784V8.25107V8.2443V8.23753V8.23076V8.224V8.21723V8.21047V8.20371V8.19696V8.1902V8.18345V8.1767V8.16995V8.1632V8.15645V8.14971V8.14297V8.13623V8.12949V8.12276V8.11603V8.1093V8.10257V8.09584V8.08912V8.0824V8.07568V8.06897V8.06225V8.05554V8.04883V8.04213V8.03543V8.02872V8.02203V8.01533V8.00864V8.00195V7.99526V7.98857V7.98189V7.97521V7.96854V7.96186V7.95519V7.94852V7.94186V7.93519V7.92853V7.92188V7.91522V7.90857V7.90193V7.89528V7.88864V7.87536V7.84885V7.79599V7.74335V7.69094V7.63877V7.58686V7.53522V7.48386V7.43279V7.38204V7.3316V7.28149V7.23173V7.18232V7.13329V7.08463V7.03637V6.94109V6.84752V6.75579V6.66598C17.6666 6.11397 18.114 5.66683 18.6666 5.66683H22.6666C23.2191 5.66683 23.6666 6.11397 23.6666 6.66598V6.67154V6.6771V6.68267V6.68825V6.69383V6.69943V6.70503V6.71064V6.71626V6.72188V6.72751V6.73315V6.7388V6.74446V6.75012V6.75579V6.76147V6.76715V6.77285V6.77855V6.78426V6.78997V6.79569V6.80142V6.80716V6.81291V6.81866V6.82442V6.83018V6.83596V6.84174V6.84753V6.85332V6.85912V6.86493V6.87075V6.87657V6.8824V6.88824V6.89408V6.89994V6.90579V6.91166V6.91753V6.92341V6.92929V6.93519V6.94109V6.94699V6.9529V6.95882V6.96475V6.97068V6.97662V6.98257V6.98852V6.99448V7.00045V7.00642V7.0124V7.01838V7.02437V7.03037V7.03637V7.04238V7.0484V7.05442V7.06045V7.06649V7.07253V7.07858V7.08463V7.09069V7.09676V7.10283V7.10891V7.115V7.12109V7.12719V7.13329V7.1394V7.14551V7.15163V7.15776V7.16389V7.17003V7.17617V7.18232V7.18848V7.19464V7.20081V7.20698V7.21316V7.21934V7.22553V7.23173V7.23793V7.24414V7.25035V7.25657V7.26279V7.26902V7.27525V7.28149V7.28774V7.29399V7.30024V7.3065V7.31277V7.31904V7.32532V7.3316V7.33789V7.34418V7.35047V7.35678V7.36308V7.3694V7.37571V7.38204V7.38836V7.3947V7.40103V7.40738V7.41372V7.42008V7.42643V7.43279V7.43916V7.44553V7.45191V7.45829V7.46467V7.47106V7.47746V7.48386V7.49026V7.49667V7.50308V7.5095V7.51592V7.52235V7.52878V7.53522V7.54166V7.5481V7.55455V7.561V7.56746V7.57392V7.58039V7.58686V7.59333V7.59981V7.60629V7.61278V7.61927V7.62577V7.63227V7.63877V7.64528V7.65179V7.6583V7.66482V7.67134V7.67787V7.6844V7.69094V7.69747V7.70402V7.71056V7.71711V7.72367V7.73022V7.73678V7.74335V7.74992V7.75649V7.76306V7.76964V7.77622V7.78281V7.7894V7.79599V7.80259V7.80919V7.81579V7.8224V7.82901V7.83562V7.84224V7.84886V7.85548V7.8621V7.86873V7.87537V7.882V7.88864V7.89528V7.90193V7.90857V7.91522V7.92188V7.92853V7.93519V7.94186V7.94852V7.95519V7.96186V7.96854V7.97521V7.98189V7.98857V7.99526V8.00195V8.00864V8.01533V8.02203V8.02872V8.03543V8.04213V8.04884V8.05554V8.06225V8.06897V8.07568V8.0824V8.08912V8.09585V8.10257V8.1093V8.11603V8.12276V8.12949V8.13623V8.14297V8.14971V8.15645V8.1632V8.16995V8.1767V8.18345V8.1902V8.19696V8.20371V8.21047V8.21723V8.224V8.23076V8.23753V8.2443V8.25107V8.25784V8.26461V8.27139V8.27817V8.28495V8.29173V8.29851V8.30529V8.31208V8.31887V8.32566V8.33245V8.33924V8.34603V8.35282V8.35962V8.36642V8.37322V8.38002V8.38682V8.39362V8.40042V8.40723V8.41404V8.42084V8.42765V8.43446V8.44127V8.44808V8.4549V8.46171V8.46853V8.47534V8.48216V8.48898V8.4958V8.50262V8.50944V8.51626V8.52308V8.52991V8.53673V8.54355V8.55038V8.55721V8.56403V8.57086V8.57769V8.58452V8.59135V8.59818V8.60501V8.61184V8.61867V8.6255V8.63233V8.63916V8.646V8.65283V8.65966V8.6665V8.67333V8.68017V8.687V8.69384V8.70067V8.70751V8.71434V8.72118V8.72802V8.73485V8.74169V8.74852V8.75536V8.76219V8.76903V8.77587V8.7827V8.78954V8.79637V8.80321V8.81004V8.81688V8.82371V8.83055V8.83738V8.84421V8.85105V8.85788V8.86471V8.87154V8.87838V8.88521V8.89204V8.89887V8.9057V8.91253V8.91935V8.92618V8.93301V8.93984V8.94666V8.95349V8.96031V8.96713V8.97396V8.98078V8.9876V8.99442V9.00124V9.00806V9.01488V9.02169V9.02851V9.03532V9.04214V9.04895V9.05576V9.06257V9.06938V9.07619V9.08299V9.0898V9.09661V9.10341V9.11021V9.11701V9.12381V9.13061V9.1374V9.1442V9.15099V9.15779V9.16458V9.17137V9.17815V9.18494V9.19173V9.19851V9.20529V9.21207V9.21885V9.22563V9.2324V9.23917V9.24594V9.25271V9.25948V9.26625V9.27301V9.27977V9.28653V9.29329V9.30005V9.3068V9.31356V9.32031V9.32705V9.3338V9.34055V9.34729V9.35403V9.36076V9.3675V9.37423V9.38096V9.38769V9.39442V9.40114V9.40787V9.41459V9.4213V9.42802V9.43473V9.44144V9.44815V9.45485V9.46155V9.46825V9.47495V9.48164V9.48834V9.49502V9.50171V9.50839V9.51508V9.52175V9.52843V9.5351V9.54177V9.54844V9.5551V9.56176V9.56842V9.57508V9.58173V9.58838V9.59503V9.60167V9.60831V9.61495V9.62158V9.62821V9.63484V9.64146V9.64808V9.6547V9.66132V9.66793V9.67453V9.68114V9.68774V9.69434V9.70093V9.70752V9.71411V9.7207V9.72728V9.73385V9.74043V9.747V9.75356V9.76013V9.76668V9.77324V9.77979V9.78634V9.79288V9.79942V9.80596V9.81249V9.81902V9.82555V9.83207V9.83858V9.8451V9.85161V9.85811V9.86461V9.87111V9.8776V9.88409V9.89058V9.89706V9.90353V9.91001V9.91647V9.92294V9.9294V9.93585V9.9423V9.94875V9.95519V9.96163V9.96806V9.97449V9.98092V9.98734V9.99375V10.0002C23.6666 11.5428 22.8988 12.6261 22.1103 13.3357C21.7158 13.6908 21.3201 13.9481 21.0231 14.1164C20.8749 14.2004 20.7522 14.2617 20.6677 14.3015C20.6673 14.3017 20.6669 14.3019 20.6666 14.302C20.6662 14.3019 20.6659 14.3017 20.6655 14.3015C20.581 14.2617 20.4583 14.2004 20.3101 14.1164C20.0131 13.9481 19.6174 13.6908 19.2229 13.3357C18.4344 12.6261 17.6666 11.5428 17.6666 10.0002Z" fill="white" stroke="white" stroke-width="0.666667"/>
</mask>
<g mask="url(#mask2)">
</g>
<path d="M0 -0.333333H-0.901086L-0.21693 0.253086L4.33333 4.15331V5.16179L-0.193746 8.39542L-0.333333 8.49513V8.66667V9.33333V9.93475L0.176666 9.616L5.42893 6.33333H6.55984L11.0821 9.56351C11.176 9.6306 11.2886 9.66667 11.404 9.66667C11.9182 9.66667 12.1548 9.02698 11.7644 8.69237L7.66667 5.18002V4.17154L12.0542 1.03762C12.2294 0.912475 12.3333 0.710428 12.3333 0.495127V0V-0.601416L11.8233 -0.282666L6.57107 3H5.44016L0.860413 -0.271244L0.773488 -0.333333H0.666667H0Z" fill="#DB1E36" stroke="white" stroke-width="0.666667"/>
<path fill-rule="evenodd" clip-rule="evenodd" d="M0 3.33333V6H4.66667V9.33333C4.66667 9.70152 4.96514 10 5.33333 10H6.66667C7.03486 10 7.33333 9.70152 7.33333 9.33333V6H12C12.3682 6 12.6667 5.70152 12.6667 5.33333V4C12.6667 3.63181 12.3682 3.33333 12 3.33333H7.33333V0H4.66667V3.33333H0Z" fill="white"/>
<path fill-rule="evenodd" clip-rule="evenodd" d="M0 4H5.33333V3.33333V0H6.66667V3.33333V4H12V5.33333H6.66667V6V9.33333H5.33333V6V5.33333H0V4Z" fill="#DB1E36"/>
</g>
</svg>
