<svg width="28" height="20" viewBox="0 0 28 20" fill="none" xmlns="http://www.w3.org/2000/svg">
<rect width="28" height="20" rx="2" fill="white"/>
<mask id="mask0" style="mask-type:alpha" maskUnits="userSpaceOnUse" x="0" y="0" width="28" height="20">
<rect width="28" height="20" rx="2" fill="white"/>
</mask>
<g mask="url(#mask0)">
<rect width="28" height="20" fill="#95CEF5"/>
<path fill-rule="evenodd" clip-rule="evenodd" d="M12.4327 6.82405L14.0001 5.76L15.5675 6.82405L15.0399 5.00453L16.5363 3.84262L14.6427 3.78214L14.0001 2L13.3575 3.78214L11.4639 3.84262L12.9603 5.00453L12.4327 6.82405ZM12.4327 17.4907L14.0001 16.4267L15.5675 17.4907L15.0399 15.6712L16.5363 14.5093L14.6427 14.4488L14.0001 12.6667L13.3575 14.4488L11.4639 14.5093L12.9603 15.6712L12.4327 17.4907ZM19.3334 11.0933L17.766 12.1574L18.2936 10.3379L16.7973 9.17595L18.6908 9.11547L19.3334 7.33333L19.9761 9.11547L21.8696 9.17595L20.3733 10.3379L20.9009 12.1574L19.3334 11.0933ZM7.09934 12.1574L8.66677 11.0933L10.2342 12.1574L9.70659 10.3379L11.2029 9.17595L9.30941 9.11547L8.66677 7.33333L8.02412 9.11547L6.13062 9.17595L7.62694 10.3379L7.09934 12.1574Z" fill="white"/>
</g>
</svg>
