<svg width="28" height="20" viewBox="0 0 28 20" fill="none" xmlns="http://www.w3.org/2000/svg">
<rect width="28" height="20" rx="2" fill="white"/>
<mask id="mask0" style="mask-type:alpha" maskUnits="userSpaceOnUse" x="0" y="0" width="28" height="20">
<rect width="28" height="20" rx="2" fill="white"/>
</mask>
<g mask="url(#mask0)">
<rect width="28" height="20" fill="#E42235"/>
<rect x="2.66675" y="2.6665" width="22.6667" height="14.6667" fill="#079B77"/>
<mask id="mask1" style="mask-type:alpha" maskUnits="userSpaceOnUse" x="2" y="2" width="24" height="16">
<rect x="2.66675" y="2.6665" width="22.6667" height="14.6667" fill="white"/>
</mask>
<g mask="url(#mask1)">
<path fill-rule="evenodd" clip-rule="evenodd" d="M4.39322 10.1317C4.77072 10.7358 5.3127 11.1346 5.8175 11.2369C6.09541 11.2933 5.58658 10.0187 5.80832 9.88018C5.99751 9.76196 6.90777 10.8218 6.98747 10.6007C7.17087 10.0919 7.06268 9.37148 6.65468 8.71854C6.06935 7.78181 6.0465 8.40007 4.46411 7.729C4.62956 8.68868 3.80789 9.19493 4.39322 10.1317Z" fill="#FFD938"/>
<path fill-rule="evenodd" clip-rule="evenodd" d="M14.0001 9.99984L25.3334 2.6665H2.66675L14.0001 9.99984ZM14.0001 9.99984L2.66675 17.3332H25.3334L14.0001 9.99984Z" fill="#FFD93B"/>
<path fill-rule="evenodd" clip-rule="evenodd" d="M14.0001 13.3332C15.841 13.3332 17.3334 11.8408 17.3334 9.99984C17.3334 8.15889 15.841 6.6665 14.0001 6.6665C12.1591 6.6665 10.6667 8.15889 10.6667 9.99984C10.6667 11.8408 12.1591 13.3332 14.0001 13.3332Z" fill="url(#paint0_linear)"/>
<path fill-rule="evenodd" clip-rule="evenodd" d="M14.0002 11.0281L12.4327 12.1571L13.0221 10.3175L11.464 9.17563L13.3957 9.16768L14.0002 7.33301L14.6046 9.16768L16.5363 9.17563L14.9782 10.3175L15.5676 12.1571L14.0002 11.0281Z" fill="#FFD938"/>
</g>
</g>
<defs>
<linearGradient id="paint0_linear" x1="10.6667" y1="6.6665" x2="10.6667" y2="13.3332" gradientUnits="userSpaceOnUse">
<stop stop-color="#E21C30"/>
<stop offset="1" stop-color="#CE1225"/>
</linearGradient>
</defs>
</svg>
