<svg width="28" height="20" viewBox="0 0 28 20" fill="none" xmlns="http://www.w3.org/2000/svg">
<rect x="0.25" y="0.25" width="27.5" height="19.5" rx="1.75" fill="white" stroke="#F5F5F5" stroke-width="0.5"/>
<mask id="mask0" style="mask-type:alpha" maskUnits="userSpaceOnUse" x="0" y="0" width="28" height="20">
<rect x="0.25" y="0.25" width="27.5" height="19.5" rx="1.75" fill="white" stroke="white" stroke-width="0.5"/>
</mask>
<g mask="url(#mask0)">
<path fill-rule="evenodd" clip-rule="evenodd" d="M0 20.0002H28V13.3335H0V20.0002Z" fill="#EC3938"/>
<path fill-rule="evenodd" clip-rule="evenodd" d="M0 6.66667H28V0H0V6.66667Z" fill="#51B422"/>
<path fill-rule="evenodd" clip-rule="evenodd" d="M13.6069 11.7151C13.6368 11.684 13.6535 11.6426 13.6538 11.5995L13.6651 9.62741C13.666 9.46527 13.5348 9.33333 13.3727 9.33333C13.1122 9.33333 12.9817 9.01837 13.1659 8.83417L13.7644 8.2357C13.8946 8.10553 14.1056 8.10553 14.2358 8.2357L14.8334 8.83333C15.0179 9.01785 14.8872 9.33333 14.6263 9.33333C14.4645 9.33333 14.3334 9.46447 14.3334 9.62623V11.5976C14.3334 11.6418 14.351 11.6842 14.3822 11.7155C14.4872 11.8205 14.4129 12 14.2644 12H13.7283C13.58 12 13.5042 11.8221 13.6069 11.7151Z" fill="#159940"/>
<path fill-rule="evenodd" clip-rule="evenodd" d="M0 0L9.33333 10L0 20V0Z" fill="#258DE7"/>
</g>
</svg>
