<svg width="28" height="20" viewBox="0 0 28 20" fill="none" xmlns="http://www.w3.org/2000/svg">
<rect x="0.25" y="0.25" width="27.5" height="19.5" rx="1.75" fill="white" stroke="#F5F5F5" stroke-width="0.5"/>
<mask id="mask0" style="mask-type:alpha" maskUnits="userSpaceOnUse" x="0" y="0" width="28" height="20">
<rect x="0.25" y="0.25" width="27.5" height="19.5" rx="1.75" fill="white" stroke="white" stroke-width="0.5"/>
</mask>
<g mask="url(#mask0)">
<path fill-rule="evenodd" clip-rule="evenodd" d="M0 6.66667H28V0H0V6.66667Z" fill="#0884E6"/>
<path fill-rule="evenodd" clip-rule="evenodd" d="M0 20.0002H28V13.3335H0V20.0002Z" fill="#0884E6"/>
<path fill-rule="evenodd" clip-rule="evenodd" d="M14.0001 10.6665L13.0573 10.9426L13.3334 9.99984L13.0573 9.05703L14.0001 9.33317L14.9429 9.05703L14.6667 9.99984L14.9429 10.9426L14.0001 10.6665Z" fill="#0E88E9"/>
<path fill-rule="evenodd" clip-rule="evenodd" d="M19.3333 9.3335L18.3905 9.60964L18.6667 8.66683L18.3905 7.72402L19.3333 8.00016L20.2761 7.72402L20 8.66683L20.2761 9.60964L19.3333 9.3335Z" fill="#0E88E9"/>
<path fill-rule="evenodd" clip-rule="evenodd" d="M19.3333 12L18.3905 12.2761L18.6667 11.3333L18.3905 10.3905L19.3333 10.6667L20.2761 10.3905L20 11.3333L20.2761 12.2761L19.3333 12Z" fill="#0E88E9"/>
<path fill-rule="evenodd" clip-rule="evenodd" d="M8.66659 12L7.72378 12.2761L7.99992 11.3333L7.72378 10.3905L8.66659 10.6667L9.60939 10.3905L9.33325 11.3333L9.60939 12.2761L8.66659 12Z" fill="#0E88E9"/>
<path fill-rule="evenodd" clip-rule="evenodd" d="M8.66659 9.3335L7.72378 9.60964L7.99992 8.66683L7.72378 7.72402L8.66659 8.00016L9.60939 7.72402L9.33325 8.66683L9.60939 9.60964L8.66659 9.3335Z" fill="#0E88E9"/>
</g>
</svg>
