<svg width="28" height="20" viewBox="0 0 28 20" fill="none" xmlns="http://www.w3.org/2000/svg">
<rect width="28" height="20" rx="2" fill="#D01129"/>
<mask id="mask0" style="mask-type:alpha" maskUnits="userSpaceOnUse" x="0" y="0" width="28" height="20">
<rect width="28" height="20" rx="2" fill="white"/>
</mask>
<g mask="url(#mask0)">
<path fill-rule="evenodd" clip-rule="evenodd" d="M13.888 10.0407C14.549 10.0407 15.0848 9.47817 15.0848 8.78435C15.0848 8.0904 14.549 7.52783 13.888 7.52783C13.2271 7.52783 12.6914 8.0904 12.6914 8.78435C12.6914 9.47817 13.2271 10.0407 13.888 10.0407Z" fill="#FFF101"/>
<path fill-rule="evenodd" clip-rule="evenodd" d="M12.7973 8.27913C13.1362 8.16561 13.5759 8.29772 13.8652 8.58922C14.1723 8.5305 14.4802 8.12561 14.5756 7.76512C14.4708 6.5672 13.7244 5.65968 13.4975 5.03693C13.4257 4.84011 13.093 4.53063 12.747 4.67472C12.4625 4.79326 12.3186 4.70102 11.363 5.20145C10.8463 5.47203 10.4114 5.74995 10.1822 5.79839C9.95294 5.84683 9.71108 5.89001 9.5277 5.73919C9.27546 5.53173 8.99259 5.47436 8.82599 5.31803C8.62187 5.12647 8.49092 4.98188 8.35286 4.92329C8.2148 4.86457 7.9811 4.99497 8.07977 5.30531C8.30242 6.00622 8.82727 6.11974 9.05259 6.77491C9.15896 7.08463 9.31018 7.31742 9.64816 7.08268C9.98614 6.84794 10.4638 6.53613 11.2782 6.50335C11.8251 6.48121 12.3902 6.27008 12.6499 5.92365C12.6473 6.22335 12.748 6.46898 12.7214 6.85882C12.695 7.24879 12.6992 7.73381 12.7973 8.27913Z" fill="white"/>
<path fill-rule="evenodd" clip-rule="evenodd" d="M13.438 8.31217C13.3376 7.72244 13.5197 7.63743 13.3023 6.94617C13.1715 6.53051 13.088 6.00954 13.0859 5.76709L12.9985 5.79376C13.0006 6.0362 13.0843 6.5573 13.2149 6.97296C13.4252 7.64134 13.2617 7.74287 13.3416 8.2822C13.3663 8.28746 13.4182 8.30483 13.438 8.31217Z" fill="#FFF101"/>
<path fill-rule="evenodd" clip-rule="evenodd" d="M12.9235 8.2475C12.9242 8.17251 12.9197 8.09423 12.9086 8.02695C13.0623 7.98817 13.3254 8.13728 13.3181 8.02646C13.3159 7.99135 13.3193 7.87783 13.3214 7.81765C13.318 7.91172 12.952 7.75294 12.889 7.79392C12.8213 7.4508 12.9052 7.09777 12.8515 6.88236C12.9737 6.84725 13.1983 6.92383 13.1708 6.82328C13.1552 6.77178 13.1254 6.64371 13.1057 6.56358C13.1249 6.6475 12.9466 6.57802 12.8862 6.62597C12.8549 6.43991 12.8091 6.08689 12.81 5.92554L12.65 5.92383C12.6474 6.22352 12.748 6.46915 12.7215 6.859C12.695 7.24897 12.6992 7.73398 12.7973 8.2793C12.8324 8.26854 12.8902 8.25471 12.9235 8.2475Z" fill="#FFF101"/>
<path fill-rule="evenodd" clip-rule="evenodd" d="M12.5192 5.50796C12.2806 5.86967 11.7106 6.11934 11.1837 6.17451C10.5669 6.23909 10.1529 6.45463 9.84797 6.66564C9.82176 6.6161 9.77445 6.58943 9.73263 6.55677C9.28653 6.20986 9.46991 5.73977 9.63884 5.80692C9.57511 5.78099 9.53807 5.746 9.50323 5.71971C9.44428 5.67383 9.27418 5.84961 9.2955 6.12876C9.30459 6.24766 9.40152 6.42307 9.4804 6.51604C9.3364 6.48851 9.26743 6.44986 9.18284 6.34258C9.23038 6.31151 9.29189 6.29389 9.34152 6.28986C9.32463 6.24729 9.3011 6.20007 9.2955 6.12876C9.22502 6.12815 9.13904 6.15396 9.06529 6.20656C8.88832 6.02148 8.70611 5.87383 8.60044 5.65536C8.43139 5.30539 8.60335 5.08448 8.82599 5.31811C8.62187 5.12656 8.49092 4.98197 8.35286 4.92337C8.2148 4.86466 7.9811 4.99506 8.07977 5.30539C8.30242 6.00631 8.82727 6.11983 9.05259 6.775C9.15896 7.08472 9.31577 7.32607 9.64816 7.08276C9.69197 7.05071 9.70362 7.04313 9.74172 7.01475C9.84715 6.95078 10.0142 7.05818 9.9964 7.29169C10.0818 7.07726 10.0273 7.01157 9.9548 6.88301C9.90121 6.91298 9.90552 6.73744 9.87244 6.71432C10.0621 6.59053 10.2928 6.46637 10.5838 6.37793C10.5945 6.48276 10.622 6.59408 10.7139 6.57793C10.7632 6.56643 10.8132 6.55604 10.8658 6.54686C10.7738 6.56301 10.748 6.44117 10.7374 6.33646C10.8753 6.30319 11.0261 6.27799 11.1913 6.2638C11.3816 6.24741 11.5784 6.2068 11.7632 6.1438C11.7907 6.24435 11.8475 6.41377 11.9423 6.3805C12.0263 6.35224 12.1079 6.32032 12.1846 6.28325C12.0528 6.34919 12.001 6.16093 11.9693 6.06136C12.2101 5.95139 12.4153 5.80142 12.5379 5.62246L12.5192 5.50796Z" fill="#FFF101"/>
<path fill-rule="evenodd" clip-rule="evenodd" d="M13.5732 5.68723C13.6894 5.59255 13.7893 5.54778 13.689 5.34729C13.5249 5.01946 13.6269 5.01833 13.2677 4.80977C12.9018 4.59766 12.9481 4.58102 12.464 4.76023C12.3449 4.80427 12.3715 4.84928 12.3924 5.03057C12.4372 5.42127 12.5225 5.7359 12.6004 6.05737C12.9047 6.01565 13.3729 5.85053 13.5732 5.68723Z" fill="#FFF101"/>
<path fill-rule="evenodd" clip-rule="evenodd" d="M12.4374 5.59881C12.3736 5.407 12.3907 5.43306 12.6221 5.49153C12.6978 5.23869 12.8024 5.02528 12.861 4.82063C12.9265 4.59152 12.947 4.5503 13.0433 4.60644C13.1666 4.67813 13.302 4.75384 13.3902 4.79935C13.5442 4.87861 13.5215 4.90638 13.448 5.03238C13.3744 5.15837 13.134 5.41373 12.9857 5.68015C13.1813 5.82474 13.2441 5.83783 13.1051 5.90009C12.9496 5.9697 12.6912 6.05593 12.5824 6.07636C12.5624 5.95049 12.4981 5.78071 12.4374 5.59881Z" fill="#FFF101"/>
<path fill-rule="evenodd" clip-rule="evenodd" d="M10.1408 7.40238L10.1254 7.59969L9.98689 7.46758L9.83193 7.57804L9.84219 7.3811L9.66382 7.32446L9.81621 7.20972L9.74898 7.02673L9.92782 7.08153L10.0223 6.91211L10.0941 7.09303L10.2786 7.06379L10.1882 7.23639L10.3243 7.36972L10.1408 7.40238Z" fill="#FFF101"/>
<path fill-rule="evenodd" clip-rule="evenodd" d="M14.0169 10.0288C13.7538 9.77725 13.6428 9.31144 13.7387 8.90263C13.5367 8.65285 13.0488 8.57517 12.7037 8.66863C11.768 9.36306 11.3927 10.4954 10.9925 11.0132C10.8659 11.1769 10.7771 11.634 11.069 11.8767C11.309 12.0761 11.3049 12.253 12.1954 12.8717C12.6769 13.2062 13.1236 13.4628 13.2782 13.647C13.4329 13.8312 13.5894 14.0296 13.5566 14.2717C13.5117 14.6048 13.6057 14.8908 13.5601 15.1202C13.5041 15.4016 13.4504 15.593 13.471 15.7479C13.4917 15.9028 13.716 16.05 13.9227 15.8051C14.3894 15.2522 14.2207 14.7183 14.6485 14.1858C14.8506 13.9342 14.9672 13.6802 14.6046 13.4903C14.2419 13.3004 13.7459 13.0219 13.3116 12.298C13.02 11.8117 12.5633 11.4033 12.1476 11.3404C12.3961 11.193 12.5485 10.9786 12.8833 10.8077C13.2182 10.6368 13.6162 10.3907 14.0169 10.0288Z" fill="white"/>
<path fill-rule="evenodd" clip-rule="evenodd" d="M13.7237 9.42969C13.2876 9.81586 13.1264 9.69268 12.6649 10.236C12.3875 10.5628 11.9995 10.8993 11.8005 11.0223L11.8662 11.0884C12.0652 10.9653 12.4532 10.6288 12.7307 10.3021C13.1769 9.77672 13.3424 9.87458 13.7473 9.5322C13.7393 9.50724 13.7275 9.45134 13.7237 9.42969Z" fill="#FFF101"/>
<path fill-rule="evenodd" clip-rule="evenodd" d="M13.9276 9.93011C13.8655 9.96693 13.8031 10.0102 13.7532 10.0539C13.6444 9.93354 13.6357 9.61965 13.5481 9.68192C13.5202 9.70124 13.4249 9.75507 13.3741 9.7832C13.4535 9.73929 13.5054 10.1514 13.5707 10.1882C13.3215 10.4214 12.9884 10.5215 12.8377 10.6781C12.7476 10.5844 12.6985 10.3421 12.6292 10.4173C12.5946 10.4572 12.5039 10.5483 12.4476 10.6063C12.5073 10.5469 12.5391 10.7438 12.6087 10.7746C12.471 10.8962 12.2027 11.1143 12.0691 11.1942L12.1477 11.3406C12.3962 11.1932 12.5486 10.9788 12.8835 10.8079C13.2183 10.637 13.6163 10.3909 14.0171 10.0289C13.9906 10.0024 13.9502 9.95678 13.9276 9.93011Z" fill="#FFF101"/>
<path fill-rule="evenodd" clip-rule="evenodd" d="M11.8701 11.6673C12.2878 11.7034 12.7786 12.0968 13.0876 12.5484C13.4492 13.077 13.8342 13.3456 14.1606 13.5173C14.1329 13.566 14.1345 13.6223 14.1286 13.6767C14.0654 14.2558 13.586 14.324 13.5569 14.1369C13.5674 14.2078 13.557 14.259 13.5528 14.3039C13.5444 14.3804 13.7745 14.4471 13.994 14.2882C14.0876 14.2204 14.1837 14.0447 14.2211 13.9265C14.2702 14.0711 14.2728 14.1532 14.2268 14.2837C14.1773 14.256 14.1321 14.2088 14.1039 14.1659C14.0772 14.2025 14.05 14.2475 13.994 14.2882C14.0287 14.3527 14.093 14.4179 14.1733 14.4586C14.1091 14.7121 14.0785 14.9516 13.951 15.1568C13.747 15.4855 13.4787 15.4396 13.5601 15.1204C13.5041 15.4017 13.4504 15.5932 13.471 15.748C13.4917 15.9029 13.716 16.0502 13.9227 15.8053C14.3894 15.2524 14.2207 14.7184 14.6485 14.1859C14.8507 13.9343 14.9715 13.6711 14.6046 13.4904C14.5561 13.4667 14.5441 13.4599 14.5017 13.4394C14.3962 13.3755 14.4013 13.1699 14.6027 13.0694C14.3832 13.099 14.3563 13.1814 14.2865 13.3116C14.3379 13.3452 14.191 13.4291 14.1884 13.4708C13.9916 13.3603 13.7739 13.2126 13.5554 12.9921C13.6366 12.93 13.7146 12.8493 13.6552 12.7738C13.6211 12.7348 13.5875 12.6944 13.5536 12.6513C13.613 12.7269 13.5255 12.8111 13.4443 12.8733C13.348 12.7645 13.2519 12.64 13.1575 12.4969C13.0488 12.3319 12.9169 12.1733 12.7726 12.0368C12.8418 11.9615 12.953 11.8252 12.8782 11.7556C12.813 11.6933 12.7458 11.635 12.6769 11.584C12.7971 11.6708 12.6677 11.8121 12.6015 11.8907C12.3903 11.7267 12.1641 11.6151 11.9552 11.5932L11.8701 11.6673Z" fill="#FFF101"/>
<path fill-rule="evenodd" clip-rule="evenodd" d="M11.3218 10.6976C11.1854 10.6393 11.2527 10.5604 11.1375 10.7519C10.9491 11.0649 10.9127 10.9928 10.9204 11.4238C10.9282 11.8623 11.0093 11.7923 11.3992 12.1429C11.699 11.9069 12.0568 11.5502 12.2829 11.3186C12.0964 11.0628 11.5565 10.7983 11.3218 10.6976Z" fill="#FFF101"/>
<path fill-rule="evenodd" clip-rule="evenodd" d="M11.9857 11.6961C11.8594 11.8501 11.8724 11.8216 11.8049 11.5819C11.5585 11.6394 11.3684 11.7058 11.1705 11.7549C10.9487 11.8098 10.9045 11.8117 10.9025 11.6961C10.9001 11.5481 10.8949 11.3873 10.8883 11.2843C10.8768 11.1047 10.9109 11.1113 11.0516 11.1152C11.1924 11.119 11.4847 11.1553 11.7787 11.1569C11.8001 10.9068 11.7795 10.8432 11.9004 10.9385C12.0355 11.045 12.2359 11.2369 12.3072 11.3256C12.2132 11.4066 12.1055 11.5501 11.9857 11.6961Z" fill="#FFF101"/>
<path fill-rule="evenodd" clip-rule="evenodd" d="M14.6219 12.883L14.7924 12.7982L14.7526 12.9902L14.9213 13.0759L14.7537 13.165L14.7961 13.3555L14.6252 13.2743L14.5079 13.427L14.4637 13.2369L14.2767 13.2357L14.3902 13.0801L14.2737 12.9269L14.4614 12.9228L14.5033 12.7324L14.6219 12.883Z" fill="#FFF101"/>
<path fill-rule="evenodd" clip-rule="evenodd" d="M14.8503 8.04502C14.7745 8.40991 14.4457 8.74373 14.0606 8.86104C13.9555 9.16954 14.1354 9.65187 14.3851 9.91915C15.4256 10.4226 16.5474 10.1978 17.1745 10.3028C17.3728 10.3359 17.7944 10.1881 17.8485 9.80147C17.893 9.48355 18.0409 9.3989 18.106 8.27976C18.1412 7.67462 18.1294 7.14019 18.2041 6.90753C18.2788 6.67486 18.3642 6.43327 18.5802 6.34202C18.8774 6.21639 19.0662 5.98777 19.2785 5.9145C19.5384 5.82471 19.7232 5.77786 19.8405 5.68171C19.958 5.58557 19.9673 5.30789 19.662 5.24245C18.9726 5.09444 18.6165 5.51486 17.9634 5.39205C17.6548 5.33407 17.3871 5.35499 17.4118 5.77982C17.4365 6.20453 17.4547 6.79474 17.0747 7.55156C16.8194 8.05994 16.711 8.67939 16.8669 9.08881C16.621 8.93652 16.368 8.9052 16.0597 8.68624C15.7513 8.46716 15.3493 8.2285 14.8503 8.04502Z" fill="white"/>
<path fill-rule="evenodd" clip-rule="evenodd" d="M14.5027 8.61087C15.0393 8.81429 15.0183 9.02249 15.6972 9.1705C16.1054 9.25943 16.5769 9.4439 16.778 9.56328L16.7996 9.47044C16.5986 9.35105 16.127 9.16671 15.7189 9.07766C15.0624 8.93454 15.0604 8.73515 14.5755 8.53809C14.559 8.55802 14.5186 8.59656 14.5027 8.61087Z" fill="#FFF101"/>
<path fill-rule="evenodd" clip-rule="evenodd" d="M14.8134 8.17556C14.8749 8.21361 14.9418 8.24859 15.0027 8.27232C14.958 8.43134 14.7033 8.59624 14.7985 8.6448C14.8284 8.66058 14.9203 8.72027 14.9689 8.75232C14.8931 8.70205 15.2069 8.44884 15.2047 8.37092C15.5217 8.48101 15.7708 8.73385 15.9754 8.79269C15.9432 8.92137 15.7678 9.08725 15.8645 9.11257C15.9147 9.12407 16.0353 9.16101 16.1112 9.18315C16.0324 9.15868 16.1789 9.03122 16.1695 8.95257C16.3387 9.01691 16.6526 9.15183 16.7853 9.23342L16.8668 9.08871C16.621 8.93642 16.3679 8.90511 16.0596 8.68615C15.7512 8.46706 15.3492 8.22841 14.8502 8.04492C14.8416 8.08211 14.8241 8.14168 14.8134 8.17556Z" fill="#FFF101"/>
<path fill-rule="evenodd" clip-rule="evenodd" d="M17.2751 9.17774C17.096 8.77994 17.1751 8.13688 17.3932 7.63009C17.6483 7.03694 17.6775 6.55266 17.6558 6.17003C17.7099 6.17101 17.7554 6.14129 17.8034 6.11951C18.3125 5.88746 18.6086 6.28918 18.4686 6.40918C18.522 6.36416 18.5694 6.34814 18.6085 6.32954C18.6758 6.29872 18.6158 6.05627 18.375 5.93615C18.2723 5.8849 18.0793 5.88538 17.963 5.91046C18.0579 5.7934 18.1241 5.75009 18.2549 5.72673C18.2568 5.78557 18.2405 5.85028 18.2191 5.89737C18.2627 5.90324 18.3133 5.90545 18.375 5.93615C18.4107 5.8723 18.4324 5.78129 18.4259 5.68783C18.6671 5.61957 18.8799 5.52771 19.1129 5.54092C19.4861 5.56208 19.5824 5.82899 19.2785 5.9145C19.5384 5.82471 19.7232 5.77786 19.8405 5.68171C19.9579 5.58557 19.9673 5.30789 19.662 5.24245C18.9725 5.09444 18.6165 5.51486 17.9634 5.39205C17.6547 5.33407 17.3772 5.35584 17.4117 5.77982C17.4163 5.83572 17.4167 5.85003 17.421 5.89884C17.421 6.02679 17.249 6.1249 17.0653 5.99193C17.1994 6.17688 17.2809 6.16012 17.4231 6.15853C17.4252 6.0948 17.5678 6.18642 17.6035 6.16795C17.6108 6.40233 17.5978 6.67413 17.5252 6.983C17.4334 6.94031 17.3279 6.9096 17.2952 7.00135C17.2801 7.05187 17.2636 7.10251 17.245 7.15486C17.2776 7.06312 17.391 7.10067 17.4827 7.14337C17.4412 7.28538 17.3866 7.43511 17.3157 7.59242C17.2339 7.7737 17.1692 7.97285 17.1287 8.17248C17.032 8.14716 16.8639 8.11413 16.8439 8.21701C16.8252 8.3074 16.8107 8.39768 16.803 8.48587C16.8145 8.33309 16.9957 8.38006 17.0937 8.40098C17.0641 8.67499 17.085 8.93652 17.1714 9.13762L17.2751 9.17774Z" fill="#FFF101"/>
<path fill-rule="evenodd" clip-rule="evenodd" d="M16.5586 10.0094C16.5786 10.1626 16.5656 10.2757 16.7811 10.2847C17.1335 10.2995 17.1049 10.3451 17.4565 10.1227C17.8143 9.8963 17.8238 9.94101 17.9181 9.41122C17.9412 9.28095 17.8908 9.28254 17.7308 9.21085C17.3863 9.05624 17.0852 9.0668 16.7811 8.97689C16.6633 9.2745 16.5241 9.74572 16.5586 10.0094Z" fill="#FFF101"/>
<path fill-rule="evenodd" clip-rule="evenodd" d="M17.2409 9.05821C17.4312 9.09588 17.4011 9.09845 17.2372 9.27973C17.4079 9.47496 17.5385 9.61232 17.6781 9.76792C17.8343 9.94211 17.858 9.98125 17.7636 10.0408C17.6428 10.117 17.5128 10.2022 17.4311 10.2598C17.2886 10.3601 17.2771 10.3256 17.2099 10.1957C17.1427 10.0659 17.0453 9.78395 16.8998 9.51606C16.6826 9.62151 16.6405 9.67215 16.6586 9.5146C16.679 9.33845 16.7372 9.06029 16.7747 8.95117C16.8884 8.99594 17.0606 9.02224 17.2409 9.05821Z" fill="#FFF101"/>
<path fill-rule="evenodd" clip-rule="evenodd" d="M16.9016 6.06808L16.7466 5.95542L16.9248 5.89548L16.9111 5.69927L17.0684 5.80716L17.2044 5.67334L17.2229 5.8693L17.4074 5.89964L17.2727 6.03493L17.3652 6.20545L17.1801 6.18013L17.1119 6.36264L17.0148 6.19407L16.8368 6.2512L16.9016 6.06808Z" fill="#FFF101"/>
<path fill-rule="evenodd" clip-rule="evenodd" d="M13.8602 8.59453C13.5706 8.30268 13.1333 8.17442 12.7996 8.28621L12.7902 8.28034C12.7025 7.79301 12.6828 7.32234 12.7143 6.85807C12.7265 6.67848 12.7159 6.54704 12.6808 6.31264C12.6662 6.21543 12.6642 6.20183 12.659 6.16159C12.6487 6.08086 12.6432 6.01252 12.6427 5.9451C12.3864 6.27006 11.8443 6.48788 11.2785 6.51079C10.6093 6.53773 10.1913 6.71444 9.65225 7.08885C9.35276 7.29686 9.18173 7.17307 9.04582 6.7773C8.95582 6.51561 8.84607 6.36455 8.58284 6.08649L8.56259 6.06509C8.2869 5.77375 8.16706 5.60381 8.07294 5.30752C7.98505 5.03112 8.17493 4.83913 8.35566 4.916C8.36797 4.92122 8.38032 4.92716 8.3928 4.93383C8.451 4.96496 8.51073 5.01098 8.58976 5.08312C8.61683 5.10782 8.69615 5.18358 8.75757 5.24226L8.75759 5.24227L8.7576 5.24228C8.79127 5.27445 8.81956 5.30147 8.83091 5.31212C8.83992 5.32057 8.84921 5.32874 8.85894 5.33673C8.84513 5.32762 8.83076 5.32168 8.81605 5.31866L8.74758 5.25338C8.6862 5.19475 8.60713 5.11923 8.58021 5.09466C8.50199 5.02327 8.44312 4.97791 8.38619 4.94745C8.37408 4.94098 8.36211 4.93522 8.3502 4.93017C8.18109 4.85825 8.00277 5.03855 8.08676 5.30268C8.17999 5.5962 8.29869 5.76451 8.57292 6.05431L8.59317 6.07571C8.85779 6.35524 8.9686 6.50777 9.05951 6.77211C9.1927 7.15991 9.3547 7.27718 9.64422 7.0761C10.1853 6.70027 10.6056 6.52257 11.278 6.49551C11.8496 6.47236 12.3967 6.24898 12.6443 5.91872L12.6573 5.92352C12.6566 5.99729 12.6621 6.07081 12.6735 6.15954C12.6786 6.19962 12.6806 6.21319 12.6952 6.31026C12.7305 6.54571 12.7411 6.67814 12.7288 6.85916C12.6976 7.31949 12.7169 7.78611 12.803 8.26906L12.7952 8.27164L12.8045 8.27751L12.803 8.26906C13.141 8.16008 13.5792 8.29019 13.8639 8.5815C14.1515 8.52651 14.4675 8.14525 14.5684 7.76562C14.5186 7.19586 14.3346 6.68067 14.0037 6.0478C13.9527 5.95014 13.8133 5.69389 13.7456 5.56956L13.7085 5.50122C13.603 5.30397 13.5365 5.16495 13.4908 5.03946C13.396 4.77963 13.0418 4.56 12.7497 4.68163C12.71 4.69818 12.6713 4.71137 12.629 4.72322C12.6019 4.73081 12.5743 4.73763 12.5365 4.74627C12.1476 4.83529 11.9324 4.91166 11.3663 5.20809L11.3185 5.23325C11.2097 5.29085 10.9476 5.43554 10.7845 5.5256L10.7843 5.52569C10.7151 5.56389 10.6638 5.59224 10.6495 5.59991C10.4254 5.72067 10.285 5.78427 10.1837 5.80569C9.84877 5.87645 9.67942 5.87343 9.52328 5.745C9.47411 5.70456 9.42155 5.66799 9.36366 5.63314C9.34872 5.62414 9.33356 5.61534 9.31792 5.60655L9.32256 5.60082L9.32053 5.59069C9.33781 5.60033 9.35448 5.60999 9.37091 5.61987C9.42938 5.65507 9.48251 5.69205 9.53226 5.73297C9.68384 5.85764 9.84995 5.86061 10.1809 5.7907C10.2804 5.76966 10.4199 5.70641 10.6429 5.58631C10.657 5.57866 10.7083 5.55038 10.7773 5.51226L10.7775 5.51219L10.7775 5.51217C10.9406 5.42213 11.203 5.27729 11.312 5.21959L11.3598 5.19441C11.927 4.89738 12.1434 4.82061 12.5334 4.73133C12.571 4.72273 12.5984 4.71596 12.6253 4.70844C12.6671 4.69674 12.7052 4.68374 12.7443 4.66742C13.0448 4.5423 13.407 4.76687 13.5044 5.03399C13.5498 5.15862 13.6161 5.29708 13.7212 5.49374L13.7582 5.56179C13.8258 5.68601 13.9654 5.94261 14.0165 6.04044C14.3482 6.67499 14.5329 7.19198 14.5827 7.76697C14.4801 8.15448 14.1604 8.54036 13.8602 8.59453ZM9.30493 5.58207L9.32053 5.59069L9.32019 5.58899C9.31511 5.5864 9.31002 5.58409 9.30493 5.58207ZM9.25224 5.57119C9.26972 5.57148 9.28732 5.57507 9.30493 5.58207C9.27825 5.56748 9.24991 5.55275 9.21866 5.5371C9.20349 5.5295 9.16984 5.51304 9.13852 5.49774L9.13815 5.49459C9.12576 5.4887 9.11366 5.48376 9.10181 5.4798L9.07363 5.46602C8.98205 5.42057 8.9195 5.38449 8.86898 5.34479L8.869 5.34401C8.86568 5.34139 8.86233 5.33896 8.85894 5.33673L8.86898 5.34479L8.86866 5.35648L8.86385 5.35985C8.85967 5.35662 8.85558 5.35336 8.85155 5.35007L8.85165 5.35C8.85455 5.35192 8.85742 5.35399 8.86025 5.35623L8.86059 5.34375L8.85165 5.35C8.85134 5.34979 8.85102 5.34958 8.8507 5.34938C8.84047 5.341 8.83069 5.33242 8.82121 5.32352L8.81605 5.31866C8.7225 5.29949 8.6155 5.39905 8.55471 5.55928L8.56552 5.56847L8.86385 5.35985C8.91029 5.3958 8.96654 5.42889 9.04485 5.46854C8.93093 5.46299 8.83524 5.56931 8.71299 5.84141L8.72408 5.85068L9.13387 5.51234C9.16474 5.52742 9.19752 5.54345 9.21239 5.5509C9.22621 5.55782 9.23946 5.56456 9.25224 5.57119ZM9.29917 5.59616C9.28413 5.58793 9.26856 5.57965 9.25224 5.57119C9.12235 5.56904 8.99876 5.74916 8.92466 6.06978L8.93728 6.07654L9.31792 5.60655L9.30474 5.59922L9.3052 5.59865L9.31383 5.60274L9.31147 5.59091L9.3052 5.59865L9.29917 5.59616ZM8.94642 6.04165C9.02948 5.70759 9.1662 5.54443 9.29917 5.59616L9.30474 5.59922L8.94642 6.04165ZM8.94642 6.04165L8.93881 6.07339L8.92618 6.06663L8.94642 6.04165ZM9.11906 5.50511L9.13387 5.51234L9.13965 5.50756L9.13852 5.49774L9.1191 5.48826L9.10181 5.4798C9.08221 5.47327 9.06329 5.46944 9.04485 5.46854L9.0674 5.47984L9.09673 5.49419C8.96907 5.45224 8.87162 5.53314 8.73963 5.81839L8.71508 5.83866L8.72616 5.84794L8.73963 5.81839L9.11906 5.50511ZM9.12104 5.50348C9.11281 5.49991 9.10471 5.49681 9.09673 5.49419L9.11308 5.50219L9.11906 5.50511L9.12104 5.50348ZM9.12104 5.50348L9.13215 5.50852L9.13065 5.49555L9.12104 5.50348ZM8.57759 5.54166L8.85155 5.35007C8.85127 5.34984 8.85098 5.34961 8.8507 5.34938C8.76306 5.2926 8.64651 5.37911 8.57759 5.54166ZM8.57759 5.54166L8.55744 5.55574L8.56824 5.56493C8.57125 5.55701 8.57437 5.54925 8.57759 5.54166Z" fill="black"/>
<path fill-rule="evenodd" clip-rule="evenodd" d="M13.4176 7.76009C13.4072 7.98614 13.4108 8.10776 13.4453 8.3104L13.4357 8.31896C13.4247 8.31488 13.4105 8.31 13.3957 8.30493C13.3736 8.29735 13.3503 8.28935 13.3346 8.28295C13.3083 8.10526 13.3061 7.99462 13.3157 7.78597L13.3176 7.74263C13.3292 7.47455 13.3088 7.295 13.2081 6.97494C13.0867 6.58866 12.9937 6.06141 12.9966 5.786L13.0933 5.7666C13.0956 6.03313 13.1884 6.5587 13.3093 6.94336C13.4106 7.26537 13.4311 7.4468 13.4195 7.71668L13.4176 7.76009ZM13.4406 8.30454L13.431 8.31309C13.4302 8.30879 13.4295 8.30453 13.4288 8.3003C13.433 8.30178 13.4369 8.3032 13.4406 8.30454ZM13.3432 8.27429C13.3618 8.27824 13.4006 8.29038 13.4288 8.3003C13.3961 8.1039 13.3928 7.98166 13.403 7.75936L13.405 7.71599C13.4165 7.44789 13.3962 7.2683 13.2955 6.94815C13.1741 6.56207 13.0811 6.03496 13.0881 5.77401L13.006 5.79327C13.0083 6.05958 13.101 6.58529 13.2219 6.97014C13.3232 7.29207 13.3438 7.47347 13.3322 7.74332L13.3302 7.78671C13.3207 7.99441 13.3228 8.10413 13.3432 8.27429Z" fill="black"/>
<path fill-rule="evenodd" clip-rule="evenodd" d="M11.7186 5.01025C11.637 5.047 11.6376 5.17722 11.7036 5.38007C11.7563 5.54229 11.8498 5.74609 11.9621 5.95426L11.9755 5.94844L11.7285 5.01523L11.7186 5.01025ZM12.9157 8.02528C12.9264 8.09026 12.9315 8.16807 12.9307 8.2472L12.9249 8.25461L12.9 8.26014C12.8635 8.2683 12.8222 8.27756 12.7901 8.28035C12.7025 7.79302 12.6827 7.32234 12.7142 6.85808C12.7264 6.67849 12.7159 6.54704 12.6807 6.31265C12.6661 6.21544 12.6641 6.20183 12.6589 6.16159C12.6475 6.07219 12.642 5.99797 12.65 5.91581L12.8173 5.92522C12.8165 6.06354 12.853 6.38162 12.8915 6.61303C12.9122 6.60152 12.9413 6.59839 12.987 6.59926L13.0057 6.59974C13.0484 6.60096 13.0648 6.60052 13.0798 6.59636C13.0969 6.59158 13.1027 6.5829 13.0986 6.565L13.1127 6.5613C13.1178 6.58204 13.1401 6.67455 13.1388 6.66887L13.1408 6.67733C13.1584 6.74964 13.1698 6.79457 13.1778 6.8208C13.187 6.85449 13.1716 6.87414 13.1366 6.88127C13.1118 6.88632 13.0877 6.88608 13.0183 6.8823C12.998 6.8812 12.9867 6.88064 12.9742 6.8802C12.9415 6.87906 12.9145 6.87951 12.8928 6.87987C12.8795 6.8801 12.8681 6.88029 12.8585 6.88005C12.8801 6.9667 12.8814 7.04547 12.8731 7.26737C12.865 7.48293 12.8661 7.59307 12.8845 7.7232C12.8873 7.74329 12.8906 7.76302 12.8942 7.78244C12.9216 7.77207 12.9702 7.78061 13.0938 7.80965L13.1021 7.81161C13.1778 7.82934 13.2173 7.83709 13.2517 7.83939C13.2933 7.84216 13.3133 7.83469 13.314 7.81706L13.3131 7.8457C13.3 7.85391 13.2789 7.85652 13.2508 7.85465C13.2153 7.85228 13.1754 7.84444 13.099 7.82653L13.0906 7.82457C12.96 7.79388 12.9133 7.78673 12.8928 7.80005L12.8818 7.7951C12.8773 7.77232 12.8734 7.74912 12.8701 7.72545C12.8515 7.59408 12.8504 7.48325 12.8585 7.26676C12.8668 7.04664 12.8655 6.96849 12.8495 6.87462C12.8816 6.86541 12.9205 6.86302 12.9747 6.86492C12.9873 6.86536 12.9987 6.86592 13.019 6.86703C13.0869 6.87072 13.1107 6.87096 13.1338 6.86626C13.1612 6.86068 13.1704 6.84902 13.1638 6.82523C13.1558 6.7988 13.1443 6.75375 13.1267 6.6811L13.1247 6.67264C13.1256 6.6766 13.1148 6.6318 13.1066 6.59779C13.114 6.58908 13.1163 6.57699 13.1127 6.56143L13.0986 6.56512L13.1066 6.59779C13.1013 6.6039 13.0936 6.60834 13.0835 6.61114C13.0666 6.61584 13.0497 6.6163 13.0053 6.61502L12.9867 6.61455C12.9367 6.61359 12.9082 6.61772 12.8906 6.63169L12.879 6.62693C12.8397 6.39383 12.8019 6.06686 12.8099 5.93282L12.6572 5.92353C12.6565 5.99729 12.662 6.07082 12.6734 6.15955C12.6785 6.19963 12.6805 6.2132 12.6951 6.31027C12.7304 6.54572 12.741 6.67815 12.7287 6.85917C12.6973 7.32218 12.717 7.79155 12.7952 8.27159C12.8248 8.26252 12.8755 8.24987 12.9162 8.2409L12.9162 8.24705L12.922 8.23964L12.9162 8.2409C12.9166 8.16476 12.9118 8.08998 12.9068 8.01914C12.9477 8.00882 12.9972 8.01052 13.0608 8.0216C13.0821 8.02532 13.1033 8.02974 13.1332 8.03644C13.225 8.057 13.2385 8.05966 13.2655 8.0602C13.2989 8.06086 13.3124 8.05129 13.3108 8.02659C13.3091 8.00024 13.3103 7.93021 13.3131 7.8457C13.3228 7.83959 13.3281 7.83036 13.3286 7.81757L13.314 7.817L13.314 7.81699L13.3286 7.81756C13.3252 7.91386 13.3235 7.99708 13.3253 8.02556C13.3277 8.06102 13.3061 8.0763 13.2652 8.07549C13.2368 8.07492 13.2234 8.07229 13.1302 8.05139C13.1005 8.04474 13.0794 8.04036 13.0584 8.03669C12.9966 8.02591 12.9488 8.02427 12.9157 8.02528ZM11.7168 5.0282L11.7145 5.01933L11.7243 5.02431C11.7217 5.02548 11.7192 5.02678 11.7168 5.0282ZM11.9452 5.89113C11.8465 5.70329 11.7651 5.52186 11.7174 5.37513C11.6562 5.18684 11.6533 5.06548 11.7168 5.0282L11.9452 5.89113ZM11.9452 5.89113C11.9549 5.90961 11.9648 5.92815 11.9748 5.94672L11.9614 5.95254L11.9452 5.89113ZM11.761 6.14807L11.7609 6.14812L11.7609 6.14813L11.7606 6.14828L11.7654 6.16478C11.8343 6.13783 11.9032 6.10617 11.9722 6.07013L11.9667 6.05393L11.9664 6.05407L11.9664 6.05406L11.9662 6.05414L11.761 6.14807ZM11.761 6.14807C11.8294 6.12133 11.8978 6.08991 11.9662 6.05414L11.9664 6.05407L11.9719 6.07026L11.7658 6.16462L11.7609 6.14813L11.761 6.14807ZM10.582 6.37624C10.5819 6.37626 10.5819 6.37628 10.5818 6.3763L10.5856 6.39319L10.7392 6.34573L10.7357 6.32873C10.7357 6.32874 10.7356 6.32876 10.7355 6.32878L10.7355 6.32878L10.7354 6.32881C10.683 6.34321 10.632 6.35898 10.5821 6.3762L10.582 6.37623L10.582 6.37624ZM10.582 6.37624L10.5858 6.39312C10.6357 6.37591 10.6866 6.36016 10.739 6.34578L10.7355 6.32878C10.7355 6.32879 10.7355 6.3288 10.7354 6.32881L10.5821 6.3762C10.582 6.37621 10.582 6.37622 10.582 6.37624Z" fill="black"/>
<path fill-rule="evenodd" clip-rule="evenodd" d="M11.183 6.1666C11.7405 6.10824 12.2879 5.84504 12.5133 5.50331L12.5264 5.50637L12.5439 5.62663C12.4248 5.80039 12.2243 5.95297 11.9763 6.05864C11.9757 6.0568 11.9864 6.0907 11.9897 6.10093C11.9953 6.1183 12.0005 6.13319 12.0058 6.14738C12.0496 6.26361 12.1012 6.31328 12.177 6.27825C12.1584 6.28714 12.1394 6.29582 12.1199 6.30432C12.0668 6.29775 12.0264 6.24359 11.9923 6.153C11.9868 6.13855 11.9816 6.12344 11.9759 6.10587C11.9726 6.09556 11.9619 6.06159 11.9665 6.05405C12.2163 5.93997 12.4147 5.78897 12.5308 5.62346L12.5151 5.5271C12.5185 5.52209 12.5219 5.51706 12.5253 5.51202L12.5121 5.50896L12.5151 5.5271C12.2809 5.86568 11.7376 6.12391 11.1845 6.18182C10.6497 6.23782 10.2398 6.40336 9.84168 6.66905C9.82508 6.63769 9.80516 6.61921 9.75506 6.58257L9.75487 6.58243C9.7416 6.57273 9.73563 6.56829 9.72837 6.56262C9.52675 6.40582 9.43449 6.20841 9.44791 6.02569C9.45729 5.89801 9.5206 5.80274 9.59352 5.7932C9.60709 5.80081 9.62115 5.8076 9.63629 5.81375L9.64149 5.79948C9.62535 5.79306 9.60922 5.79114 9.59352 5.7932C9.58035 5.78581 9.56764 5.77764 9.55485 5.76853C9.5428 5.75994 9.51087 5.73488 9.50154 5.72757C9.50002 5.72637 9.4991 5.72565 9.49897 5.72555C9.42854 5.67075 9.2849 5.89308 9.30283 6.12785C9.31096 6.23414 9.39692 6.40576 9.48591 6.51065L9.47917 6.52326C9.33191 6.49512 9.26212 6.45472 9.17907 6.33579C9.22184 6.30783 9.27862 6.28883 9.33096 6.28292L9.33487 6.2925L9.33511 6.2921L9.34103 6.28194C9.33776 6.2822 9.33447 6.28252 9.33116 6.2829C9.3311 6.2829 9.33103 6.28291 9.33096 6.28292L9.32023 6.25663C9.30983 6.23075 9.30215 6.20801 9.29808 6.1862C9.29492 6.16928 9.29393 6.15293 9.29552 6.13611C9.29334 6.13609 9.29115 6.13609 9.28896 6.13612C9.21797 6.13715 9.13657 6.16449 9.06022 6.21168C9.04934 6.2003 9.03808 6.18868 9.02622 6.17659C9.0058 6.15577 8.95283 6.10305 8.91574 6.06613C8.89745 6.04792 8.88302 6.03355 8.87825 6.02875C8.73552 5.88492 8.6546 5.78377 8.59401 5.65852C8.51395 5.49278 8.50445 5.34181 8.56057 5.26301C8.59798 5.21049 8.65716 5.19962 8.72409 5.23094C8.7321 5.23859 8.73997 5.24611 8.74758 5.25337C8.76108 5.26627 8.77373 5.27836 8.78478 5.2889C8.69649 5.21379 8.61648 5.21004 8.57223 5.27217C8.52005 5.34544 8.52918 5.49051 8.607 5.6516C8.66667 5.77496 8.74669 5.87498 8.88834 6.01771C8.89307 6.02248 8.90743 6.03678 8.92566 6.05493C8.96276 6.09186 9.01586 6.14472 9.03636 6.16561C9.04827 6.17775 9.05957 6.18941 9.06127 6.19993C9.12892 6.15169 9.20993 6.1236 9.28815 6.12685C9.27051 5.88239 9.4228 5.64725 9.50756 5.7132C9.50773 5.71333 9.50884 5.7142 9.51065 5.71562C9.52057 5.7234 9.55146 5.74764 9.56303 5.75588C9.58812 5.77376 9.61282 5.78781 9.64155 5.7995L9.63634 5.81378C9.55661 5.78208 9.47319 5.8804 9.46243 6.02686C9.44941 6.20417 9.53932 6.39657 9.73705 6.55034C9.74416 6.55589 9.75005 6.56027 9.7632 6.56989L9.76339 6.57003C9.81528 6.60798 9.83637 6.62755 9.84404 6.65896C10.2337 6.38929 10.6458 6.22286 11.183 6.1666ZM9.33753 6.2976C9.28594 6.30258 9.229 6.32087 9.18853 6.33741C9.26705 6.437 9.33125 6.47679 9.46132 6.50412C9.41463 6.44542 9.3699 6.37053 9.33753 6.2976ZM8.79483 5.27782C8.77072 5.25726 8.74695 5.24164 8.72409 5.23094C8.66741 5.17682 8.6038 5.11618 8.58021 5.09465C8.50199 5.02326 8.44312 4.9779 8.38619 4.94745C8.37408 4.94097 8.36211 4.93522 8.3502 4.93016C8.18109 4.85824 8.00277 5.03854 8.08676 5.30268C8.17999 5.5962 8.29869 5.76451 8.57292 6.05431L8.59317 6.0757C8.85779 6.35524 8.9686 6.50776 9.05951 6.77211C9.12114 6.95155 9.18681 7.06909 9.26985 7.12969C9.36865 7.2018 9.49025 7.18879 9.64407 7.07619C9.66228 7.06287 9.67494 7.05375 9.69623 7.03848L9.69687 7.03802C9.71116 7.02774 9.7224 7.01953 9.73815 7.00783C9.85543 6.93667 9.9991 7.0554 10.0048 7.24828C10.0003 7.2611 9.99532 7.27447 9.98975 7.28845L10.0037 7.29201C10.0049 7.27706 10.0052 7.26247 10.0048 7.24828C10.0435 7.13697 10.0407 7.06655 10.005 6.98955C9.99821 6.975 9.99027 6.9599 9.97932 6.94043C9.97912 6.94008 9.9789 6.93968 9.97865 6.93924C9.97293 6.9291 9.95424 6.89599 9.9583 6.88946C9.93979 6.89981 9.92482 6.89149 9.91429 6.86963C9.90706 6.85463 9.9023 6.83668 9.89468 6.80049L9.89283 6.79167C9.88318 6.74572 9.87699 6.72634 9.86847 6.72039L9.86866 6.70753C10.0936 6.56071 10.3209 6.44959 10.5911 6.37682C10.6051 6.51333 10.6403 6.58284 10.7124 6.57017C10.7469 6.56214 10.7805 6.55491 10.8141 6.54836C10.8292 6.55568 10.8467 6.55767 10.867 6.55411C10.8167 6.5629 10.767 6.5731 10.7152 6.58518C10.6304 6.60007 10.5914 6.52304 10.5859 6.38498C10.3294 6.46292 10.1056 6.57178 9.88431 6.71534C9.89283 6.72693 9.89851 6.74773 9.90705 6.78838L9.9089 6.79719C9.91623 6.83203 9.92082 6.84932 9.92728 6.86273C9.93454 6.87779 9.94138 6.8816 9.96114 6.87882L9.99186 6.93265C10.003 6.95244 10.0111 6.96787 10.0181 6.98285C10.0599 7.07292 10.0586 7.15516 10.0032 7.29435L9.98921 7.29079C10.005 7.08379 9.85995 6.95159 9.746 7.02069C9.73075 7.03205 9.71946 7.04031 9.7051 7.05064L9.70446 7.0511C9.68317 7.06636 9.67056 7.07545 9.6524 7.08874C9.49398 7.2047 9.36588 7.2184 9.26154 7.14225C9.17535 7.07935 9.10839 6.95949 9.04582 6.7773C8.95582 6.51561 8.84607 6.36455 8.58284 6.08648L8.56259 6.06509C8.2869 5.77375 8.16706 5.60381 8.07294 5.30752C7.98505 5.03111 8.17493 4.83913 8.35566 4.91599C8.36797 4.92121 8.38032 4.92715 8.3928 4.93382C8.451 4.96496 8.51073 5.01098 8.58976 5.08311C8.61683 5.10781 8.69616 5.18359 8.75759 5.24227C8.77112 5.25519 8.78378 5.26729 8.79483 5.27782ZM10.8646 6.53902L10.867 6.55411L10.8646 6.53902C10.8646 6.53902 10.8646 6.53902 10.8646 6.53902ZM10.8646 6.53902C10.7932 6.55156 10.7591 6.47813 10.7447 6.33536C10.8817 6.30921 11.0323 6.28483 11.1919 6.27113C11.3849 6.25451 11.5821 6.21331 11.7655 6.15078C11.8035 6.31851 11.8607 6.41693 11.9446 6.38745C12.0319 6.35812 12.1108 6.32678 12.1826 6.29234C12.1843 6.29155 12.1861 6.29072 12.1878 6.28986L12.1816 6.27601C12.1801 6.27676 12.1785 6.27751 12.177 6.27825C12.1785 6.27755 12.18 6.27682 12.1815 6.27605L12.1877 6.2899C12.186 6.29072 12.1843 6.29153 12.1826 6.29234C12.1599 6.30287 12.1391 6.30669 12.1199 6.30432C12.0642 6.32855 12.0045 6.35127 11.9401 6.37292C11.869 6.39789 11.8149 6.30479 11.7703 6.1414C11.5787 6.1984 11.3826 6.23937 11.1907 6.25589C11.0305 6.26965 10.8791 6.29414 10.7358 6.32872C10.7432 6.44973 10.7665 6.52537 10.8141 6.54836C10.8309 6.54508 10.8477 6.54198 10.8646 6.53902ZM8.79483 5.27782C8.80689 5.28811 8.81904 5.29964 8.83121 5.31241L8.82121 5.32352C8.81435 5.31708 8.80137 5.30473 8.78478 5.2889C8.7967 5.29904 8.80876 5.31048 8.82091 5.32323L8.83091 5.31212C8.82412 5.30575 8.81127 5.29351 8.79483 5.27782Z" fill="black"/>
<path fill-rule="evenodd" clip-rule="evenodd" d="M13.746 8.90432C13.65 9.3136 13.7629 9.77528 14.0221 10.023L14.0219 10.0344C13.6639 10.3577 13.2858 10.6108 12.8868 10.8144C12.7695 10.8743 12.6695 10.9414 12.5603 11.029C12.5332 11.0508 12.5064 11.073 12.4717 11.1023C12.4749 11.0997 12.4058 11.1583 12.3867 11.1743C12.3014 11.2458 12.2379 11.2939 12.1694 11.3361C12.5656 11.4066 13.0163 11.7907 13.318 12.2938C13.675 12.8888 14.0302 13.1808 14.6081 13.4833C14.9293 13.6516 14.9127 13.869 14.6543 14.1906C14.4822 14.4048 14.4138 14.5778 14.314 14.9642C14.2053 15.3851 14.1296 15.5717 13.9284 15.8101C13.7443 16.0282 13.4912 15.9516 13.464 15.7488C13.4544 15.6763 13.46 15.5942 13.4799 15.48C13.4888 15.4287 13.5253 15.2532 13.5433 15.1665L13.5532 15.1185C13.5556 15.1064 13.5577 15.0946 13.5594 15.0828C13.5591 15.0992 13.5613 15.1145 13.566 15.1288L13.5574 15.1701C13.5394 15.2571 13.5031 15.4318 13.4942 15.4827C13.4745 15.5955 13.469 15.6761 13.4784 15.7467C13.5038 15.9364 13.7416 16.0083 13.9175 15.7999C14.1168 15.5638 14.1918 15.379 14.3 14.9602C14.4003 14.5718 14.4694 14.3971 14.6432 14.1807C14.8964 13.8656 14.9121 13.6597 14.6016 13.497C14.0215 13.1933 13.6643 12.8997 13.3057 12.3019C13.0008 11.7936 12.5431 11.4078 12.1468 11.3479L12.1443 11.3336C12.219 11.2893 12.2855 11.2396 12.3777 11.1623C12.3967 11.1464 12.4657 11.0878 12.4626 11.0904C12.4973 11.061 12.5243 11.0387 12.5514 11.0169C12.6614 10.9287 12.7622 10.861 12.8804 10.8007C13.2761 10.5987 13.6511 10.3481 14.0062 10.0284L14.0123 10.0343L14.0124 10.0228L14.0062 10.0284C13.7472 9.77543 13.6354 9.31202 13.7334 8.90744C13.5442 8.67348 13.0717 8.57678 12.7081 8.67473C12.3584 8.93432 12.0672 9.26683 11.7908 9.69126C11.7148 9.80813 11.5609 10.0759 11.4111 10.3365L11.4111 10.3365C11.2555 10.6073 11.1043 10.8703 11.0494 10.9485C11.0321 10.9731 11.0151 10.9962 10.9984 11.0179C10.8313 11.2339 10.8273 11.6657 11.0738 11.8706C11.0853 11.8801 11.0964 11.8898 11.1073 11.8997C11.1406 11.9298 11.1709 11.961 11.2065 12.001L11.2485 12.0493L11.2485 12.0493L11.2485 12.0494C11.2766 12.0817 11.3103 12.1206 11.3257 12.1378C11.3791 12.1977 11.4324 12.2529 11.4962 12.3131C11.6608 12.4686 11.8836 12.6456 12.1996 12.8652C12.3604 12.9769 12.8661 13.3108 12.8635 13.3091C13.087 13.4599 13.2137 13.5581 13.2839 13.6418C13.5096 13.9105 13.5919 14.0664 13.5641 14.2726C13.5525 14.358 13.5491 14.4337 13.5524 14.5286L13.5455 14.5273L13.5381 14.5342C13.5344 14.4361 13.5378 14.3584 13.5496 14.2705C13.5767 14.0703 13.4959 13.9174 13.2729 13.6519C13.204 13.5697 13.078 13.472 12.8557 13.322C12.8583 13.3238 12.3525 12.9897 12.1916 12.8779C11.875 12.658 11.6517 12.4805 11.4865 12.3245C11.4224 12.2639 11.3688 12.2084 11.3151 12.1483C11.2996 12.1309 11.2656 12.0918 11.2376 12.0594L11.1958 12.0115C11.1606 11.9718 11.1307 11.941 11.0978 11.9112C11.0871 11.9015 11.0761 11.892 11.0647 11.8826C10.8112 11.6718 10.8153 11.2304 10.987 11.0083C11.0037 10.9867 11.0205 10.9638 11.0377 10.9394C11.0922 10.8619 11.2427 10.6 11.3979 10.3299L11.3979 10.3299L11.3979 10.3299L11.3979 10.3299L11.3979 10.3299L11.3979 10.3299L11.3979 10.3299C11.5479 10.0688 11.7024 9.8001 11.7788 9.68264C12.056 9.25682 12.3484 8.923 12.7021 8.66108C13.073 8.56064 13.5512 8.65851 13.746 8.90432ZM13.5388 14.5527L13.5381 14.5342L13.5369 14.5353C13.5373 14.5413 13.538 14.5471 13.5388 14.5527ZM13.5563 14.6062C13.5478 14.5901 13.5419 14.5723 13.5388 14.5527C13.5412 14.6057 13.5455 14.6648 13.5515 14.7345L13.5525 14.7461L13.5501 14.748C13.5514 14.7622 13.5534 14.7756 13.556 14.7884C13.5673 14.9279 13.5697 15.0001 13.5615 15.0675L13.5605 15.0681C13.5599 15.0731 13.5595 15.078 13.5594 15.0828L13.5615 15.0675L13.5709 15.0621L13.5765 15.065C13.5759 15.0704 13.5752 15.0757 13.5744 15.081L13.5741 15.0808C13.5742 15.0772 13.5745 15.0736 13.5749 15.0699L13.5645 15.0758L13.5741 15.0808C13.574 15.0819 13.574 15.0829 13.574 15.084C13.5722 15.0964 13.57 15.1089 13.5675 15.1217L13.566 15.1288C13.5969 15.2235 13.7326 15.2711 13.8951 15.2461L13.8972 15.2317L13.5765 15.065C13.5831 15.0079 13.5822 14.9468 13.575 14.8455C13.6272 14.9521 13.7629 14.9861 14.0488 14.9611L14.0509 14.9464L13.5668 14.743L13.566 14.7331C13.562 14.6865 13.5587 14.6446 13.5563 14.6062ZM13.5533 14.5509C13.5541 14.5686 13.5551 14.587 13.5563 14.6062C13.6197 14.7251 13.83 14.7474 14.1312 14.6545L14.1304 14.6397L13.5524 14.5286L13.5531 14.5443L13.5524 14.5441L13.5514 14.5342L13.5428 14.5423L13.5524 14.5441L13.5533 14.5509ZM14.0971 14.6488C13.7802 14.7403 13.5773 14.6976 13.5533 14.5509L13.5531 14.5443L14.0971 14.6488ZM14.0971 14.6488L14.1271 14.6399L14.1278 14.6547L14.0971 14.6488ZM13.5683 14.7601L13.5668 14.743L13.56 14.7402L13.5525 14.7461L13.556 14.7884C13.5604 14.8093 13.5666 14.8283 13.575 14.8455C13.5737 14.827 13.5722 14.8072 13.5704 14.7858C13.5995 14.9228 13.7151 14.971 14.0164 14.9484L14.0454 14.9606L14.0476 14.9459L14.0164 14.9484L13.5683 14.7601ZM13.5659 14.7591C13.5671 14.7684 13.5686 14.7773 13.5704 14.7858L13.5683 14.7601L13.5659 14.7591ZM13.5659 14.7591L13.5646 14.7465L13.5546 14.7544L13.5659 14.7591ZM13.8691 15.2341L13.5744 15.081C13.5743 15.082 13.5741 15.083 13.574 15.084C13.5726 15.1909 13.7017 15.2527 13.8691 15.2341ZM13.8691 15.2341L13.8908 15.2454L13.893 15.231C13.8849 15.2322 13.877 15.2332 13.8691 15.2341Z" fill="black"/>
<path fill-rule="evenodd" clip-rule="evenodd" d="M13.2617 9.73357C13.4754 9.6179 13.5642 9.5609 13.719 9.42383L13.7309 9.42827C13.733 9.44022 13.7362 9.45586 13.7395 9.47217C13.7443 9.4958 13.7493 9.52084 13.7519 9.53813C13.6137 9.65498 13.5333 9.70543 13.334 9.81329L13.293 9.83567C13.0839 9.9509 12.9426 10.0641 12.7362 10.3072C12.4783 10.6108 12.09 10.9589 11.8612 11.0939L11.7969 11.0157C12.0155 10.8805 12.4027 10.5334 12.6595 10.2309C12.8672 9.98636 13.0099 9.87202 13.2207 9.75593L13.2617 9.73357ZM13.7166 9.43107L13.7284 9.43552C13.7252 9.43833 13.7221 9.44112 13.7189 9.44387C13.7181 9.4393 13.7173 9.435 13.7166 9.43107ZM13.7189 9.44387C13.5689 9.57587 13.4786 9.63338 13.2683 9.74716L13.2274 9.76946C13.0182 9.88474 12.8769 9.99795 12.6704 10.2411C12.4126 10.5447 12.0243 10.8928 11.8056 11.0168L11.8626 11.0818C12.0812 10.9466 12.4684 10.5995 12.7253 10.297C12.9329 10.0525 13.0756 9.93819 13.2862 9.82213L13.3273 9.7997C13.5258 9.69228 13.6056 9.64226 13.7405 9.53463C13.7344 9.51581 13.7248 9.47411 13.7189 9.44387Z" fill="black"/>
<path fill-rule="evenodd" clip-rule="evenodd" d="M12.5969 11.8964L12.6058 11.8843C12.6662 11.9311 12.7235 11.9799 12.7774 12.0309L12.768 12.0425L12.5969 11.8964ZM12.5972 11.8966C12.6572 11.9431 12.7141 11.9916 12.7677 12.0423L12.7771 12.0307L12.6061 11.8845L12.5972 11.8966ZM13.5605 13.0071C13.5607 13.0073 13.5609 13.0075 13.5611 13.0077L13.5723 12.996L13.5721 12.9957C13.5722 12.9958 13.5723 12.996 13.5725 12.9961L13.5612 13.0078L13.5605 13.0071ZM13.4396 12.8798L13.5605 13.0071C13.521 12.9678 13.481 12.9256 13.4396 12.8798ZM13.4391 12.8793C13.4393 12.8794 13.4394 12.8796 13.4396 12.8798L13.4391 12.8793L13.4391 12.8793ZM13.4507 12.8679L13.4391 12.8793C13.4391 12.8792 13.439 12.8792 13.439 12.8791L13.4505 12.8677L13.4507 12.8679ZM13.4511 12.8683L13.5721 12.9957C13.5326 12.9564 13.4925 12.9142 13.4511 12.8683ZM13.4511 12.8683L13.4507 12.8679L13.4507 12.8678C13.4508 12.868 13.451 12.8681 13.4511 12.8683Z" fill="black"/>
<path fill-rule="evenodd" clip-rule="evenodd" d="M11.8748 11.6731L11.8707 11.6596C11.8766 11.6601 11.8824 11.6607 11.8883 11.6613L11.8748 11.6731ZM12.7256 11.631C12.7378 11.6605 12.7356 11.6942 12.721 11.7314C12.7076 11.7653 12.685 11.8003 12.6524 11.8412C12.6403 11.8564 12.6283 11.8706 12.5972 11.8968C12.3779 11.7265 12.1542 11.6217 11.9598 11.599L11.8883 11.6613C12.2846 11.7049 12.7692 12.0698 13.0935 12.5439C13.407 13.0021 13.7484 13.2918 14.1669 13.5212C14.1493 13.5521 14.144 13.5795 14.1389 13.6437L14.1387 13.6453C14.1375 13.6605 14.1368 13.6685 14.1358 13.6775C14.1073 13.9393 13.9906 14.1218 13.8331 14.201C13.7232 14.2562 13.6131 14.2464 13.5687 14.185C13.5682 14.1691 13.5667 14.1532 13.5641 14.1357L13.5497 14.1381C13.5525 14.156 13.559 14.1717 13.5687 14.185C13.5695 14.2114 13.5676 14.238 13.5636 14.2728C13.5616 14.2892 13.5608 14.2966 13.56 14.3047C13.55 14.3961 13.8052 14.4155 13.9899 14.2819C14.0734 14.2213 14.1719 14.0576 14.2142 13.924L14.2279 13.9239C14.2782 14.0717 14.2798 14.1554 14.2234 14.2904C14.179 14.2656 14.135 14.2235 14.1037 14.1788C14.1066 14.1748 14.1088 14.1717 14.1097 14.1705L14.1091 14.1705L14.0979 14.1702C14.0997 14.173 14.1016 14.1758 14.1036 14.1786C14.1036 14.1787 14.1037 14.1787 14.1037 14.1788C14.103 14.1799 14.1021 14.181 14.1013 14.1822C14.0945 14.1917 14.0857 14.2041 14.0819 14.2092C14.0701 14.2252 14.0591 14.2386 14.047 14.2514C14.0403 14.2585 14.0334 14.2653 14.0263 14.2709C14.0178 14.2777 14.009 14.2827 14.0004 14.2844C14.0014 14.2864 14.0025 14.2884 14.0036 14.2903C14.0399 14.3544 14.1032 14.4147 14.1804 14.4605C14.1672 14.5126 14.1642 14.5256 14.1353 14.6529C14.0772 14.9088 14.0378 15.0311 13.9571 15.161C13.8605 15.3166 13.7408 15.4007 13.6477 15.3891C13.5856 15.3814 13.547 15.3329 13.5394 15.2562C13.5461 15.2241 13.5523 15.1942 13.5572 15.1707C13.5388 15.2895 13.5757 15.3647 13.6494 15.3739C13.7359 15.3848 13.851 15.3039 13.9449 15.1526C14.0244 15.0246 14.0634 14.9036 14.1211 14.6494C14.15 14.5219 14.153 14.5088 14.1701 14.4654C14.0965 14.428 14.0328 14.3685 13.9964 14.2957C13.8036 14.434 13.5335 14.4131 13.5456 14.3031C13.5463 14.2949 13.5472 14.2873 13.5491 14.271C13.5554 14.2164 13.5563 14.1829 13.5497 14.138L13.5641 14.1356C13.5778 14.2239 13.7006 14.2506 13.8268 14.1872C13.9796 14.1104 14.0934 13.9324 14.1213 13.6758C14.1223 13.6669 14.123 13.6591 14.1242 13.6441L14.1243 13.6424C14.1297 13.576 14.1352 13.5469 14.1574 13.5241C13.7399 13.3045 13.3966 13.0131 13.0817 12.5528C12.7548 12.075 12.2641 11.7089 11.8695 11.6749L11.8655 11.6614L11.9559 11.5855C12.1586 11.6067 12.3846 11.7127 12.5961 11.8855C12.6175 11.8604 12.6293 11.8464 12.6413 11.8313C12.6729 11.7916 12.6948 11.7577 12.7075 11.7255C12.729 11.6709 12.7211 11.6271 12.6764 11.5929C12.6927 11.6051 12.7091 11.6178 12.7256 11.631ZM13.5811 12.6975C13.5859 12.7522 13.5353 12.8111 13.439 12.8784C13.3391 12.7657 13.2432 12.6403 13.1515 12.5012C13.0421 12.3351 12.9103 12.1773 12.7673 12.0315C12.8799 11.909 12.9295 11.8134 12.8733 11.7612C12.8229 11.7131 12.7739 11.6697 12.7256 11.631C12.718 11.6124 12.7045 11.5955 12.6849 11.5805C12.7494 11.6286 12.815 11.6849 12.8831 11.7498C12.9493 11.8115 12.8969 11.9125 12.7774 12.0311C12.9209 12.1667 13.0534 12.3254 13.1635 12.4925C13.2548 12.631 13.3502 12.7558 13.4401 12.8671C13.5508 12.7823 13.5942 12.7148 13.548 12.6561C13.559 12.6701 13.57 12.6838 13.5811 12.6975ZM13.5592 12.6463L13.548 12.6561C13.548 12.6561 13.548 12.6561 13.548 12.6561L13.5592 12.6463ZM14.1835 13.4593C13.9546 13.3299 13.753 13.1808 13.5604 12.9865C13.6715 12.9128 13.7157 12.8386 13.6608 12.7689C13.6258 12.7289 13.5924 12.6886 13.5592 12.6464L13.5592 12.6463C13.5724 12.663 13.5795 12.68 13.5811 12.6975C13.6036 12.7252 13.6264 12.7522 13.6499 12.779C13.6965 12.8382 13.6567 12.9052 13.5511 12.9858C13.7463 13.1953 13.9515 13.3464 14.185 13.4775L14.1957 13.4713C14.1964 13.4599 14.2088 13.4457 14.2479 13.4082L14.2545 13.4017C14.2772 13.3797 14.2898 13.3657 14.2976 13.3522C14.3087 13.3329 14.3073 13.3161 14.2904 13.305C14.2952 13.3096 14.3165 13.2705 14.3257 13.2535C14.3266 13.2518 14.3275 13.2502 14.3281 13.249C14.3829 13.1496 14.4362 13.1062 14.5632 13.0832C14.4068 13.1848 14.3807 13.3749 14.4981 13.446C14.5152 13.4543 14.527 13.4601 14.5433 13.4683L14.5439 13.4686C14.577 13.4852 14.5805 13.487 14.6015 13.4973C14.7713 13.5809 14.8428 13.685 14.8327 13.8109C14.8242 13.9167 14.7601 14.0351 14.643 14.181C14.4692 14.3973 14.4001 14.572 14.2998 14.9604C14.1916 15.3792 14.1166 15.564 13.9173 15.8001C13.7414 16.0086 13.5036 15.9366 13.4782 15.7469C13.4688 15.6763 13.4743 15.5957 13.494 15.483C13.5005 15.4459 13.5215 15.343 13.5394 15.2562C13.5368 15.2297 13.5379 15.1998 13.543 15.167C13.5431 15.1669 13.5431 15.1668 13.5431 15.1667C13.5484 15.1414 13.552 15.1237 13.553 15.1188L13.5672 15.1223C13.5629 15.1391 13.5596 15.1553 13.5572 15.1707C13.5572 15.1706 13.5572 15.1705 13.5572 15.1704C13.5626 15.1448 13.5663 15.1269 13.5673 15.1219L13.5531 15.1183C13.5488 15.1352 13.5455 15.1514 13.543 15.167C13.525 15.2539 13.4886 15.429 13.4797 15.4802C13.4598 15.5945 13.4542 15.6765 13.4638 15.749C13.491 15.9518 13.7441 16.0284 13.9282 15.8103C14.1294 15.5719 14.2051 15.3853 14.3138 14.9644C14.4136 14.578 14.482 14.405 14.6541 14.1908C14.7731 14.0427 14.8384 13.922 14.8472 13.8122C14.8579 13.6792 14.7826 13.5695 14.6077 13.4834C14.5867 13.4731 14.5833 13.4714 14.5502 13.4548L14.5496 13.4545C14.5332 13.4463 14.5214 13.4404 14.5048 13.4324C14.3908 13.3634 14.4273 13.1654 14.6059 13.0762L14.6018 13.0617C14.4405 13.0835 14.378 13.1279 14.3155 13.2414C14.3103 13.2509 14.2952 13.2794 14.2865 13.2959C14.2833 13.3019 14.2809 13.3064 14.2802 13.3078C14.2919 13.324 14.2925 13.3315 14.2851 13.3443C14.2783 13.3562 14.2663 13.3695 14.2447 13.3905L14.238 13.3969C14.2033 13.4302 14.1887 13.4456 14.1835 13.4593ZM14.5632 13.0832C14.5746 13.0758 14.5868 13.0688 14.5996 13.0624L14.6037 13.0769C14.5894 13.0788 14.5759 13.0809 14.5632 13.0832ZM12.6849 11.5805C12.6836 11.5796 12.6824 11.5786 12.6811 11.5777L12.6728 11.5902C12.674 11.5911 12.6752 11.592 12.6764 11.5929C12.6752 11.592 12.674 11.5911 12.6727 11.5902L12.6811 11.5776C12.6824 11.5786 12.6836 11.5795 12.6849 11.5805ZM14.1125 14.1655C14.1427 14.21 14.1861 14.2526 14.22 14.281C14.2627 14.1598 14.2634 14.0814 14.2211 13.9496C14.1959 14.0215 14.1565 14.0996 14.1125 14.1655Z" fill="black"/>
<path fill-rule="evenodd" clip-rule="evenodd" d="M14.624 12.873L14.509 12.7271L14.4963 12.7302L14.4544 12.9205L14.2736 12.9188L14.2681 12.9312L14.3846 13.0843L14.271 13.2305L14.2767 13.2428L14.4637 13.244L14.5009 13.4283L14.5136 13.4313L14.6309 13.2786L14.7932 13.362L14.8033 13.3533L14.7608 13.1627L14.9247 13.0822L14.9246 13.0685L14.7559 12.9828L14.7996 12.7994L14.7893 12.7908L14.624 12.873ZM14.7822 12.8113L14.6251 12.8894L14.6164 12.8874L14.5068 12.7483L14.5105 12.7336L14.4978 12.7368L14.5068 12.7483L14.4616 12.9299L14.2881 12.9337L14.2794 12.9216L14.2739 12.9341L14.2881 12.9337L14.396 13.0842L14.2912 13.228L14.2768 13.2275L14.2826 13.2398L14.2912 13.228L14.4708 13.2346L14.5116 13.4102L14.5023 13.4217L14.515 13.4247L14.5116 13.4102L14.6283 13.2669L14.7862 13.3419L14.7891 13.3568L14.7992 13.3481L14.7862 13.3419L14.7505 13.1576L14.9055 13.0753L14.9182 13.0823L14.9181 13.0686L14.9055 13.0753L14.7456 12.988L14.7822 12.8113ZM14.7822 12.8113L14.7956 12.8046L14.7853 12.7961L14.7822 12.8113Z" fill="black"/>
<path fill-rule="evenodd" clip-rule="evenodd" d="M14.0586 8.85343C14.4441 8.73597 14.7686 8.40242 14.8432 8.04312L14.8527 8.03753C15.2986 8.20152 15.6967 8.41887 16.0638 8.67964C16.2161 8.78781 16.307 8.83125 16.5742 8.93949C16.7015 8.99106 16.7764 9.02542 16.8526 9.07103C16.7128 8.67543 16.8042 8.07359 17.0683 7.54772C17.3806 6.92571 17.4438 6.45704 17.4045 5.78001C17.3826 5.40363 17.5701 5.31012 17.9647 5.38425C18.2221 5.43266 18.4058 5.40871 18.7528 5.31247L18.7798 5.30499C19.1733 5.19562 19.3681 5.17128 19.6635 5.23469C19.9354 5.29297 19.9987 5.5616 19.845 5.68747C19.7867 5.73521 19.7117 5.77245 19.5958 5.81467C19.5593 5.82796 19.4467 5.86571 19.3653 5.89301L19.3653 5.89302C19.3254 5.90639 19.2931 5.91724 19.2808 5.92149L19.2686 5.92588C19.2806 5.91821 19.2908 5.90923 19.2994 5.89911L19.3611 5.87836L19.3612 5.87835C19.4425 5.85107 19.5547 5.81344 19.591 5.80022C19.7055 5.75851 19.7793 5.7219 19.836 5.67541C19.9799 5.55764 19.9204 5.30537 19.6606 5.24967C19.368 5.18686 19.175 5.21096 18.7835 5.31977L18.7566 5.32725C18.4076 5.42402 18.2221 5.4482 17.9621 5.39931C17.5755 5.32666 17.3979 5.41524 17.419 5.77908C17.4585 6.45866 17.3949 6.92996 17.0811 7.55486C16.8143 8.08621 16.725 8.69537 16.8736 9.0857L16.8631 9.09512C16.7813 9.04439 16.7055 9.00907 16.5689 8.95376C16.3007 8.8451 16.2091 8.80133 16.0556 8.6923C15.6917 8.43375 15.2972 8.218 14.8556 8.05481L14.8574 8.04637L14.8479 8.05196L14.8556 8.05481C14.7766 8.41662 14.4501 8.75004 14.0675 8.86335C13.969 9.15227 14.1255 9.63004 14.3881 9.91193C14.53 9.9806 14.6775 10.0377 14.831 10.0842C15.3041 10.2276 15.6916 10.2589 16.4614 10.2608C16.8566 10.2617 17.0109 10.2673 17.1757 10.2949C17.4374 10.3387 17.7956 10.1265 17.8413 9.80009C17.8489 9.74589 17.8597 9.69622 17.8754 9.63936C17.8852 9.6042 17.928 9.46412 17.9239 9.47788C17.9457 9.40524 17.9627 9.34171 17.9793 9.26836C18.0334 9.02974 18.073 8.7216 18.0987 8.27902C18.1086 8.10841 18.1113 8.04083 18.1242 7.67659C18.1404 7.2204 18.1554 7.03507 18.1972 6.90481C18.3063 6.56495 18.3935 6.41236 18.5774 6.33466C18.6511 6.30352 18.7194 6.26612 18.7944 6.21711L18.7968 6.2242L18.8061 6.22742C18.7289 6.27818 18.6588 6.31677 18.5829 6.34884C18.4043 6.42427 18.3188 6.57395 18.211 6.9097C18.1698 7.0379 18.1549 7.22293 18.1388 7.67716C18.1259 8.04154 18.1232 8.10917 18.1133 8.27995C18.0875 8.72335 18.0478 9.03235 17.9935 9.2719C17.9768 9.34563 17.9597 9.4095 17.9378 9.48247C17.9419 9.46891 17.8991 9.60871 17.8894 9.64364C17.8738 9.69986 17.8632 9.74886 17.8557 9.80231C17.8087 10.138 17.4425 10.355 17.1734 10.31C17.0096 10.2826 16.8558 10.277 16.4614 10.2761C15.6902 10.2742 15.3018 10.2428 14.827 10.0989C14.6727 10.0521 14.5246 9.99482 14.3799 9.92423C14.1115 9.63694 13.9532 9.15339 14.0586 8.85343ZM18.8211 6.2175L18.8061 6.22742L18.8077 6.22796C18.8124 6.22462 18.8169 6.22113 18.8211 6.2175ZM18.8563 6.17509C18.8474 6.19082 18.8356 6.20501 18.8211 6.2175C18.8453 6.20128 18.8703 6.18386 18.8964 6.16506C18.9111 6.1545 18.9435 6.13072 18.9738 6.10842L18.9766 6.10967C18.9876 6.10134 18.9978 6.09279 19.007 6.08397L19.0375 6.06159C19.0903 6.02332 19.1309 5.99603 19.1703 5.97326C19.1935 5.95987 19.2157 5.94838 19.2374 5.93868L19.2402 5.94022C19.2505 5.93615 19.26 5.93135 19.2686 5.92588C19.2583 5.92973 19.2479 5.934 19.2374 5.93868L19.2286 5.93368L19.2281 5.92626C19.2334 5.92383 19.2387 5.9215 19.244 5.91928L19.2442 5.92144C19.2407 5.92312 19.2371 5.92469 19.2334 5.92615L19.245 5.9327L19.2442 5.92144C19.2492 5.91901 19.254 5.91635 19.2584 5.91348C19.2644 5.91117 19.2703 5.909 19.2762 5.90696L19.2994 5.89911C19.3643 5.82206 19.3304 5.67882 19.2168 5.5468L19.2019 5.55202L19.2281 5.92626C19.207 5.93582 19.1856 5.94699 19.1633 5.95986C19.1274 5.98063 19.0905 6.00503 19.0447 6.03782C19.1061 5.93702 19.0662 5.79674 18.903 5.54963L18.8899 5.55507L18.9641 6.09687C18.9342 6.11888 18.9026 6.14208 18.8882 6.15245L18.8563 6.17509ZM18.8123 6.20522C18.8267 6.19562 18.8413 6.18558 18.8563 6.17509C18.923 6.05804 18.8363 5.85559 18.6088 5.62796L18.597 5.63606L18.7944 6.21711L18.807 6.20878L18.8072 6.20949L18.7995 6.2153L18.8105 6.21906L18.8072 6.20949L18.8123 6.20522ZM18.6212 5.66181C18.8551 5.90425 18.9214 6.11013 18.8123 6.20522L18.807 6.20878L18.6212 5.66181ZM18.6212 5.66181L18.5988 5.63903L18.6107 5.63092L18.6212 5.66181ZM18.9774 6.08703L18.9641 6.09687L18.9651 6.10455L18.9738 6.10842L18.99 6.09644L18.99 6.09642L19.007 6.08397C19.0222 6.06943 19.0348 6.05414 19.0447 6.03782L19.0292 6.049L18.9977 6.07216C19.0959 5.97712 19.0779 5.84791 18.9087 5.58537L18.9043 5.55289L18.8911 5.55834L18.9087 5.58537L18.9774 6.08703ZM18.9778 6.08968C18.9849 6.08396 18.9915 6.07813 18.9977 6.07216L18.9816 6.08398L18.9774 6.08703L18.9778 6.08968ZM18.9778 6.08968L18.9681 6.09725L18.9795 6.10237L18.9778 6.08968ZM19.2201 5.57639L19.244 5.91928C19.2489 5.91726 19.2537 5.91532 19.2584 5.91348C19.3475 5.85627 19.329 5.71386 19.2201 5.57639ZM19.2201 5.57639L19.2183 5.55105L19.2035 5.55627C19.2092 5.56296 19.2148 5.56967 19.2201 5.57639Z" fill="black"/>
<path fill-rule="evenodd" clip-rule="evenodd" d="M14.6097 8.6626C14.575 8.64728 14.5387 8.6324 14.5003 8.61787L14.498 8.60486C14.5074 8.59647 14.5192 8.58529 14.5314 8.57378C14.5482 8.55797 14.5656 8.54153 14.5782 8.53076C14.5973 8.5385 14.6158 8.54634 14.6339 8.5543C14.7749 8.61628 14.8365 8.65361 15.023 8.77923C15.2467 8.92986 15.4013 9.00041 15.7205 9.06998C16.1 9.15279 16.5813 9.33175 16.8067 9.47206L16.7745 9.56975C16.5536 9.43855 16.0737 9.26011 15.6958 9.17779C15.3748 9.10781 15.2186 9.03651 14.9934 8.88488C14.8087 8.76045 14.7481 8.72373 14.6097 8.6626ZM14.5075 8.61649L14.5052 8.60348C14.5091 8.60496 14.513 8.60644 14.5169 8.60793C14.5136 8.61099 14.5104 8.61387 14.5075 8.61649ZM14.5811 8.54291C14.5686 8.5579 14.5393 8.58718 14.5169 8.60793C14.5512 8.62114 14.5839 8.63464 14.6153 8.6485C14.7548 8.71008 14.8159 8.74712 15.0013 8.87201C15.225 9.02268 15.3796 9.09324 15.6988 9.16282C16.0781 9.24544 16.5593 9.42441 16.771 9.56128L16.7961 9.4769C16.5756 9.3459 16.0956 9.16745 15.7175 9.08495C15.3965 9.01498 15.2403 8.94368 15.0152 8.7921C14.8293 8.66694 14.7682 8.62994 14.6283 8.5684C14.6273 8.56797 14.6263 8.56754 14.6253 8.5671C14.6083 8.55964 14.5913 8.55217 14.5811 8.54291Z" fill="black"/>
<path fill-rule="evenodd" clip-rule="evenodd" d="M17.4917 7.14561C17.5105 7.08932 17.5266 7.03618 17.5404 6.98484L17.5243 6.98096L17.5243 6.98117L17.5243 6.98117C17.5242 6.98121 17.5242 6.98125 17.5242 6.98129L17.4758 7.14098C17.4757 7.14103 17.4757 7.14108 17.4757 7.14113L17.4757 7.14114L17.4757 7.14132L17.4917 7.14561ZM17.4757 7.14114L17.4917 7.14543L17.5404 6.98506L17.5243 6.98117L17.5242 6.98129C17.5105 7.03226 17.4944 7.08505 17.4758 7.14098L17.4757 7.14114ZM15.0002 8.27959C14.9412 8.25663 14.8745 8.22228 14.8097 8.18226L14.8065 8.17326L14.8146 8.14738L14.8146 8.14738C14.8259 8.11051 14.839 8.06829 14.8527 8.03781C15.2986 8.2018 15.6967 8.41915 16.0638 8.67992C16.2161 8.78809 16.307 8.83153 16.5741 8.93977C16.7114 8.99537 16.7878 9.03096 16.8731 9.09271L16.7817 9.24012C16.6677 9.17001 16.3861 9.04378 16.1772 8.96374C16.1764 8.98536 16.1669 9.01015 16.1493 9.04243C16.1453 9.04977 16.141 9.05719 16.1351 9.06728C16.1077 9.11427 16.1023 9.12434 16.0975 9.14074C16.0918 9.16032 16.0959 9.1705 16.1134 9.17592L16.1093 9.19062L16.1092 9.19058L16.1132 9.17589L16.0823 9.16677C16.0797 9.15827 16.0802 9.14801 16.0836 9.13626C16.089 9.11801 16.0944 9.10791 16.1227 9.05929C16.1285 9.04932 16.1327 9.04201 16.1366 9.03483C16.1561 8.99915 16.1647 8.97379 16.1623 8.95363L16.172 8.94548C16.3826 9.02556 16.6722 9.15508 16.7791 9.22964L16.8631 9.0954C16.7812 9.04467 16.7054 9.00935 16.5689 8.95404C16.3007 8.84538 16.2091 8.80161 16.0556 8.69258C15.6895 8.43252 15.2926 8.21577 14.8573 8.04683C14.85 8.07832 14.835 8.13119 14.8222 8.1722L14.8171 8.16908L14.8203 8.17808L14.8222 8.1722C14.8846 8.21046 14.9488 8.24347 15.0097 8.27459C15.0075 8.28239 15.0048 8.2903 15.0016 8.29833C14.9832 8.3444 14.9514 8.3901 14.8988 8.45244L14.8734 8.48209L14.8431 8.51758C14.8235 8.54085 14.8103 8.55813 14.8008 8.57324C14.7792 8.60751 14.7791 8.62649 14.8018 8.63807C14.8244 8.64996 14.8845 8.68803 14.9497 8.73072C14.9499 8.74263 14.9548 8.75207 14.9651 8.75889L14.9728 8.74595L14.9729 8.74596L14.9651 8.7589C14.892 8.71066 14.8199 8.66471 14.7953 8.65178C14.7627 8.63513 14.7629 8.60572 14.7886 8.56481C14.7986 8.54898 14.8122 8.53123 14.8322 8.50747L14.8627 8.47173L14.8879 8.4423C14.9396 8.38114 14.9706 8.33651 14.9882 8.29242L14.9887 8.29125C14.9915 8.28415 14.9941 8.27762 15.0002 8.27959ZM14.9728 8.74595L14.9497 8.73072C14.9494 8.71505 14.9574 8.69511 14.9724 8.67126C14.9915 8.64058 15.0182 8.60763 15.0691 8.54949L15.0756 8.54203C15.1696 8.43472 15.1982 8.39687 15.1975 8.37125L15.2071 8.36376C15.3246 8.40458 15.4344 8.46358 15.5769 8.55582L15.582 8.55919L15.582 8.55919L15.582 8.55919L15.582 8.5592L15.582 8.5592L15.5821 8.55922C15.6108 8.57819 15.7508 8.67059 15.7907 8.69511C15.8657 8.74122 15.9242 8.77013 15.9825 8.79473C15.9761 8.82023 15.9642 8.8481 15.9466 8.8806C15.9376 8.89713 15.9277 8.91403 15.9142 8.93607L15.9135 8.93722C15.8695 9.00899 15.8608 9.02327 15.8544 9.03854C15.8528 9.04233 15.8513 9.04618 15.8495 9.05098L15.8493 9.05161C15.8374 9.08312 15.8418 9.09885 15.8661 9.1052C15.8928 9.11133 15.9372 9.12386 16.0114 9.14578L16.0171 9.14746L16.0676 9.16243L16.0823 9.16677C16.0857 9.1779 16.0945 9.18603 16.1092 9.19058L16.0636 9.17714L16.0131 9.16218L16.0075 9.1605C15.9336 9.13868 15.8893 9.12618 15.8628 9.12009C15.8283 9.11106 15.821 9.08511 15.8357 9.04599L15.8361 9.04499L15.8361 9.04498L15.8361 9.04497L15.8361 9.04496C15.8381 9.03983 15.8396 9.03575 15.8413 9.03173C15.8479 9.01605 15.8569 9.00137 15.9009 8.9295L15.902 8.9278C15.9153 8.90597 15.9251 8.88928 15.9339 8.87304C15.94 8.86179 15.9454 8.85114 15.9503 8.84143L15.9503 8.84142C15.9591 8.82399 15.9664 8.80959 15.9735 8.80017C15.9189 8.78445 15.8594 8.75503 15.7833 8.7083C15.743 8.68353 15.6016 8.59018 15.574 8.57193L15.5739 8.57191L15.5739 8.57189L15.5693 8.56884C15.4312 8.4795 15.3243 8.42164 15.2113 8.38139C15.2063 8.41151 15.1753 8.45075 15.0863 8.55238L15.0798 8.55983C15.0295 8.61733 15.0031 8.64991 14.9845 8.67965C14.9623 8.7152 14.9588 8.73663 14.9728 8.74595ZM18.0857 8.69853C18.0962 8.60598 17.9885 8.54146 17.7882 8.50002C17.628 8.46688 17.4132 8.44994 17.1854 8.44802L17.1835 8.46307L18.0767 8.70503L18.0857 8.69853ZM18.0718 8.68792L18.0803 8.69022L18.0712 8.69672C18.0716 8.69376 18.0718 8.69083 18.0718 8.68792ZM17.2459 8.46419C17.4502 8.46838 17.6405 8.48504 17.7854 8.51502C17.9713 8.55349 18.0728 8.6116 18.0718 8.68792L17.2459 8.46419ZM17.2459 8.46419C17.2259 8.46378 17.2056 8.46348 17.1853 8.46331L17.1872 8.44827L17.2459 8.46419ZM17.103 8.40185C17.1126 8.32379 17.1259 8.24779 17.143 8.17408L17.1266 8.17127L17.0865 8.39977L17.103 8.40185ZM17.1029 8.40221L17.0864 8.40013C17.0961 8.32159 17.1095 8.24511 17.1267 8.1709L17.1431 8.1737L17.1029 8.40221Z" fill="black"/>
<path fill-rule="evenodd" clip-rule="evenodd" d="M17.3998 7.63297C17.1691 8.16906 17.1124 8.79837 17.2816 9.1742L17.2725 9.18464L17.1647 9.14049C17.0809 8.94538 17.0554 8.68692 17.0921 8.4082L17.0553 8.40027C17.025 8.39391 17.0013 8.38976 16.9781 8.38725C16.8767 8.37623 16.8188 8.40154 16.8106 8.48139C16.8125 8.4602 16.8148 8.43865 16.8176 8.41672C16.8464 8.37598 16.9022 8.36363 16.9796 8.37204C17.0033 8.37461 17.0275 8.37883 17.0582 8.38528C17.0666 8.38704 17.0929 8.39275 17.1008 8.40157C17.0701 8.68612 17.0954 8.94189 17.1738 9.13017L17.2611 9.16393C17.2635 9.16958 17.2659 9.17519 17.2684 9.18073L17.2775 9.17029L17.2611 9.16393C17.0988 8.78177 17.1576 8.15861 17.3865 7.62668C17.6077 7.11243 17.676 6.65699 17.6559 6.16212C17.6896 6.16273 17.7154 6.15375 17.7683 6.12767L17.7708 6.12643C17.7854 6.11927 17.7921 6.11601 17.8004 6.11223C18.0306 6.00735 18.2395 6.02219 18.3835 6.12575C18.4835 6.19771 18.5305 6.30212 18.5028 6.37317C18.4904 6.38123 18.4793 6.39002 18.464 6.40295L18.4732 6.41483C18.4869 6.40306 18.4967 6.38894 18.5028 6.37317C18.5226 6.36039 18.546 6.34945 18.5958 6.32676L18.6055 6.32226C18.6859 6.28545 18.5744 6.04384 18.3718 5.94278C18.3718 5.94278 18.3718 5.94278 18.3718 5.94278C18.2801 5.89701 18.0959 5.88933 17.9644 5.91768L17.9574 5.90524C18.0544 5.78554 18.1225 5.74235 18.2621 5.72619C18.2639 5.77902 18.2512 5.84009 18.2298 5.89076L18.22 5.88952L18.2202 5.88996L18.2256 5.9004C18.227 5.8973 18.2284 5.89416 18.2297 5.89097C18.2298 5.8909 18.2298 5.89083 18.2298 5.89076L18.2351 5.89142C18.2765 5.89641 18.3038 5.90088 18.3272 5.90959C18.3417 5.91502 18.3547 5.92211 18.3686 5.932C18.3697 5.93003 18.3708 5.92804 18.3719 5.92602C18.4066 5.86091 18.4247 5.77328 18.4239 5.68018C18.4624 5.66928 18.5001 5.65789 18.5539 5.64108C18.7253 5.58756 18.7546 5.57882 18.8276 5.56196C18.9315 5.53793 19.0229 5.52789 19.1132 5.53301C19.29 5.54304 19.4193 5.60986 19.4562 5.70029C19.4809 5.76054 19.4603 5.81976 19.4011 5.86493C19.3873 5.86957 19.3738 5.87408 19.3611 5.87834C19.3473 5.88297 19.3344 5.88729 19.3229 5.89115C19.429 5.84847 19.472 5.77761 19.4429 5.70632C19.4085 5.62224 19.2842 5.55802 19.1125 5.54828C19.0235 5.54324 18.9334 5.55314 18.8307 5.57689C18.7583 5.59364 18.729 5.60235 18.5581 5.65573C18.5041 5.67258 18.4664 5.68401 18.4331 5.687C18.4391 5.77273 18.4218 5.86037 18.3799 5.92993C18.5904 6.03608 18.7081 6.29196 18.6114 6.33623L18.6016 6.34079C18.5217 6.37719 18.5114 6.38263 18.4731 6.41486L18.464 6.40298C18.53 6.34635 18.4907 6.22137 18.3752 6.13836C18.2355 6.03788 18.0319 6.02341 17.8062 6.12626C17.7981 6.12996 17.7914 6.13318 17.777 6.14027L17.7745 6.14151C17.7197 6.16855 17.6922 6.17807 17.663 6.16931C17.6907 6.65844 17.622 7.11633 17.3998 7.63297ZM19.327 5.90583C19.3561 5.89419 19.3808 5.88038 19.4011 5.86493C19.4757 5.8399 19.5603 5.81137 19.5909 5.80022C19.7054 5.75851 19.7792 5.7219 19.836 5.67541C19.9798 5.55764 19.9203 5.30537 19.6605 5.24967C19.3679 5.18686 19.1749 5.21096 18.7834 5.31977L18.7565 5.32725C18.4075 5.42402 18.222 5.4482 17.962 5.39931C17.7831 5.36569 17.6534 5.36666 17.5619 5.41185C17.453 5.46563 17.4029 5.5827 17.4189 5.7789C17.4196 5.78699 17.42 5.79219 17.4204 5.79739C17.4211 5.80678 17.4218 5.81618 17.4238 5.8426L17.424 5.84577C17.4254 5.86415 17.4265 5.87839 17.4283 5.89857C17.4283 6.04081 17.2586 6.11204 17.0968 6.02083C17.0884 6.01034 17.0798 5.99909 17.0711 5.98703L17.0611 5.99795C17.0729 6.00649 17.0848 6.0141 17.0968 6.02083C17.1446 6.08049 17.1873 6.11529 17.2319 6.13337C17.2738 6.15034 17.3056 6.15284 17.3939 6.1511C17.4082 6.15082 17.4146 6.15071 17.4158 6.158C17.4165 6.13622 17.4306 6.1267 17.4535 6.12784C17.4693 6.12862 17.4868 6.13327 17.5194 6.14408L17.5237 6.1455C17.5723 6.16166 17.5906 6.16581 17.6002 6.16083L17.6107 6.16743C17.6194 6.44492 17.5973 6.7074 17.5222 6.98972C17.4026 6.93411 17.3278 6.93135 17.3021 7.00337C17.2916 7.03846 17.2807 7.07265 17.2693 7.10659C17.2557 7.11668 17.2453 7.13167 17.2381 7.15192L17.2518 7.15727C17.2518 7.15727 17.2518 7.15727 17.2518 7.15727C17.2578 7.14038 17.2636 7.12352 17.2693 7.10659C17.312 7.07486 17.3859 7.09149 17.4896 7.14534C17.4465 7.29263 17.3911 7.44257 17.3222 7.59542C17.2399 7.77786 17.1757 7.97654 17.1269 8.17963C16.9698 8.1385 16.866 8.14114 16.8509 8.21835C16.8365 8.28817 16.8254 8.35402 16.8176 8.41672C16.806 8.433 16.7988 8.45382 16.7961 8.47965C16.796 8.48141 16.7958 8.48316 16.7957 8.48491L16.8102 8.48621C16.8103 8.48458 16.8104 8.48297 16.8106 8.48139C16.8105 8.48303 16.8103 8.48466 16.8102 8.4863L16.7957 8.485M17.5964 6.17786C17.5826 6.17995 17.5625 6.17442 17.5193 6.16008L17.515 6.15866C17.4837 6.14827 17.4669 6.14381 17.4528 6.14311C17.4371 6.14233 17.4307 6.14665 17.4231 6.16591L17.3942 6.16639C17.304 6.16817 17.2709 6.16556 17.2267 6.14764C17.1714 6.12522 17.1195 6.07907 17.0595 5.99629L17.0694 5.98536C17.2322 6.10324 17.4137 6.0375 17.4137 5.89927C17.412 5.87972 17.4108 5.86541 17.4095 5.84696L17.4092 5.84378C17.4073 5.81738 17.4066 5.808 17.4059 5.79863C17.4055 5.79345 17.4051 5.78826 17.4044 5.7802C17.388 5.57813 17.4407 5.45481 17.5557 5.39801C17.6507 5.35111 17.7829 5.35013 17.9646 5.38425C18.222 5.43266 18.4057 5.40871 18.7527 5.31247L18.7797 5.30499C19.1732 5.19562 19.368 5.17128 19.6634 5.23469C19.9353 5.29297 19.9986 5.5616 19.8449 5.68747C19.7867 5.73521 19.7116 5.77245 19.5957 5.81467C19.5592 5.82796 19.4466 5.86571 19.3652 5.89301C19.3514 5.89764 19.3385 5.90197 19.327 5.90583C19.3125 5.91165 19.2969 5.91694 19.2803 5.92161L19.2761 5.90696C19.2842 5.90416 19.301 5.8985 19.3229 5.89115C19.3086 5.89692 19.2931 5.90217 19.2765 5.90684L19.2807 5.92149C19.2887 5.91871 19.3053 5.91311 19.327 5.90583M17.9821 5.89861C18.054 5.88557 18.1381 5.88237 18.2144 5.88941C18.2362 5.83988 18.2495 5.77902 18.256 5.734C18.1347 5.75569 18.0698 5.79411 17.9821 5.89861Z" fill="black"/>
</g>
</svg>
