<svg width="28" height="20" viewBox="0 0 28 20" fill="none" xmlns="http://www.w3.org/2000/svg">
<rect x="0.25" y="0.25" width="27.5" height="19.5" rx="1.75" fill="white" stroke="#F5F5F5" stroke-width="0.5"/>
<mask id="mask0" style="mask-type:alpha" maskUnits="userSpaceOnUse" x="0" y="0" width="28" height="20">
<rect x="0.25" y="0.25" width="27.5" height="19.5" rx="1.75" fill="white" stroke="white" stroke-width="0.5"/>
</mask>
<g mask="url(#mask0)">
<path fill-rule="evenodd" clip-rule="evenodd" d="M0 6.66667H28V0H0V6.66667Z" fill="#38BB56"/>
<path fill-rule="evenodd" clip-rule="evenodd" d="M0 20.0002H28V13.3335H0V20.0002Z" fill="#DE1B27"/>
<path fill-rule="evenodd" clip-rule="evenodd" d="M1.66659 5.3335C1.48249 5.3335 1.33325 5.48273 1.33325 5.66683V6.3335C1.33325 6.51759 1.48249 6.66683 1.66659 6.66683H2.33325C2.51735 6.66683 2.66659 6.51759 2.66659 6.3335V5.66683C2.66659 5.48273 2.51735 5.3335 2.33325 5.3335H1.66659ZM4.33325 5.3335C4.14916 5.3335 3.99992 5.48273 3.99992 5.66683V6.3335C3.99992 6.51759 4.14916 6.66683 4.33325 6.66683H4.99992C5.18401 6.66683 5.33325 6.51759 5.33325 6.3335V5.66683C5.33325 5.48273 5.18401 5.3335 4.99992 5.3335H4.33325ZM6.66659 5.66683C6.66659 5.48273 6.81582 5.3335 6.99992 5.3335H7.66658C7.85068 5.3335 7.99992 5.48273 7.99992 5.66683V6.3335C7.99992 6.51759 7.85068 6.66683 7.66659 6.66683H6.99992C6.81582 6.66683 6.66659 6.51759 6.66659 6.3335V5.66683ZM9.66658 5.3335C9.48249 5.3335 9.33325 5.48273 9.33325 5.66683V6.3335C9.33325 6.51759 9.48249 6.66683 9.66659 6.66683H10.3333C10.5173 6.66683 10.6666 6.51759 10.6666 6.3335V5.66683C10.6666 5.48273 10.5173 5.3335 10.3333 5.3335H9.66658ZM11.9999 5.66683C11.9999 5.48273 12.1492 5.3335 12.3333 5.3335H12.9999C13.184 5.3335 13.3333 5.48273 13.3333 5.66683V6.3335C13.3333 6.51759 13.184 6.66683 12.9999 6.66683H12.3333C12.1492 6.66683 11.9999 6.51759 11.9999 6.3335V5.66683ZM14.9999 5.3335C14.8158 5.3335 14.6666 5.48273 14.6666 5.66683V6.3335C14.6666 6.51759 14.8158 6.66683 14.9999 6.66683H15.6666C15.8507 6.66683 15.9999 6.51759 15.9999 6.3335V5.66683C15.9999 5.48273 15.8507 5.3335 15.6666 5.3335H14.9999ZM17.3333 5.66683C17.3333 5.48273 17.4825 5.3335 17.6666 5.3335H18.3333C18.5173 5.3335 18.6666 5.48273 18.6666 5.66683V6.3335C18.6666 6.51759 18.5173 6.66683 18.3333 6.66683H17.6666C17.4825 6.66683 17.3333 6.51759 17.3333 6.3335V5.66683ZM20.3333 5.3335C20.1492 5.3335 19.9999 5.48273 19.9999 5.66683V6.3335C19.9999 6.51759 20.1492 6.66683 20.3333 6.66683H20.9999C21.184 6.66683 21.3333 6.51759 21.3333 6.3335V5.66683C21.3333 5.48273 21.184 5.3335 20.9999 5.3335H20.3333ZM22.6666 5.66683C22.6666 5.48273 22.8158 5.3335 22.9999 5.3335H23.6666C23.8507 5.3335 23.9999 5.48273 23.9999 5.66683V6.3335C23.9999 6.51759 23.8507 6.66683 23.6666 6.66683H22.9999C22.8158 6.66683 22.6666 6.51759 22.6666 6.3335V5.66683ZM25.6666 5.3335C25.4825 5.3335 25.3333 5.48273 25.3333 5.66683V6.3335C25.3333 6.51759 25.4825 6.66683 25.6666 6.66683H26.3333C26.5173 6.66683 26.6666 6.51759 26.6666 6.3335V5.66683C26.6666 5.48273 26.5173 5.3335 26.3333 5.3335H25.6666ZM1.33325 13.6668C1.33325 13.4827 1.48249 13.3335 1.66659 13.3335H2.33325C2.51735 13.3335 2.66659 13.4827 2.66659 13.6668V14.3335C2.66659 14.5176 2.51735 14.6668 2.33325 14.6668H1.66659C1.48249 14.6668 1.33325 14.5176 1.33325 14.3335V13.6668ZM4.33325 13.3335C4.14916 13.3335 3.99992 13.4827 3.99992 13.6668V14.3335C3.99992 14.5176 4.14916 14.6668 4.33325 14.6668H4.99992C5.18401 14.6668 5.33325 14.5176 5.33325 14.3335V13.6668C5.33325 13.4827 5.18401 13.3335 4.99992 13.3335H4.33325ZM6.66659 13.6668C6.66659 13.4827 6.81582 13.3335 6.99992 13.3335H7.66658C7.85068 13.3335 7.99992 13.4827 7.99992 13.6668V14.3335C7.99992 14.5176 7.85068 14.6668 7.66659 14.6668H6.99992C6.81582 14.6668 6.66659 14.5176 6.66659 14.3335V13.6668ZM9.66658 13.3335C9.48249 13.3335 9.33325 13.4827 9.33325 13.6668V14.3335C9.33325 14.5176 9.48249 14.6668 9.66659 14.6668H10.3333C10.5173 14.6668 10.6666 14.5176 10.6666 14.3335V13.6668C10.6666 13.4827 10.5173 13.3335 10.3333 13.3335H9.66658ZM11.9999 13.6668C11.9999 13.4827 12.1492 13.3335 12.3333 13.3335H12.9999C13.184 13.3335 13.3333 13.4827 13.3333 13.6668V14.3335C13.3333 14.5176 13.184 14.6668 12.9999 14.6668H12.3333C12.1492 14.6668 11.9999 14.5176 11.9999 14.3335V13.6668ZM14.9999 13.3335C14.8158 13.3335 14.6666 13.4827 14.6666 13.6668V14.3335C14.6666 14.5176 14.8158 14.6668 14.9999 14.6668H15.6666C15.8507 14.6668 15.9999 14.5176 15.9999 14.3335V13.6668C15.9999 13.4827 15.8507 13.3335 15.6666 13.3335H14.9999ZM17.3333 13.6668C17.3333 13.4827 17.4825 13.3335 17.6666 13.3335H18.3333C18.5173 13.3335 18.6666 13.4827 18.6666 13.6668V14.3335C18.6666 14.5176 18.5173 14.6668 18.3333 14.6668H17.6666C17.4825 14.6668 17.3333 14.5176 17.3333 14.3335V13.6668ZM20.3333 13.3335C20.1492 13.3335 19.9999 13.4827 19.9999 13.6668V14.3335C19.9999 14.5176 20.1492 14.6668 20.3333 14.6668H20.9999C21.184 14.6668 21.3333 14.5176 21.3333 14.3335V13.6668C21.3333 13.4827 21.184 13.3335 20.9999 13.3335H20.3333ZM22.6666 13.6668C22.6666 13.4827 22.8158 13.3335 22.9999 13.3335H23.6666C23.8507 13.3335 23.9999 13.4827 23.9999 13.6668V14.3335C23.9999 14.5176 23.8507 14.6668 23.6666 14.6668H22.9999C22.8158 14.6668 22.6666 14.5176 22.6666 14.3335V13.6668ZM25.6666 13.3335C25.4825 13.3335 25.3333 13.4827 25.3333 13.6668V14.3335C25.3333 14.5176 25.4825 14.6668 25.6666 14.6668H26.3333C26.5173 14.6668 26.6666 14.5176 26.6666 14.3335V13.6668C26.6666 13.4827 26.5173 13.3335 26.3333 13.3335H25.6666Z" fill="white" fill-opacity="0.5"/>
<mask id="path-6-inside-1" fill="white">
<path fill-rule="evenodd" clip-rule="evenodd" d="M12.6535 8.521C12.252 8.88679 12 9.41389 12 9.99985C12 11.1044 12.8954 11.9999 14 11.9999C15.1046 11.9999 16 11.1044 16 9.99985C16 9.42495 15.7574 8.90671 15.3691 8.54188"/>
</mask>
<path d="M12.2045 8.02818C11.6702 8.51498 11.3333 9.21855 11.3333 9.99985H12.6667C12.6667 9.60924 12.8338 9.2586 13.1025 9.01382L12.2045 8.02818ZM11.3333 9.99985C11.3333 11.4726 12.5272 12.6665 14 12.6665V11.3332C13.2636 11.3332 12.6667 10.7362 12.6667 9.99985H11.3333ZM14 12.6665C15.4728 12.6665 16.6667 11.4726 16.6667 9.99985H15.3333C15.3333 10.7362 14.7364 11.3332 14 11.3332V12.6665ZM16.6667 9.99985C16.6667 9.23336 16.3424 8.54155 15.8255 8.05598L14.9126 9.02778C15.1724 9.27186 15.3333 9.61654 15.3333 9.99985H16.6667Z" fill="#D80915" mask="url(#path-6-inside-1)"/>
<rect x="13.3333" y="9.3335" width="1.33333" height="2.66667" rx="0.666667" fill="#D80915"/>
</g>
</svg>
