<svg width="28" height="20" viewBox="0 0 28 20" fill="none" xmlns="http://www.w3.org/2000/svg">
<rect x="0.25" y="0.25" width="27.5" height="19.5" rx="1.75" fill="white" stroke="#F5F5F5" stroke-width="0.5"/>
<mask id="mask0" style="mask-type:alpha" maskUnits="userSpaceOnUse" x="0" y="0" width="28" height="20">
<rect x="0.25" y="0.25" width="27.5" height="19.5" rx="1.75" fill="white" stroke="white" stroke-width="0.5"/>
</mask>
<g mask="url(#mask0)">
<path fill-rule="evenodd" clip-rule="evenodd" d="M0 5.33333H28V0H0V5.33333Z" fill="#FFCB49"/>
<path fill-rule="evenodd" clip-rule="evenodd" d="M0 14.6668H28V9.3335H0V14.6668Z" fill="#DC1D34"/>
<path fill-rule="evenodd" clip-rule="evenodd" d="M0 19.9998H28V14.6665H0V19.9998Z" fill="#4985D4"/>
<path fill-rule="evenodd" clip-rule="evenodd" d="M0 20L13.3333 10L0 0V20Z" fill="#4BA343"/>
<path fill-rule="evenodd" clip-rule="evenodd" d="M5.33325 14C5.67855 14 6.01363 13.9562 6.33325 13.874C4.60803 13.4299 3.33325 11.8638 3.33325 10C3.33325 8.13616 4.60803 6.57006 6.33325 6.12602C6.01363 6.04375 5.67855 6 5.33325 6C3.12411 6 1.33325 7.79086 1.33325 10C1.33325 12.2091 3.12411 14 5.33325 14ZM7.99992 7.33333C7.99992 7.70152 7.70144 8 7.33325 8C6.96506 8 6.66659 7.70152 6.66659 7.33333C6.66659 6.96514 6.96506 6.66667 7.33325 6.66667C7.70144 6.66667 7.99992 6.96514 7.99992 7.33333ZM7.33325 10.6667C7.70144 10.6667 7.99992 10.3682 7.99992 10C7.99992 9.63181 7.70144 9.33333 7.33325 9.33333C6.96506 9.33333 6.66659 9.63181 6.66659 10C6.66659 10.3682 6.96506 10.6667 7.33325 10.6667ZM7.99992 12.6667C7.99992 13.0349 7.70144 13.3333 7.33325 13.3333C6.96506 13.3333 6.66659 13.0349 6.66659 12.6667C6.66659 12.2985 6.96506 12 7.33325 12C7.70144 12 7.99992 12.2985 7.99992 12.6667Z" fill="white"/>
</g>
</svg>
