<svg width="28" height="20" viewBox="0 0 28 20" fill="none" xmlns="http://www.w3.org/2000/svg">
<rect width="28" height="20" rx="2" fill="white"/>
<mask id="mask0" style="mask-type:alpha" maskUnits="userSpaceOnUse" x="0" y="0" width="28" height="20">
<rect width="28" height="20" rx="2" fill="white"/>
</mask>
<g mask="url(#mask0)">
<path fill-rule="evenodd" clip-rule="evenodd" d="M0 13.3333L28 0H0V13.3333Z" fill="#1EC160"/>
<path fill-rule="evenodd" clip-rule="evenodd" d="M0 19.9998H28V6.6665L0 19.9998Z" fill="#DF2A40"/>
<path fill-rule="evenodd" clip-rule="evenodd" d="M0.783836 25.3333L33.575 4.84308L27.216 -5.3335L-5.5752 15.1567L0.783836 25.3333Z" fill="#FFD956"/>
<path fill-rule="evenodd" clip-rule="evenodd" d="M-0.629314 23.0721L32.1619 2.58188L28.6291 -3.07178L-4.16211 17.4184L-0.629314 23.0721Z" fill="#262626"/>
<path fill-rule="evenodd" clip-rule="evenodd" d="M20.3095 7.7976L19.3641 9.29496L18.7506 7.63376L17.0344 7.19733L18.4248 6.10058L18.3095 4.3335L19.7822 5.31687L21.4272 4.66118L20.947 6.36568L22.0789 7.72753L20.3095 7.7976Z" fill="white"/>
<path fill-rule="evenodd" clip-rule="evenodd" d="M9.64274 14.2639L8.69733 15.7613L8.0839 14.1001L6.36768 13.6636L7.75801 12.5669L7.64274 10.7998L9.11544 11.7832L10.7604 11.1275L10.2803 12.832L11.4122 14.1938L9.64274 14.2639Z" fill="white"/>
</g>
</svg>
