<svg width="28" height="20" viewBox="0 0 28 20" fill="none" xmlns="http://www.w3.org/2000/svg">
<rect x="0.25" y="0.25" width="27.5" height="19.5" rx="1.75" fill="white" stroke="#F5F5F5" stroke-width="0.5"/>
<mask id="mask0" style="mask-type:alpha" maskUnits="userSpaceOnUse" x="0" y="0" width="28" height="20">
<rect x="0.25" y="0.25" width="27.5" height="19.5" rx="1.75" fill="white" stroke="white" stroke-width="0.5"/>
</mask>
<g mask="url(#mask0)">
<path fill-rule="evenodd" clip-rule="evenodd" d="M13.9999 14.6668C16.5772 14.6668 18.6666 12.5775 18.6666 10.0002C18.6666 7.42283 16.5772 5.3335 13.9999 5.3335C11.4226 5.3335 9.33325 7.42283 9.33325 10.0002C9.33325 12.5775 11.4226 14.6668 13.9999 14.6668Z" fill="#E01B41"/>
<mask id="mask1" style="mask-type:alpha" maskUnits="userSpaceOnUse" x="9" y="5" width="10" height="10">
<path fill-rule="evenodd" clip-rule="evenodd" d="M13.9999 14.6668C16.5772 14.6668 18.6666 12.5775 18.6666 10.0002C18.6666 7.42283 16.5772 5.3335 13.9999 5.3335C11.4226 5.3335 9.33325 7.42283 9.33325 10.0002C9.33325 12.5775 11.4226 14.6668 13.9999 14.6668Z" fill="white"/>
</mask>
<g mask="url(#mask1)">
<path fill-rule="evenodd" clip-rule="evenodd" d="M9.33332 10.667C10.6666 11.917 12.6666 12.667 14 10.667C15.3333 8.66699 18 8.66699 18.6666 10.667C19.3333 12.667 18.6666 14.667 18.6666 14.667H9.33332C9.33332 14.667 7.99998 9.41699 9.33332 10.667Z" fill="#0E4B9C"/>
</g>
<path opacity="0.75" fill-rule="evenodd" clip-rule="evenodd" d="M6.17305 3.55686C6.2651 3.39743 6.46896 3.3428 6.62839 3.43485L7.20574 3.76818C7.36517 3.86023 7.4198 4.06409 7.32775 4.22353L5.66108 7.11028C5.56904 7.26971 5.36517 7.32433 5.20574 7.23229L4.62839 6.89895C4.46896 6.8069 4.41434 6.60304 4.50638 6.44361L6.17305 3.55686ZM20.7942 3.76818C20.6348 3.86023 20.5801 4.06409 20.6722 4.22353L22.3389 7.11028C22.4309 7.26971 22.6348 7.32433 22.7942 7.23229L23.3715 6.89895C23.531 6.8069 23.5856 6.60304 23.4936 6.44361L21.8269 3.55686C21.7348 3.39743 21.531 3.3428 21.3715 3.43485L20.7942 3.76818ZM19.0621 4.76818C18.9027 4.86023 18.8481 5.06409 18.9401 5.22353L20.6068 8.11028C20.6989 8.26971 20.9027 8.32433 21.0621 8.23229L21.6395 7.89895C21.7989 7.8069 21.8536 7.60304 21.7615 7.44361L20.0948 4.55686C20.0028 4.39743 19.7989 4.3428 19.6395 4.43485L19.0621 4.76818ZM4.50638 13.5569C4.41434 13.3974 4.46896 13.1936 4.62839 13.1015L5.20574 12.7682C5.36517 12.6761 5.56904 12.7308 5.66108 12.8902L7.32775 15.7769C7.4198 15.9364 7.36517 16.1402 7.20574 16.2323L6.62839 16.5656C6.46896 16.6577 6.2651 16.603 6.17305 16.4436L4.50638 13.5569ZM6.36044 12.1015C6.20101 12.1936 6.14639 12.3974 6.23843 12.5569L7.9051 15.4436C7.99715 15.603 8.20101 15.6577 8.36044 15.5656L8.93779 15.2323C9.09722 15.1402 9.15185 14.9364 9.0598 14.7769L7.39314 11.8902C7.30109 11.7308 7.09722 11.6761 6.93779 11.7682L6.36044 12.1015ZM20.6068 11.8902C20.6989 11.7308 20.9027 11.6761 21.0621 11.7682L21.6395 12.1015C21.7989 12.1936 21.8536 12.3974 21.7615 12.5569L20.0948 15.4436C20.0028 15.603 19.7989 15.6577 19.6395 15.5656L19.0621 15.2323C18.9027 15.1402 18.8481 14.9364 18.9401 14.7769L20.6068 11.8902ZM22.7942 12.7682C22.6348 12.6761 22.4309 12.7308 22.3389 12.8902L20.6722 15.7769C20.5801 15.9364 20.6348 16.1402 20.7942 16.2323L21.3715 16.5656C21.531 16.6577 21.7348 16.603 21.8269 16.4436L23.4936 13.5569C23.5856 13.3974 23.531 13.1936 23.3715 13.1015L22.7942 12.7682ZM8.36044 4.43485C8.20101 4.3428 7.99715 4.39743 7.9051 4.55686L6.23843 7.44361C6.14639 7.60304 6.20101 7.8069 6.36044 7.89895L6.93779 8.23229C7.09722 8.32433 7.30109 8.26971 7.39314 8.11028L9.0598 5.22353C9.15185 5.06409 9.09722 4.86023 8.93779 4.76818L8.36044 4.43485Z" fill="#262626"/>
</g>
</svg>
