<svg width="28" height="20" viewBox="0 0 28 20" fill="none" xmlns="http://www.w3.org/2000/svg">
<rect x="0.25" y="0.25" width="27.5" height="19.5" rx="1.75" fill="white" stroke="#F5F5F5" stroke-width="0.5"/>
<mask id="mask0" style="mask-type:alpha" maskUnits="userSpaceOnUse" x="0" y="0" width="28" height="20">
<rect x="0.25" y="0.25" width="27.5" height="19.5" rx="1.75" fill="white" stroke="white" stroke-width="0.5"/>
</mask>
<g mask="url(#mask0)">
<path fill-rule="evenodd" clip-rule="evenodd" d="M0 5.33333H28V0H0V5.33333Z" fill="#F03340"/>
<path fill-rule="evenodd" clip-rule="evenodd" d="M0 19.9998H28V14.6665H0V19.9998Z" fill="#F03340"/>
<path fill-rule="evenodd" clip-rule="evenodd" d="M12.9428 12.3904C13.1585 12.1747 13.1585 11.825 12.9428 11.6093L12.8661 11.5326C12.7424 11.4089 12.5628 11.3591 12.3931 11.4016L12.0138 11.4964C11.5701 11.6073 11.2948 11.0288 11.6606 10.7544L12.0033 10.4973C12.2158 10.338 12.1031 9.99984 11.8375 9.99984C11.5458 9.99984 11.453 9.60666 11.7139 9.47623L12.2861 9.19011C12.547 9.05968 12.4542 8.6665 12.1625 8.6665C11.8969 8.6665 11.7842 8.32837 11.9967 8.169L13.6 6.9665C13.837 6.78873 14.163 6.78873 14.4 6.9665L16.0033 8.169C16.2158 8.32837 16.1031 8.6665 15.8375 8.6665C15.5458 8.6665 15.453 9.05968 15.7139 9.19011L16.2861 9.47623C16.547 9.60666 16.4542 9.99984 16.1625 9.99984C15.8969 9.99984 15.7842 10.338 15.9967 10.4973L16.3394 10.7544C16.7052 11.0288 16.4299 11.6073 15.9862 11.4964L15.6069 11.4016C15.4372 11.3591 15.2576 11.4089 15.1339 11.5326L15.0572 11.6093C14.8415 11.825 14.8415 12.1747 15.0572 12.3904C15.4051 12.7383 15.1587 13.3332 14.6667 13.3332H13.3333C12.8413 13.3332 12.5949 12.7383 12.9428 12.3904Z" fill="#1FC065"/>
</g>
</svg>
