<svg width="28" height="20" viewBox="0 0 28 20" fill="none" xmlns="http://www.w3.org/2000/svg">
<rect width="28" height="20" rx="2" fill="white"/>
<mask id="mask0" style="mask-type:alpha" maskUnits="userSpaceOnUse" x="0" y="0" width="28" height="20">
<rect width="28" height="20" rx="2" fill="white"/>
</mask>
<g mask="url(#mask0)">
<rect width="28" height="20" fill="#FFBF19"/>
<path fill-rule="evenodd" clip-rule="evenodd" d="M10.6667 1.3335H25.3334C26.0698 1.3335 26.6667 1.93045 26.6667 2.66683V17.3335C26.6667 18.0699 26.0698 18.6668 25.3334 18.6668H10.6667V1.3335Z" fill="#A52531"/>
<path d="M1.33325 2.66683C1.33325 1.93045 1.93021 1.3335 2.66659 1.3335H5.33325V18.6668H2.66659C1.93021 18.6668 1.33325 18.0699 1.33325 17.3335V2.66683Z" fill="#03664F"/>
<rect x="5.33325" y="1.3335" width="4" height="17.3333" rx="0.666667" fill="#FF6816"/>
<path fill-rule="evenodd" clip-rule="evenodd" d="M13.3333 3.33317C13.3333 3.70136 13.0349 3.99984 12.6667 3.99984C12.2985 3.99984 12 3.70136 12 3.33317V2.6665H12.6667C13.0349 2.6665 13.3333 2.96498 13.3333 3.33317ZM24 3.33317C24 3.70136 24.2985 3.99984 24.6667 3.99984C25.0349 3.99984 25.3333 3.70136 25.3333 3.33317V2.6665H24.6667C24.2985 2.6665 24 2.96498 24 3.33317ZM24.6667 15.9998C24.2985 15.9998 24 16.2983 24 16.6665C24 17.0347 24.2985 17.3332 24.6667 17.3332H25.3333V16.6665C25.3333 16.2983 25.0349 15.9998 24.6667 15.9998ZM13.3333 16.6665C13.3333 16.2983 13.0349 15.9998 12.6667 15.9998C12.2985 15.9998 12 16.2983 12 16.6665V17.3332H12.6667C13.0349 17.3332 13.3333 17.0347 13.3333 16.6665Z" fill="#FFBF18"/>
<path fill-rule="evenodd" clip-rule="evenodd" d="M16.0001 12.5736C16.0001 12.2568 15.7433 12 15.4265 12C15.3649 12 15.3038 11.9902 15.2457 11.9694C14.86 11.8316 13.3334 11.2491 13.3334 10.6667C13.3334 10.3018 13.5331 9.937 13.7139 9.68142C13.8713 9.4589 13.9299 9.16973 13.8333 8.91484C13.6067 8.31687 13.2398 7.22836 13.3334 6.66668C13.3833 6.36754 13.5825 6.1056 13.8123 5.8949C14.1679 5.56881 14.6668 5.87699 14.6668 6.35951V8.92133C14.6668 9.17384 14.8094 9.40469 15.0353 9.51761L15.7118 9.85587C15.884 9.94195 16.0919 9.90821 16.228 9.77209C16.4439 9.55625 16.3848 9.19238 16.1118 9.05587L15.3334 8.66668V8.00002C15.6656 8.00002 15.7713 7.55227 15.4742 7.40373L15.3334 7.33335V6.66668H16.3906C16.5674 6.66668 16.737 6.59645 16.862 6.47142L17.1382 6.19528C17.2632 6.07026 17.4328 6.00002 17.6096 6.00002H18.2548C18.5073 6.00002 18.7381 6.14269 18.851 6.36854L19.2099 7.08636C19.289 7.24451 19.302 7.42759 19.2461 7.59532L18.9593 8.45587C18.8154 8.88755 19.1367 9.33335 19.5917 9.33335H21.7833C21.9221 9.33335 22.0552 9.27822 22.1534 9.18008C22.4059 8.92751 22.3369 8.50172 22.0174 8.34199L21.4742 8.0704C21.3816 8.02412 21.2796 8.00002 21.1761 8.00002H20.6668C20.2986 8.00002 20.0001 7.70154 20.0001 7.33335V6.94283C20.0001 6.76602 20.0703 6.59645 20.1954 6.47142L20.6668 6.00002V6.66669C20.6668 7.03487 20.9653 7.33335 21.3334 7.33335H22.2548C22.5073 7.33335 22.7381 7.47602 22.851 7.70188L23.28 8.55975C23.3153 8.63048 23.3379 8.70659 23.3451 8.78533C23.3757 9.12089 23.4488 10.0897 23.3334 10.6667C23.2399 11.1342 22.9782 11.5669 22.8118 11.8061C22.7224 11.9347 22.6668 12.0858 22.6668 12.2424V14.1574C22.6668 14.4387 22.4388 14.6667 22.1575 14.6667C21.7789 14.6667 21.5327 14.2683 21.702 13.9296L21.9297 13.4741C21.974 13.3855 21.974 13.2812 21.9297 13.1926L21.8982 13.1296C21.7576 12.8482 21.3334 12.9484 21.3334 13.263C21.3334 13.3093 21.3227 13.3549 21.302 13.3963L20.8316 14.3371C20.7306 14.5391 20.5241 14.6667 20.2982 14.6667C19.855 14.6667 19.5667 14.2002 19.7649 13.8037L19.9297 13.4741C19.976 13.3815 20.0001 13.2795 20.0001 13.176V12.6667C20.0001 12.2985 19.7016 12 19.3334 12H18.0001C17.6319 12 17.3334 12.2985 17.3334 12.6667V13.176C17.3334 13.2795 17.3093 13.3815 17.2631 13.4741L16.8316 14.3371C16.7306 14.5391 16.5241 14.6667 16.2982 14.6667C15.855 14.6667 15.5667 14.2002 15.7649 13.8037L15.9297 13.4741C15.976 13.3815 16.0001 13.2795 16.0001 13.176V12.5736Z" fill="#FFBF18"/>
</g>
</svg>
