<svg width="28" height="20" viewBox="0 0 28 20" fill="none" xmlns="http://www.w3.org/2000/svg">
<rect width="28" height="20" rx="2" fill="white"/>
<mask id="mask0" style="mask-type:alpha" maskUnits="userSpaceOnUse" x="0" y="0" width="28" height="20">
<rect width="28" height="20" rx="2" fill="white"/>
</mask>
<g mask="url(#mask0)">
<rect width="28" height="20" fill="#E6BE53"/>
<path fill-rule="evenodd" clip-rule="evenodd" d="M1.33325 17.6668C1.33325 18.2191 1.78097 18.6668 2.33325 18.6668H25.6666C26.2189 18.6668 26.6666 18.2191 26.6666 17.6668V2.3335C26.6666 1.78121 26.2189 1.3335 25.6666 1.3335H2.33325C1.78097 1.3335 1.33325 1.78121 1.33325 2.3335V17.6668Z" fill="#E01826"/>
<path fill-rule="evenodd" clip-rule="evenodd" d="M13.0233 3.65912C12.5531 3.81584 12.4122 4.41255 12.7627 4.76298L13.138 5.13831C13.263 5.26333 13.4326 5.33357 13.6094 5.33357H14.3904C14.5673 5.33357 14.7368 5.26333 14.8618 5.1383L15.2372 4.76298C15.5876 4.41255 15.4467 3.81584 14.9766 3.65912L14.2107 3.40384C14.0739 3.35823 13.9259 3.35823 13.7891 3.40384L13.0233 3.65912ZM14.4713 6.86216C14.211 7.12251 13.7889 7.12251 13.5285 6.86216L13.3333 6.6669L12.3397 5.67334C12.1368 5.47043 11.8268 5.42013 11.5701 5.54846L11.4939 5.58658C11.0869 5.79008 10.9989 6.33251 11.3206 6.65427L11.3333 6.6669L12.3268 7.66046C12.5297 7.86337 12.58 8.17335 12.4517 8.43001L12.0379 9.25765C12.0129 9.30757 11.9999 9.36263 11.9999 9.41845C11.9999 9.68574 11.7186 9.85959 11.4796 9.74005L11.1566 9.5786C10.9156 9.45805 10.8634 9.13674 11.054 8.94614C11.2082 8.79192 11.2082 8.54188 11.054 8.38766L10.7431 8.07673C10.6924 8.02606 10.6502 7.96756 10.6182 7.90347L10.0326 6.73236C10.0109 6.68885 9.99397 6.64309 9.98217 6.5959L9.67296 5.35906C9.53681 4.81447 8.82968 4.67167 8.49286 5.12075L7.46659 6.48912C7.38004 6.60452 7.33325 6.74488 7.33325 6.88912V9.17619C7.33325 9.27969 7.35735 9.38176 7.40363 9.47433L7.95154 10.5701C7.98358 10.6342 8.02575 10.6927 8.07642 10.7434L9.25675 11.9237C9.30742 11.9744 9.36593 12.0166 9.43002 12.0486L10.6036 12.6354C10.645 12.6561 10.6907 12.6669 10.737 12.6669C11.0516 12.6669 11.1517 13.091 10.8703 13.2317L10.7158 13.309C10.6832 13.3253 10.6535 13.3467 10.6277 13.3725L10.3333 13.6669C10.1492 13.851 9.85068 13.851 9.66659 13.6669C9.48249 13.4828 9.18401 13.4828 8.99992 13.6669L8.94583 13.721C8.77907 13.8878 8.73772 14.1425 8.84319 14.3534L9.14899 14.965C9.26192 15.1909 9.49276 15.3336 9.74527 15.3336H10.5092C10.6127 15.3336 10.7148 15.3095 10.8073 15.2632L11.8012 14.7663C11.9302 14.7018 12.0348 14.5972 12.0993 14.4681L12.4016 13.8636C12.5319 13.6029 12.8795 13.5465 13.0856 13.7526C13.2296 13.8966 13.252 14.1222 13.139 14.2916L12.3697 15.4455C12.1655 15.7519 12.2483 16.1658 12.5546 16.37L13.6301 17.087C13.8541 17.2363 14.1458 17.2363 14.3697 17.087L15.4452 16.37C15.7516 16.1658 15.8344 15.7519 15.6301 15.4455L14.8608 14.2916C14.7479 14.1222 14.7702 13.8966 14.9142 13.7526C15.1204 13.5465 15.4679 13.6029 15.5983 13.8636L15.9005 14.4681C15.965 14.5972 16.0697 14.7018 16.1987 14.7663L17.1925 15.2632C17.2851 15.3095 17.3871 15.3336 17.4906 15.3336H18.2546C18.5071 15.3336 18.7379 15.1909 18.8508 14.965L19.1566 14.3534C19.2621 14.1425 19.2208 13.8878 19.054 13.721L18.9999 13.6669C18.8158 13.4828 18.5173 13.4828 18.3333 13.6669C18.1492 13.851 17.8507 13.851 17.6666 13.6669L17.3721 13.3725C17.3464 13.3467 17.3166 13.3253 17.2841 13.309L17.1295 13.2317C16.8481 13.091 16.9483 12.6669 17.2629 12.6669C17.3092 12.6669 17.3548 12.6561 17.3962 12.6354L18.5698 12.0486C18.6339 12.0166 18.6924 11.9744 18.7431 11.9237L19.9234 10.7434C19.9741 10.6927 20.0163 10.6342 20.0483 10.5701L20.5962 9.47433C20.6425 9.38176 20.6666 9.27969 20.6666 9.17619V6.88912C20.6666 6.74488 20.6198 6.60452 20.5333 6.48912L19.507 5.12075C19.1702 4.67167 18.463 4.81447 18.3269 5.35906L18.0177 6.5959C18.0059 6.64309 17.9889 6.68885 17.9672 6.73236L17.3816 7.90347C17.3496 7.96756 17.3074 8.02606 17.2568 8.07673L16.9458 8.38766C16.7916 8.54188 16.7916 8.79192 16.9458 8.94614C17.1364 9.13674 17.0843 9.45805 16.8432 9.5786L16.5203 9.74005C16.2812 9.85959 15.9999 9.68574 15.9999 9.41845C15.9999 9.36263 15.9869 9.30757 15.962 9.25765L15.5481 8.43001C15.4198 8.17335 15.4701 7.86337 15.673 7.66046L16.6666 6.6669L16.6792 6.65427C17.001 6.33251 16.9129 5.79008 16.506 5.58658L16.4297 5.54846C16.173 5.42013 15.8631 5.47043 15.6602 5.67334L14.6666 6.6669L14.4713 6.86216Z" fill="#E6BE53"/>
<path fill-rule="evenodd" clip-rule="evenodd" d="M12.6667 11.3335C12.6667 11.5789 13.0801 11.6606 13.1997 11.4463C13.4322 11.0297 13.7161 10.6668 14.0001 10.6668C14.284 10.6668 14.568 11.0297 14.8004 11.4463C14.92 11.6606 15.3334 11.5789 15.3334 11.3335C15.3334 10.2289 14.7365 9.3335 14.0001 9.3335C13.2637 9.3335 12.6667 10.2289 12.6667 11.3335Z" fill="#215F90"/>
</g>
</svg>
