<svg width="28" height="20" viewBox="0 0 28 20" fill="none" xmlns="http://www.w3.org/2000/svg">
<rect width="28" height="20" rx="2" fill="white"/>
<mask id="mask0" style="mask-type:alpha" maskUnits="userSpaceOnUse" x="0" y="0" width="28" height="20">
<rect width="28" height="20" rx="2" fill="white"/>
</mask>
<g mask="url(#mask0)">
<path fill-rule="evenodd" clip-rule="evenodd" d="M9.33325 20H18.6666V0H9.33325V20Z" fill="#146BBC"/>
<path fill-rule="evenodd" clip-rule="evenodd" d="M0 20H9.33333V0H0V20Z" fill="#E43642"/>
<path fill-rule="evenodd" clip-rule="evenodd" d="M18.6667 20H28.0001V0H18.6667V20Z" fill="#E43642"/>
<path fill-rule="evenodd" clip-rule="evenodd" d="M4.66675 10L5.33341 10.6667L4.66675 10.6667L4.00008 10.6667L4.66675 10ZM4.66675 12C4.29856 12 4.00008 11.7015 4.00008 11.3333C4.00008 10.9651 4.29856 10.6667 4.66675 10.6667C5.03494 10.6667 5.33341 10.9651 5.33341 11.3333C5.33341 11.7015 5.03494 12 4.66675 12ZM5.33341 12H4.66675H4.00008H2.66675V16H4.00008V14.6667L4.66675 16L5.33341 14.6667V16H6.66675V12H5.33341ZM4.66675 13.3333L5.33341 12V14C5.33341 13.6318 5.03494 13.3333 4.66675 13.3333ZM4.00008 14C4.00008 13.6318 4.29856 13.3333 4.66675 13.3333L4.00008 12V14ZM4.66675 14.6667H4.00008V14C4.00008 14.3682 4.29856 14.6667 4.66675 14.6667ZM4.66675 14.6667H5.33341V14C5.33341 14.3682 5.03494 14.6667 4.66675 14.6667Z" fill="url(#paint0_linear)"/>
</g>
<defs>
<linearGradient id="paint0_linear" x1="2.66675" y1="10" x2="2.66675" y2="16" gradientUnits="userSpaceOnUse">
<stop stop-color="#F8D246"/>
<stop offset="1" stop-color="#F9CE2F"/>
</linearGradient>
</defs>
</svg>
