<svg width="28" height="20" viewBox="0 0 28 20" fill="none" xmlns="http://www.w3.org/2000/svg">
<rect width="28" height="20" rx="2" fill="white"/>
<mask id="mask0" style="mask-type:alpha" maskUnits="userSpaceOnUse" x="0" y="0" width="28" height="20">
<rect width="28" height="20" rx="2" fill="white"/>
</mask>
<g mask="url(#mask0)">
<path fill-rule="evenodd" clip-rule="evenodd" d="M0 20H28V0H0V20Z" fill="#079D7B"/>
<path fill-rule="evenodd" clip-rule="evenodd" d="M15.8849 8.66634C15.8849 8.9582 15.8637 9.2413 15.8238 9.51108C15.9261 9.47964 16.0302 9.44967 16.1361 9.42129C17.9143 8.94482 19.5015 9.10203 19.6811 9.77244C19.8435 10.3783 18.8006 11.196 17.2858 11.6995C17.0182 10.9058 15.6488 10.6663 13.9998 10.6663C12.349 10.6663 10.9785 10.9064 10.713 11.7021C9.21866 11.1977 8.19451 10.3886 8.3555 9.78775C8.53513 9.11735 10.1223 8.96013 11.9005 9.43661C11.9939 9.46162 12.0859 9.48789 12.1765 9.5153C12.1362 9.24426 12.1148 8.95972 12.1148 8.66634C12.1148 6.82539 12.9587 5.33301 13.9998 5.33301C15.0409 5.33301 15.8849 6.82539 15.8849 8.66634ZM10.6665 11.9997L11.833 11.9997C11.6482 11.9635 11.4597 11.9201 11.2689 11.8694C11.4835 11.8758 11.748 11.8941 12.0508 11.9151C12.5989 11.953 13.2721 11.9997 13.9998 11.9997C14.7275 11.9997 15.4007 11.953 15.9488 11.9151C16.2402 11.8949 16.4962 11.8772 16.7063 11.8702C16.5088 11.9211 16.314 11.9642 16.1235 11.9997L17.3332 11.9997L19.3332 11.9997C19.175 12.4744 18.9622 12.9217 18.7027 13.333H9.297C9.03748 12.9217 8.82463 12.4744 8.66649 11.9997L10.6665 11.9997ZM13.9998 15.9997C15.3466 15.9997 16.5833 15.5002 17.5546 14.6663H10.4451C11.4163 15.5002 12.6531 15.9997 13.9998 15.9997Z" fill="white"/>
<path fill-rule="evenodd" clip-rule="evenodd" d="M14 3.99984C14.3682 3.99984 14.6667 3.70136 14.6667 3.33317C14.6667 2.96498 14.3682 2.6665 14 2.6665C13.6318 2.6665 13.3333 2.96498 13.3333 3.33317C13.3333 3.70136 13.6318 3.99984 14 3.99984ZM8.66667 7.33317C9.03486 7.33317 9.33333 7.03469 9.33333 6.6665C9.33333 6.29831 9.03486 5.99984 8.66667 5.99984C8.29848 5.99984 8 6.29831 8 6.6665C8 7.03469 8.29848 7.33317 8.66667 7.33317ZM20 6.6665C20 7.03469 19.7015 7.33317 19.3333 7.33317C18.9651 7.33317 18.6667 7.03469 18.6667 6.6665C18.6667 6.29831 18.9651 5.99984 19.3333 5.99984C19.7015 5.99984 20 6.29831 20 6.6665ZM17.3333 5.33317C17.7015 5.33317 18 5.03469 18 4.6665C18 4.29831 17.7015 3.99984 17.3333 3.99984C16.9651 3.99984 16.6667 4.29831 16.6667 4.6665C16.6667 5.03469 16.9651 5.33317 17.3333 5.33317ZM11.3333 4.6665C11.3333 5.03469 11.0349 5.33317 10.6667 5.33317C10.2985 5.33317 10 5.03469 10 4.6665C10 4.29831 10.2985 3.99984 10.6667 3.99984C11.0349 3.99984 11.3333 4.29831 11.3333 4.6665Z" fill="#FCD117"/>
</g>
</svg>
