<svg width="28" height="20" viewBox="0 0 28 20" fill="none" xmlns="http://www.w3.org/2000/svg">
<rect width="28" height="20" rx="2" fill="white"/>
<mask id="mask0" style="mask-type:alpha" maskUnits="userSpaceOnUse" x="0" y="0" width="28" height="20">
<rect width="28" height="20" rx="2" fill="white"/>
</mask>
<g mask="url(#mask0)">
<rect width="28" height="20" fill="#108B4D"/>
<path fill-rule="evenodd" clip-rule="evenodd" d="M19.8134 7.73317C19.862 8.0406 19.8872 8.3558 19.8872 8.67689C19.8872 11.9906 17.2009 14.6769 13.8872 14.6769C10.5735 14.6769 7.88721 11.9906 7.88721 8.67689C7.88721 8.3558 7.91243 8.0406 7.961 7.73317C8.41369 10.5985 10.8946 12.7894 13.8872 12.7894C16.8798 12.7894 19.3607 10.5985 19.8134 7.73317ZM13.9998 8.56392L12.3517 9.73881L12.9598 7.80832L11.3331 6.60395L13.357 6.58573L13.9998 4.6665L14.6425 6.58573L16.6664 6.60395L15.0398 7.80832L15.6479 9.73881L13.9998 8.56392Z" fill="#FFC941"/>
</g>
</svg>
