<svg width="28" height="20" viewBox="0 0 28 20" fill="none" xmlns="http://www.w3.org/2000/svg">
<rect x="0.25" y="0.25" width="27.5" height="19.5" rx="1.75" fill="white" stroke="#F5F5F5" stroke-width="0.5"/>
<mask id="mask0" style="mask-type:alpha" maskUnits="userSpaceOnUse" x="0" y="0" width="28" height="20">
<rect x="0.25" y="0.25" width="27.5" height="19.5" rx="1.75" fill="white" stroke="white" stroke-width="0.5"/>
</mask>
<g mask="url(#mask0)">
<path fill-rule="evenodd" clip-rule="evenodd" d="M0 20.0002H28V13.3335H0V20.0002Z" fill="#138E16"/>
<path fill-rule="evenodd" clip-rule="evenodd" d="M0 20H9.33333V13.3333H28V6.66667H9.33333V0H0V20Z" fill="#ED2B35"/>
<path fill-rule="evenodd" clip-rule="evenodd" d="M4.66667 4.71192L3.50964 6.40275L4.11019 4.44394L2.06686 4.59355L3.97275 3.84178L2.58178 2.33752L4.35785 3.35889L4.66667 1.3335L4.97549 3.35889L6.75155 2.33752L5.36058 3.84178L7.26647 4.59355L5.22314 4.44394L5.82369 6.40275L4.66667 4.71192Z" fill="white"/>
</g>
</svg>
