<svg width="28" height="20" viewBox="0 0 28 20" fill="none" xmlns="http://www.w3.org/2000/svg">
<rect x="0.25" y="0.25" width="27.5" height="19.5" rx="1.75" fill="white" stroke="#F5F5F5" stroke-width="0.5"/>
<mask id="mask0" style="mask-type:alpha" maskUnits="userSpaceOnUse" x="0" y="0" width="28" height="20">
<rect x="0.25" y="0.25" width="27.5" height="19.5" rx="1.75" fill="white" stroke="white" stroke-width="0.5"/>
</mask>
<g mask="url(#mask0)">
<path fill-rule="evenodd" clip-rule="evenodd" d="M0 5.33333H28V0H0V5.33333Z" fill="#D82332"/>
<path fill-rule="evenodd" clip-rule="evenodd" d="M0 19.9998H28V14.6665H0V19.9998Z" fill="#D82332"/>
<path fill-rule="evenodd" clip-rule="evenodd" d="M13.0676 10.7524L12.7832 11.0177C13.0403 11.0899 13.3971 11.0059 13.5391 10.7524H13.0676Z" fill="#064A89"/>
<path fill-rule="evenodd" clip-rule="evenodd" d="M10.7725 10.933C10.9649 11.1255 11.2838 11.103 11.4763 10.9812C11.6689 10.8593 11.8103 10.8515 11.9303 10.8643C11.943 10.9729 11.9714 11.1122 12.0201 11.2498H10.8782C10.8498 11.1793 10.7945 11.0149 10.7725 10.933Z" fill="#064A89"/>
<path fill-rule="evenodd" clip-rule="evenodd" d="M10.9841 11.4474C11.2083 11.3415 11.4374 11.4255 11.5365 11.5018C11.7196 11.643 12.022 11.6047 12.1704 11.5246C12.227 11.617 12.2958 11.7078 12.3787 11.7772H11.1569C11.1073 11.6971 11 11.5002 10.9841 11.4474Z" fill="#064A89"/>
<path fill-rule="evenodd" clip-rule="evenodd" d="M16.2983 12.325C16.3519 12.2704 16.4245 12.1807 16.4719 12.1166C16.393 12.1069 16.3012 12.0498 16.2037 12.0011C16.0237 11.9112 15.8517 11.9112 15.6986 12.0171C15.4714 12.1742 15.1873 12.2127 14.9663 12.0556C14.7239 11.8831 14.4992 11.9209 14.3098 12.03C14.1204 12.1389 14.0005 12.1454 13.8868 12.1454C13.7732 12.1454 13.6533 12.1389 13.4639 12.03C13.2745 11.9209 13.0498 11.8831 12.8074 12.0556C12.5864 12.2127 12.3023 12.1742 12.0751 12.0171C11.922 11.9112 11.75 11.9112 11.57 12.0011C11.4723 12.0498 11.3807 12.1069 11.3018 12.1166C11.3492 12.1807 11.4218 12.2704 11.4754 12.325H16.2983Z" fill="#064A89"/>
<path fill-rule="evenodd" clip-rule="evenodd" d="M15.7068 12.8612C15.7573 12.8292 15.8962 12.7234 15.9656 12.6688C15.8899 12.6849 15.7172 12.6286 15.628 12.5822C15.369 12.4474 15.1986 12.4603 15.0062 12.5629C14.8136 12.6656 14.5421 12.7201 14.3433 12.6111C14.1445 12.5021 14.0023 12.4731 13.8982 12.4731C13.7941 12.4731 13.652 12.5021 13.4531 12.6111C13.2543 12.7201 12.9829 12.6656 12.7903 12.5629C12.5978 12.4603 12.4274 12.4474 12.1685 12.5822C12.0793 12.6286 11.9066 12.6849 11.8308 12.6688C11.9002 12.7234 12.0392 12.8292 12.0896 12.8612H15.7068Z" fill="#064A89"/>
<path fill-rule="evenodd" clip-rule="evenodd" d="M14.5684 11.7947C14.5148 11.7658 14.452 11.6986 14.3948 11.6124C14.3033 11.4745 14.1581 11.3975 13.9403 11.3975C13.7225 11.3975 13.5773 11.4745 13.4858 11.6124C13.4286 11.6986 13.3658 11.7658 13.3123 11.7947H14.5684Z" fill="#064A89"/>
<path fill-rule="evenodd" clip-rule="evenodd" d="M14.2104 11.2998C14.1883 11.2613 14.141 11.1394 14.1252 11.0752C14.0746 11.0913 13.9768 11.0977 13.92 11.0977C13.8632 11.0977 13.7654 11.0913 13.7148 11.0752C13.6991 11.1394 13.6518 11.2613 13.6296 11.2998H14.2104Z" fill="#064A89"/>
<path fill-rule="evenodd" clip-rule="evenodd" d="M14.7361 10.7524L15.0205 11.0177C14.7634 11.0899 14.4067 11.0059 14.2646 10.7524H14.7361Z" fill="#064A89"/>
<path fill-rule="evenodd" clip-rule="evenodd" d="M17.0997 10.933C16.9072 11.1255 16.5883 11.103 16.3959 10.9812C16.2033 10.8593 16.0618 10.8515 15.9418 10.8643C15.929 10.9729 15.9007 11.1122 15.8521 11.2498H16.994C17.0223 11.1793 17.0776 11.0149 17.0997 10.933Z" fill="#064A89"/>
<path fill-rule="evenodd" clip-rule="evenodd" d="M16.929 11.4474C16.7049 11.3415 16.4758 11.4255 16.3766 11.5018C16.1936 11.643 15.8911 11.6047 15.7428 11.5246C15.6862 11.617 15.6174 11.7078 15.5344 11.7772H16.7562C16.8059 11.6971 16.9133 11.5002 16.929 11.4474Z" fill="#064A89"/>
<path fill-rule="evenodd" clip-rule="evenodd" d="M15.1588 13.0712C14.7761 13.2299 14.3572 13.3175 13.9183 13.3175C13.4789 13.3175 13.0603 13.23 12.6772 13.071C12.7593 13.0614 12.8679 13.0212 12.9556 12.9716C13.0977 12.8914 13.3564 12.8754 13.4796 12.9556C13.6026 13.0358 13.751 13.1159 13.9183 13.1159C14.0856 13.1159 14.234 13.0358 14.357 12.9556C14.4801 12.8754 14.7389 12.8914 14.8811 12.9716C14.9686 13.0212 15.0767 13.0616 15.1588 13.0712Z" fill="#064A89"/>
<path fill-rule="evenodd" clip-rule="evenodd" d="M14.6253 6.72676C13.9341 6.58246 13.3123 6.66579 13.3123 7.32654C13.3123 7.97439 13.3123 8.93654 13.3123 9.13547C13.3123 9.33429 13.3162 9.35945 13.549 9.4145C14.0539 9.53396 14.1013 9.54601 14.6505 9.67418V7.81407C14.2213 7.7659 14.0571 7.52117 14.0571 7.23676C14.0571 6.96095 14.2464 6.78128 14.6253 6.72676Z" fill="#514537"/>
<path fill-rule="evenodd" clip-rule="evenodd" d="M12.854 11.8282C12.4689 11.8282 12.0649 11.4882 12.0649 10.8404C12.0649 10.1924 12.0649 9.37779 12.0649 9.23026C12.0649 9.08435 12.0811 9.06381 12.0476 9.02983C12.0279 9.00983 12.0697 8.98016 12.098 8.95123C12.1407 8.9079 12.1699 8.87188 12.1123 8.81328C12.0547 8.75478 12.0792 8.73951 12.1155 8.70274C12.1518 8.66575 12.166 8.62897 12.1313 8.5936C12.0966 8.55833 12.0886 8.54715 12.1265 8.50865C12.1644 8.47016 12.1486 8.45414 12.1171 8.42199C12.0855 8.38994 12.0705 8.36672 12.1107 8.32586C12.1502 8.28575 12.1533 8.2793 12.1991 8.2793C12.2449 8.2793 12.3443 8.2793 12.3885 8.2793C12.4328 8.2793 12.4335 8.29295 12.3964 8.33069C12.3482 8.37951 12.334 8.39876 12.3885 8.45414C12.4429 8.5094 12.4406 8.5279 12.4059 8.56317C12.3537 8.61607 12.3309 8.6522 12.3838 8.70596C12.4367 8.75962 12.4413 8.78371 12.4011 8.82457C12.3609 8.86543 12.3569 8.90155 12.4011 8.94639C12.4351 8.98091 12.4374 9.00102 12.4374 9.06188C12.4374 9.42919 12.4374 10.4298 12.4374 10.7056C12.4374 10.9814 12.6331 11.1482 13.0056 11.1482C13.378 11.1482 13.5043 10.9942 13.6116 10.8917C13.5422 11.3855 13.3402 11.8282 12.854 11.8282Z" fill="#514537"/>
<path fill-rule="evenodd" clip-rule="evenodd" d="M13.9408 10.2546C13.9929 10.2705 14.0434 10.3475 14.0434 10.4309H14.146C14.146 10.3604 14.1159 10.2513 14.0616 10.1839C14.0607 10.1663 14.0584 10.1511 14.0545 10.1359C14.0923 10.0877 14.1476 10.0107 14.146 9.93693C14.1449 9.89037 14.0908 9.89209 14.0844 9.92897C14.0792 9.95929 14.0592 10.006 14.0213 10.022C14.0213 9.96263 13.9881 9.89209 13.9408 9.89209C13.8935 9.89209 13.8603 9.96263 13.8603 10.022C13.8224 10.006 13.8024 9.95929 13.7972 9.92897C13.7909 9.89209 13.7366 9.89037 13.7356 9.93693C13.734 10.0107 13.7893 10.0877 13.8272 10.1359C13.8232 10.1511 13.8209 10.1663 13.8201 10.1839C13.7657 10.2513 13.7356 10.3604 13.7356 10.4309H13.8383C13.8383 10.3475 13.8888 10.2705 13.9408 10.2546Z" fill="#514537"/>
<path fill-rule="evenodd" clip-rule="evenodd" d="M13.4118 10.2546C13.4638 10.2705 13.5144 10.3475 13.5144 10.4309H13.6169C13.6169 10.3604 13.587 10.2513 13.5325 10.1839C13.5318 10.1663 13.5293 10.1511 13.5254 10.1359C13.5633 10.0877 13.6185 10.0107 13.6169 9.93693C13.616 9.89037 13.5617 9.89209 13.5554 9.92897C13.5502 9.95929 13.5301 10.006 13.4923 10.022C13.4923 9.96263 13.4592 9.89209 13.4118 9.89209C13.3645 9.89209 13.3313 9.96263 13.3313 10.022C13.2935 10.006 13.2733 9.95929 13.2682 9.92897C13.2618 9.89209 13.2076 9.89037 13.2066 9.93693C13.205 10.0107 13.2602 10.0877 13.2981 10.1359C13.2942 10.1511 13.2919 10.1663 13.291 10.1839C13.2366 10.2513 13.2066 10.3604 13.2066 10.4309H13.3092C13.3092 10.3475 13.3597 10.2705 13.4118 10.2546Z" fill="#514537"/>
<path fill-rule="evenodd" clip-rule="evenodd" d="M12.8825 10.2546C12.9345 10.2705 12.985 10.3475 12.985 10.4309H13.0876C13.0876 10.3604 13.0576 10.2513 13.0032 10.1839C13.0024 10.1663 13 10.1511 12.9961 10.1359C13.034 10.0877 13.0892 10.0107 13.0876 9.93693C13.0866 9.89037 13.0324 9.89209 13.0261 9.92897C13.0209 9.95929 13.0008 10.006 12.9629 10.022C12.9629 9.96263 12.9298 9.89209 12.8825 9.89209C12.8351 9.89209 12.8019 9.96263 12.8019 10.022C12.7641 10.006 12.7441 9.95929 12.7389 9.92897C12.7325 9.89209 12.6782 9.89037 12.6773 9.93693C12.6757 10.0107 12.7309 10.0877 12.7688 10.1359C12.7649 10.1511 12.7625 10.1663 12.7617 10.1839C12.7072 10.2513 12.6773 10.3604 12.6773 10.4309H12.7798C12.7798 10.3475 12.8304 10.2705 12.8825 10.2546Z" fill="#514537"/>
<path fill-rule="evenodd" clip-rule="evenodd" d="M14.4699 10.2546C14.4178 10.2705 14.3673 10.3475 14.3673 10.4309H14.2647C14.2647 10.3604 14.2946 10.2513 14.3491 10.1839C14.3499 10.1663 14.3523 10.1511 14.3563 10.1359C14.3183 10.0877 14.2631 10.0107 14.2647 9.93693C14.2657 9.89037 14.3199 9.89209 14.3263 9.92897C14.3315 9.95929 14.3516 10.006 14.3893 10.022C14.3893 9.96263 14.4226 9.89209 14.4699 9.89209C14.5173 9.89209 14.5504 9.96263 14.5504 10.022C14.5882 10.006 14.6083 9.95929 14.6135 9.92897C14.6198 9.89209 14.674 9.89037 14.6751 9.93693C14.6766 10.0107 14.6214 10.0877 14.5835 10.1359C14.5874 10.1511 14.5899 10.1663 14.5906 10.1839C14.6451 10.2513 14.6751 10.3604 14.6751 10.4309H14.5724C14.5724 10.3475 14.5219 10.2705 14.4699 10.2546Z" fill="#514537"/>
<path fill-rule="evenodd" clip-rule="evenodd" d="M14.9989 10.2546C14.9469 10.2705 14.8964 10.3475 14.8964 10.4309H14.7937C14.7937 10.3604 14.8238 10.2513 14.8782 10.1839C14.879 10.1663 14.8814 10.1511 14.8853 10.1359C14.8474 10.0877 14.7921 10.0107 14.7937 9.93693C14.7947 9.89037 14.849 9.89209 14.8553 9.92897C14.8605 9.95929 14.8805 10.006 14.9184 10.022C14.9184 9.96263 14.9516 9.89209 14.9989 9.89209C15.0463 9.89209 15.0794 9.96263 15.0794 10.022C15.1173 10.006 15.1373 9.95929 15.1425 9.92897C15.1489 9.89209 15.203 9.89037 15.2041 9.93693C15.2057 10.0107 15.1505 10.0877 15.1126 10.1359C15.1165 10.1511 15.1188 10.1663 15.1197 10.1839C15.1742 10.2513 15.2041 10.3604 15.2041 10.4309H15.1016C15.1016 10.3475 15.051 10.2705 14.9989 10.2546Z" fill="#514537"/>
<path fill-rule="evenodd" clip-rule="evenodd" d="M12.5715 10.5376H15.3491V10.6709H12.5715V10.5376Z" fill="#514537"/>
<path fill-rule="evenodd" clip-rule="evenodd" d="M15.0222 11.8282C15.4073 11.8282 15.8113 11.4882 15.8113 10.8404C15.8113 10.1924 15.8113 9.37779 15.8113 9.23026C15.8113 9.08435 15.7951 9.06381 15.8287 9.02983C15.8484 9.00983 15.8066 8.98016 15.7782 8.95123C15.7355 8.9079 15.7063 8.87188 15.7639 8.81328C15.8216 8.75478 15.797 8.73951 15.7608 8.70274C15.7244 8.66575 15.7103 8.62897 15.745 8.5936C15.7797 8.55833 15.7876 8.54715 15.7497 8.50865C15.7118 8.47016 15.7276 8.45414 15.7591 8.42199C15.7908 8.38994 15.8057 8.36672 15.7655 8.32586C15.726 8.28575 15.723 8.2793 15.6771 8.2793C15.6313 8.2793 15.532 8.2793 15.4877 8.2793C15.4436 8.2793 15.4427 8.29295 15.4799 8.33069C15.528 8.37951 15.5422 8.39876 15.4877 8.45414C15.4333 8.5094 15.4357 8.5279 15.4704 8.56317C15.5225 8.61607 15.5453 8.6522 15.4925 8.70596C15.4396 8.75962 15.4348 8.78371 15.4751 8.82457C15.5153 8.86543 15.5194 8.90155 15.4751 8.94639C15.4412 8.98091 15.4388 9.00102 15.4388 9.06188C15.4388 9.42919 15.4388 10.4298 15.4388 10.7056C15.4388 10.9814 15.2431 11.1482 14.8707 11.1482C14.4982 11.1482 14.3721 10.9942 14.2646 10.8917C14.3341 11.3855 14.5361 11.8282 15.0222 11.8282Z" fill="#514537"/>
<path fill-rule="evenodd" clip-rule="evenodd" d="M12.5715 9.67434C12.5715 9.67434 12.5716 9.57971 12.5716 9.4624L13.1269 9.67445L12.5715 9.67434Z" fill="#EEA339"/>
<path fill-rule="evenodd" clip-rule="evenodd" d="M11.9092 9.77249L10.6667 9.60227C10.7028 9.33173 10.7711 9.06797 10.8693 8.81689L11.9092 9.23636V9.77249Z" fill="#EEA339"/>
<path fill-rule="evenodd" clip-rule="evenodd" d="M14.4763 7.69565L14.6972 6.77393C14.9556 6.83758 15.2068 6.9335 15.4449 7.05995L14.7326 8.44532L14.7352 7.74973C14.6529 7.75016 14.5268 7.73737 14.4763 7.69565Z" fill="#EEA339"/>
<path fill-rule="evenodd" clip-rule="evenodd" d="M11.9385 9.86273L10.6729 9.78467C10.6566 10.0543 10.6728 10.3265 10.7215 10.595C10.7215 10.595 11.9385 10.6027 11.9385 10.595V9.86273Z" fill="#EEA339"/>
<path fill-rule="evenodd" clip-rule="evenodd" d="M11.9258 8.99525C11.8849 8.94073 11.9102 8.9117 11.9543 8.88278C11.9985 8.85396 11.9922 8.83149 11.9702 8.78987C11.948 8.74815 11.9259 8.70321 11.967 8.65837C12.008 8.61342 11.9922 8.59417 11.9606 8.56213C11.9291 8.53009 11.9259 8.49482 11.9543 8.46912C11.9828 8.44342 11.9764 8.42417 11.9576 8.39858C11.9385 8.37288 11.9014 8.32084 11.9346 8.28719L11.4183 7.84912C11.2477 8.05643 11.1017 8.28525 10.9841 8.53063L11.9258 8.99525Z" fill="#EEA339"/>
<path fill-rule="evenodd" clip-rule="evenodd" d="M13.1628 9.23421L12.5475 8.62786C12.6343 8.53969 12.643 8.52528 12.5815 8.4627C12.5144 8.39453 12.5119 8.38743 12.6485 8.24862C12.695 8.20141 12.669 8.1684 12.6027 8.1684C12.5365 8.1684 12.2318 8.1684 12.1971 8.1684C12.1624 8.1684 12.1351 8.17023 12.1097 8.19604L11.6191 7.71346C11.8063 7.51765 12.0154 7.34679 12.2413 7.2041L13.1628 8.71002V9.23421Z" fill="#EEA339"/>
<path fill-rule="evenodd" clip-rule="evenodd" d="M12.5227 9.32636C12.5227 9.17571 12.5228 9.02657 12.5228 9.00539C12.5228 8.96044 12.5197 8.94281 12.485 8.90754C12.4503 8.87227 12.4676 8.85539 12.4945 8.81689L13.0782 9.31098V9.60109L12.5227 9.32636Z" fill="#EEA339"/>
<path fill-rule="evenodd" clip-rule="evenodd" d="M13.0696 8.44608C13.0696 8.15672 13.0696 7.88909 13.0696 7.73489C13.0696 7.27307 13.0951 7.0421 13.1613 6.99565L13.1083 6.77393C12.8492 6.84479 12.598 6.9407 12.3599 7.06715L13.0696 8.44608Z" fill="#EEA339"/>
<path fill-rule="evenodd" clip-rule="evenodd" d="M15.349 9.67434C15.349 9.67434 15.3489 9.57971 15.3489 9.4624L14.7937 9.67445L15.349 9.67434Z" fill="#EEA339"/>
<path fill-rule="evenodd" clip-rule="evenodd" d="M15.9578 9.77249L17.2002 9.60227C17.1641 9.33173 17.0959 9.06797 16.9977 8.81689L15.9578 9.23636V9.77249Z" fill="#EEA339"/>
<path fill-rule="evenodd" clip-rule="evenodd" d="M15.9578 9.86273L17.2233 9.78467C17.2396 10.0543 17.2235 10.3265 17.1747 10.595C17.1747 10.595 15.9578 10.6027 15.9578 10.595V9.86273Z" fill="#EEA339"/>
<path fill-rule="evenodd" clip-rule="evenodd" d="M15.9179 8.99525C15.9589 8.94073 15.9335 8.9117 15.8894 8.88278C15.8452 8.85396 15.8515 8.83149 15.8735 8.78987C15.8957 8.74815 15.9178 8.70321 15.8767 8.65837C15.8357 8.61342 15.8515 8.59417 15.8831 8.56213C15.9146 8.53009 15.9178 8.49482 15.8894 8.46912C15.861 8.44342 15.8673 8.42417 15.8861 8.39858C15.9052 8.37288 15.9422 8.32084 15.9091 8.28719L16.4254 7.84912C16.596 8.05643 16.7419 8.28525 16.8595 8.53063L15.9179 8.99525Z" fill="#EEA339"/>
<path fill-rule="evenodd" clip-rule="evenodd" d="M14.7937 9.23421L15.409 8.62786C15.3222 8.53969 15.3135 8.52528 15.3751 8.4627C15.4422 8.39453 15.4446 8.38743 15.3081 8.24862C15.2614 8.20141 15.2876 8.1684 15.3538 8.1684C15.4201 8.1684 15.7247 8.1684 15.7594 8.1684C15.7941 8.1684 15.8214 8.17023 15.8468 8.19604L16.3374 7.71346C16.1502 7.51765 15.9411 7.34679 15.7153 7.2041L14.7937 8.71002V9.23421Z" fill="#EEA339"/>
<path fill-rule="evenodd" clip-rule="evenodd" d="M15.3492 9.32636C15.3492 9.17571 15.349 9.02657 15.349 9.00539C15.349 8.96044 15.3522 8.94281 15.3869 8.90754C15.4216 8.87227 15.4043 8.85539 15.3774 8.81689L14.7937 9.31098V9.60109L15.3492 9.32636Z" fill="#EEA339"/>
<path fill-rule="evenodd" clip-rule="evenodd" d="M12.1482 9.03223C12.1703 9.0547 12.1798 9.07707 12.1798 9.13158C12.1798 9.1861 12.1798 10.3792 12.1798 10.8475C12.1798 11.4184 12.5207 11.7359 12.8711 11.7359C13.193 11.7359 13.4045 11.4376 13.515 11.0913C13.373 11.2035 13.1646 11.2388 12.9657 11.2388C12.7353 11.2388 12.3629 11.0817 12.3629 10.7417C12.3629 10.4274 12.3629 9.26309 12.3629 9.07707C12.3629 9.03223 12.3187 9.03223 12.1482 9.03223Z" fill="#D82332"/>
<path fill-rule="evenodd" clip-rule="evenodd" d="M14.1611 6.78377C13.721 6.7385 13.3128 6.83151 13.3128 7.44162C13.3128 8.08313 13.3128 8.8656 13.3128 9.06259C13.3128 9.33323 13.2918 9.30108 13.5175 9.35796C13.9271 9.46119 13.9735 9.47431 14.4702 9.58958V7.94033C14.0461 7.89313 13.8623 7.61087 13.8623 7.29829C13.8623 7.04958 13.9704 6.81549 14.1611 6.78377Z" fill="#D82332"/>
<path fill-rule="evenodd" clip-rule="evenodd" d="M15.7371 9.03223C15.715 9.0547 15.7055 9.07707 15.7055 9.13158C15.7055 9.1861 15.7055 10.3792 15.7055 10.8475C15.7055 11.4184 15.3646 11.7359 15.0143 11.7359C14.6924 11.7359 14.4808 11.4376 14.3704 11.0913C14.5125 11.2035 14.7207 11.2388 14.9197 11.2388C15.15 11.2388 15.5224 11.0817 15.5224 10.7417C15.5224 10.4274 15.5224 9.26309 15.5224 9.07707C15.5224 9.03223 15.5667 9.03223 15.7371 9.03223Z" fill="#D82332"/>
<mask id="mask1" style="mask-type:alpha" maskUnits="userSpaceOnUse" x="10" y="6" width="8" height="8">
<path fill-rule="evenodd" clip-rule="evenodd" d="M14.0001 13.3332C15.841 13.3332 17.3334 11.8408 17.3334 9.99984C17.3334 8.15889 15.841 6.6665 14.0001 6.6665C12.1591 6.6665 10.6667 8.15889 10.6667 9.99984C10.6667 11.8408 12.1591 13.3332 14.0001 13.3332Z" fill="white"/>
</mask>
<g mask="url(#mask1)">
<path fill-rule="evenodd" clip-rule="evenodd" d="M14.0001 18.6667C15.841 18.6667 17.3334 17.1743 17.3334 15.3333C17.3334 13.4924 15.841 12 14.0001 12C12.1591 12 10.6667 13.4924 10.6667 15.3333C10.6667 17.1743 12.1591 18.6667 14.0001 18.6667Z" fill="#064A89"/>
</g>
</g>
</svg>
