<svg width="28" height="20" viewBox="0 0 28 20" fill="none" xmlns="http://www.w3.org/2000/svg">
<rect width="28" height="20" rx="2" fill="white"/>
<mask id="mask0" style="mask-type:alpha" maskUnits="userSpaceOnUse" x="0" y="0" width="28" height="20">
<rect width="28" height="20" rx="2" fill="white"/>
</mask>
<g mask="url(#mask0)">
<rect width="28" height="20" fill="#262626"/>
<path fill-rule="evenodd" clip-rule="evenodd" d="M0 0H28V20L0 0Z" fill="#E8283F"/>
<path fill-rule="evenodd" clip-rule="evenodd" d="M6.66659 16.6665L5.72378 16.9426L5.99992 15.9998L5.72378 15.057L6.66659 15.3332L7.60939 15.057L7.33325 15.9998L7.60939 16.9426L6.66659 16.6665Z" fill="white"/>
<path fill-rule="evenodd" clip-rule="evenodd" d="M6.66659 8.6665L5.72378 8.94265L5.99992 7.99984L5.72378 7.05703L6.66659 7.33317L7.60939 7.05703L7.33325 7.99984L7.60939 8.94265L6.66659 8.6665Z" fill="white"/>
<path fill-rule="evenodd" clip-rule="evenodd" d="M3.33333 12L2.39052 12.2761L2.66667 11.3333L2.39052 10.3905L3.33333 10.6667L4.27614 10.3905L4 11.3333L4.27614 12.2761L3.33333 12Z" fill="white"/>
<path fill-rule="evenodd" clip-rule="evenodd" d="M9.33333 11.3335L8.39052 11.6096L8.66667 10.6668L8.39052 9.72402L9.33333 10.0002L10.2761 9.72402L10 10.6668L10.2761 11.6096L9.33333 11.3335Z" fill="white"/>
<path fill-rule="evenodd" clip-rule="evenodd" d="M18.8613 9.26541C18.7017 9.16964 18.5723 8.94404 18.5723 8.76355L18.5723 7.53483C18.5723 7.35343 18.4418 7.24988 18.2443 7.31571L17.4861 7.56845C17.3049 7.62883 17.0275 7.63428 16.8301 7.56845L16.0718 7.31571C15.8907 7.25533 15.8706 7.13034 16.0329 7.03297L17.8118 5.96558C17.9715 5.8698 18.0574 5.66165 17.9915 5.46416L17.7388 4.70596C17.6784 4.5248 17.76 4.42146 17.9575 4.48729L18.7157 4.74002C18.8968 4.80041 19.1197 4.72263 19.2171 4.56034L20.2845 2.78135C20.3802 2.62173 20.5014 2.62284 20.5672 2.82034L20.82 3.57854C20.8803 3.75969 20.8858 4.03706 20.82 4.23455L20.5672 4.99276C20.5068 5.17391 20.6058 5.32076 20.7863 5.32076H22.0151C22.1965 5.32076 22.4195 5.44748 22.5169 5.60978L23.5843 7.38877C23.6801 7.54839 23.6031 7.70871 23.43 7.74333L21.7284 8.08364C21.5474 8.11984 21.3698 8.30384 21.3351 8.47692L20.9948 10.1785C20.9586 10.3595 20.8026 10.4302 20.6403 10.3328L18.8613 9.26541Z" fill="#FFD84E"/>
</g>
</svg>
