<svg width="28" height="20" viewBox="0 0 28 20" fill="none" xmlns="http://www.w3.org/2000/svg">
<rect width="28" height="20" rx="2" fill="white"/>
<mask id="mask0" style="mask-type:alpha" maskUnits="userSpaceOnUse" x="0" y="0" width="28" height="20">
<rect width="28" height="20" rx="2" fill="white"/>
</mask>
<g mask="url(#mask0)">
<rect width="28" height="20" fill="#128C4B"/>
<path fill-rule="evenodd" clip-rule="evenodd" d="M6.66675 12.0002H17.3334V11.0788C17.3334 10.5833 17.855 10.2609 18.2982 10.4826L18.6667 10.6668V12.0002H20.6667C21.0349 12.0002 21.3334 12.2986 21.3334 12.6668V13.3335C21.3334 14.0699 20.7365 14.6668 20.0001 14.6668H18.0001C17.6319 14.6668 17.3334 14.3683 17.3334 14.0002V13.3335H8.27622C8.09941 13.3335 7.92984 13.2632 7.80482 13.1382L6.66675 12.0002Z" fill="white"/>
<path fill-rule="evenodd" clip-rule="evenodd" d="M6.66675 8.13823C6.66675 8.04983 6.70187 7.96504 6.76438 7.90253L7.09771 7.5692C7.22789 7.43902 7.22789 7.22797 7.09771 7.09779L6.76438 6.76446C6.70187 6.70195 6.66675 6.61716 6.66675 6.52876V5.66683C6.66675 5.48273 6.81599 5.3335 7.00008 5.3335H7.74544C7.88607 5.3335 8.00008 5.4475 8.00008 5.58814C8.00008 5.85685 8.36232 5.94236 8.48249 5.70202L8.58187 5.50326C8.63389 5.39922 8.74023 5.3335 8.85655 5.3335H10.3334C10.5175 5.3335 10.6667 5.48273 10.6667 5.66683C10.6667 5.85092 10.5175 6.00016 10.3334 6.00016H9.66675C9.48265 6.00016 9.33341 6.1494 9.33341 6.3335C9.33341 6.51759 9.48265 6.66683 9.66675 6.66683H10.3334C10.5175 6.66683 10.6667 6.81607 10.6667 7.00016V9.00016C10.6667 9.18426 10.5175 9.3335 10.3334 9.3335H9.66675C9.48265 9.3335 9.33341 9.18426 9.33341 9.00016V8.3335C9.33341 8.1494 9.48265 8.00016 9.66675 8.00016C9.85084 8.00016 10.0001 7.85092 10.0001 7.66683C10.0001 7.48273 9.85084 7.3335 9.66675 7.3335H9.00008C8.81599 7.3335 8.66675 7.48273 8.66675 7.66683V9.00016C8.66675 9.18426 8.51751 9.3335 8.33341 9.3335C8.14932 9.3335 8.00008 9.18426 8.00008 9.00016V8.3335C8.00008 8.1494 7.85084 8.00016 7.66675 8.00016C7.48265 8.00016 7.33341 8.1494 7.33341 8.3335V9.00016C7.33341 9.18426 7.18418 9.3335 7.00008 9.3335C6.81599 9.3335 6.66675 9.18426 6.66675 9.00016V8.13823Z" fill="white"/>
<path fill-rule="evenodd" clip-rule="evenodd" d="M17.3333 8.13823C17.3333 8.04983 17.3684 7.96504 17.4309 7.90253L17.7642 7.5692C17.8944 7.43902 17.8944 7.22797 17.7642 7.09779L17.4309 6.76446C17.3684 6.70195 17.3333 6.61716 17.3333 6.52876V5.66683C17.3333 5.48273 17.4825 5.3335 17.6666 5.3335H18.4119C18.5526 5.3335 18.6666 5.4475 18.6666 5.58814C18.6666 5.85685 19.0288 5.94236 19.149 5.70202L19.2484 5.50326C19.3004 5.39922 19.4067 5.3335 19.5231 5.3335H20.9999C21.184 5.3335 21.3333 5.48273 21.3333 5.66683C21.3333 5.85092 21.184 6.00016 20.9999 6.00016H20.3333C20.1492 6.00016 19.9999 6.1494 19.9999 6.3335C19.9999 6.51759 20.1492 6.66683 20.3333 6.66683H20.9999C21.184 6.66683 21.3333 6.81607 21.3333 7.00016V9.00016C21.3333 9.18426 21.184 9.3335 20.9999 9.3335H20.3333C20.1492 9.3335 19.9999 9.18426 19.9999 9.00016V8.3335C19.9999 8.1494 20.1492 8.00016 20.3333 8.00016C20.5173 8.00016 20.6666 7.85092 20.6666 7.66683C20.6666 7.48273 20.5173 7.3335 20.3333 7.3335H19.6666C19.4825 7.3335 19.3333 7.48273 19.3333 7.66683V9.00016C19.3333 9.18426 19.184 9.3335 18.9999 9.3335C18.8158 9.3335 18.6666 9.18426 18.6666 9.00016V8.3335C18.6666 8.1494 18.5173 8.00016 18.3333 8.00016C18.1492 8.00016 17.9999 8.1494 17.9999 8.3335V9.00016C17.9999 9.18426 17.8507 9.3335 17.6666 9.3335C17.4825 9.3335 17.3333 9.18426 17.3333 9.00016V8.13823Z" fill="white"/>
<path fill-rule="evenodd" clip-rule="evenodd" d="M16 6.33037C16 6.51619 15.8958 6.771 15.7593 6.90751L15.574 7.09281C15.4411 7.22574 15.4375 7.43766 15.574 7.57418L15.7593 7.75948C15.8922 7.89241 16 8.14285 16 8.33662V8.99704C16 9.18286 15.8573 9.3335 15.6635 9.3335H15.0031C14.8173 9.3335 14.6667 9.19081 14.6667 8.99704V8.33662C14.6667 8.1508 14.6051 8.12321 14.512 8.30941L14.1546 9.02425C14.0692 9.19504 13.8431 9.3335 13.6697 9.3335H12.3303C12.1479 9.3335 12 9.17887 12 9.00016C12 8.81607 12.1427 8.66683 12.3365 8.66683H12.9969C13.1827 8.66683 13.3333 8.51221 13.3333 8.3335C13.3333 8.1494 13.1906 8.00016 12.9969 8.00016H12.3365C12.1506 8.00016 12 7.85679 12 7.67318V5.66048C12 5.47989 12.1427 5.3335 12.3365 5.3335H12.9969C13.1827 5.3335 13.3333 5.47619 13.3333 5.66995V6.33037C13.3333 6.51619 13.1787 6.66683 13 6.66683C12.8159 6.66683 12.6667 6.82145 12.6667 7.00016C12.6667 7.18426 12.8094 7.3335 13.0031 7.3335H13.6635C13.8494 7.3335 14 7.17656 14 7.00324V5.66376C14 5.48136 14.1546 5.3335 14.3333 5.3335C14.5174 5.3335 14.6667 5.47619 14.6667 5.66995V6.33037C14.6667 6.51619 14.8213 6.66683 15 6.66683C15.1841 6.66683 15.3333 6.52414 15.3333 6.33037V5.66995C15.3333 5.48413 15.488 5.3335 15.6667 5.3335C15.8508 5.3335 16 5.47619 16 5.66995V6.33037Z" fill="white"/>
</g>
</svg>
