<svg width="28" height="20" viewBox="0 0 28 20" fill="none" xmlns="http://www.w3.org/2000/svg">
<rect x="0.25" y="0.25" width="27.5" height="19.5" rx="1.75" fill="white" stroke="#F5F5F5" stroke-width="0.5"/>
<mask id="mask0" style="mask-type:alpha" maskUnits="userSpaceOnUse" x="0" y="0" width="28" height="20">
<rect x="0.25" y="0.25" width="27.5" height="19.5" rx="1.75" fill="white" stroke="white" stroke-width="0.5"/>
</mask>
<g mask="url(#mask0)">
<path fill-rule="evenodd" clip-rule="evenodd" d="M0 10.6667H28V0H0V10.6667Z" fill="#E12237"/>
<path fill-rule="evenodd" clip-rule="evenodd" d="M6.66675 9.33325C7.61186 9.33325 8.48041 9.00547 9.16493 8.4574C8.80232 8.59265 8.40984 8.66658 8.00008 8.66658C6.15913 8.66658 4.66675 7.1742 4.66675 5.33325C4.66675 3.4923 6.15913 1.99992 8.00008 1.99992C8.40984 1.99992 8.80232 2.07385 9.16493 2.20911C8.48041 1.66103 7.61186 1.33325 6.66675 1.33325C4.45761 1.33325 2.66675 3.12411 2.66675 5.33325C2.66675 7.54239 4.45761 9.33325 6.66675 9.33325ZM8.00008 4.66659C8.00008 5.03478 7.7016 5.33325 7.33341 5.33325C6.96522 5.33325 6.66675 5.03478 6.66675 4.66659C6.66675 4.2984 6.96522 3.99992 7.33341 3.99992C7.7016 3.99992 8.00008 4.2984 8.00008 4.66659ZM8.66675 7.99992C9.03494 7.99992 9.33342 7.70144 9.33342 7.33325C9.33342 6.96506 9.03494 6.66659 8.66675 6.66659C8.29856 6.66659 8.00008 6.96506 8.00008 7.33325C8.00008 7.70144 8.29856 7.99992 8.66675 7.99992ZM12.0001 7.33325C12.0001 7.70144 11.7016 7.99992 11.3334 7.99992C10.9652 7.99992 10.6667 7.70144 10.6667 7.33325C10.6667 6.96506 10.9652 6.66659 11.3334 6.66659C11.7016 6.66659 12.0001 6.96506 12.0001 7.33325ZM12.6667 5.33325C13.0349 5.33325 13.3334 5.03478 13.3334 4.66659C13.3334 4.2984 13.0349 3.99992 12.6667 3.99992C12.2986 3.99992 12.0001 4.2984 12.0001 4.66659C12.0001 5.03478 12.2986 5.33325 12.6667 5.33325ZM10.6667 2.66659C10.6667 3.03478 10.3683 3.33325 10.0001 3.33325C9.63189 3.33325 9.33341 3.03478 9.33341 2.66659C9.33341 2.2984 9.63189 1.99992 10.0001 1.99992C10.3683 1.99992 10.6667 2.2984 10.6667 2.66659Z" fill="white"/>
</g>
</svg>
