<svg width="28" height="20" viewBox="0 0 28 20" fill="none" xmlns="http://www.w3.org/2000/svg">
<rect x="0.25" y="0.25" width="27.5" height="19.5" rx="1.75" fill="white" stroke="#F5F5F5" stroke-width="0.5"/>
<mask id="mask0" style="mask-type:alpha" maskUnits="userSpaceOnUse" x="0" y="0" width="28" height="20">
<rect x="0.25" y="0.25" width="27.5" height="19.5" rx="1.75" fill="white" stroke="white" stroke-width="0.5"/>
</mask>
<g mask="url(#mask0)">
<path fill-rule="evenodd" clip-rule="evenodd" d="M0 13.3334H28V6.66675H0V13.3334Z" fill="#0C47B7"/>
<path fill-rule="evenodd" clip-rule="evenodd" d="M0 19.9999H28V13.3333H0V19.9999Z" fill="#E53B35"/>
<path d="M6.94965 3.33333C5.87499 3.33333 4.99243 4.1826 4.95113 5.25647L4.69188 11.9969C4.66841 12.6073 4.92509 13.1948 5.38882 13.5923L8.2645 16.0572C9.26314 16.9132 10.7368 16.9132 11.7354 16.0572L14.6111 13.5923C15.0748 13.1948 15.3315 12.6073 15.308 11.9969L15.0488 5.25647C15.0075 4.1826 14.1249 3.33333 13.0502 3.33333H6.94965Z" fill="#F73744" stroke="white" stroke-width="1.33333"/>
<mask id="mask1" style="mask-type:alpha" maskUnits="userSpaceOnUse" x="4" y="2" width="12" height="16">
<path d="M6.94965 3.33333C5.87499 3.33333 4.99243 4.1826 4.95113 5.25647L4.69188 11.9969C4.66841 12.6073 4.92509 13.1948 5.38882 13.5923L8.2645 16.0572C9.26314 16.9132 10.7368 16.9132 11.7354 16.0572L14.6111 13.5923C15.0748 13.1948 15.3315 12.6073 15.308 11.9969L15.0488 5.25647C15.0075 4.1826 14.1249 3.33333 13.0502 3.33333H6.94965Z" fill="white" stroke="white" stroke-width="1.33333"/>
</mask>
<g mask="url(#mask1)">
<path fill-rule="evenodd" clip-rule="evenodd" d="M9.33325 10.9999C9.33325 10.8158 9.18401 10.6666 8.99992 10.6666H7.66659C7.48249 10.6666 7.33325 10.5173 7.33325 10.3333V9.66659C7.33325 9.48249 7.48249 9.33325 7.66659 9.33325H8.99992C9.18401 9.33325 9.33325 9.18401 9.33325 8.99992V8.33325C9.33325 8.14916 9.18401 7.99992 8.99992 7.99992H8.33325C8.14916 7.99992 7.99992 7.85068 7.99992 7.66659V6.99992C7.99992 6.81582 8.14916 6.66659 8.33325 6.66659H8.99992C9.18401 6.66659 9.33325 6.51735 9.33325 6.33325V5.66659C9.33325 5.48249 9.48249 5.33325 9.66659 5.33325H10.3333C10.5173 5.33325 10.6666 5.48249 10.6666 5.66659V6.33325C10.6666 6.51735 10.8158 6.66659 10.9999 6.66659H11.6666C11.8507 6.66659 11.9999 6.81582 11.9999 6.99992V7.66658C11.9999 7.85068 11.8507 7.99992 11.6666 7.99992H10.9999C10.8158 7.99992 10.6666 8.14916 10.6666 8.33325V8.99992C10.6666 9.18401 10.8158 9.33325 10.9999 9.33325H12.3333C12.5173 9.33325 12.6666 9.48249 12.6666 9.66659V10.3333C12.6666 10.5173 12.5173 10.6666 12.3333 10.6666H10.9999C10.8158 10.6666 10.6666 10.8158 10.6666 10.9999V12.9999C10.6666 13.184 10.5173 13.3333 10.3333 13.3333H9.66659C9.48249 13.3333 9.33325 13.184 9.33325 12.9999V10.9999Z" fill="white"/>
<path fill-rule="evenodd" clip-rule="evenodd" d="M11.2035 13.4255C10.9889 12.9767 10.5307 12.6667 10 12.6667C9.46934 12.6667 9.01109 12.9767 8.79647 13.4255C7.17545 13.6809 6 14.4385 6 15.3334C6 16.438 7.79086 17.3334 10 17.3334C12.2091 17.3334 14 16.438 14 15.3334C14 14.4385 12.8246 13.6809 11.2035 13.4255Z" fill="#1251A1"/>
</g>
</g>
</svg>
