<svg width="28" height="20" viewBox="0 0 28 20" fill="none" xmlns="http://www.w3.org/2000/svg">
<rect width="28" height="20" rx="2" fill="white"/>
<mask id="mask0" style="mask-type:alpha" maskUnits="userSpaceOnUse" x="0" y="0" width="28" height="20">
<rect width="28" height="20" rx="2" fill="white"/>
</mask>
<g mask="url(#mask0)">
<rect width="28" height="20" fill="#07319C"/>
<path d="M17.6666 9.99992V9.94851V9.89681V9.84485V9.79264V9.74018V9.6875V9.63459V9.58149V9.52819V9.47471V9.42106V9.36726V9.31331V9.28629V9.27953V9.27277V9.25924V9.20505V9.15075V9.09636V9.04189V8.98736V8.93276V8.87813V8.82347V8.76879V8.74144V8.73461V8.72777V8.72093V8.7141V8.70726V8.70043V8.69359V8.68676V8.67992V8.67309V8.66625V8.65942V8.65259V8.64575V8.63892V8.63209V8.62526V8.61842V8.61159V8.60476V8.59793V8.5911V8.58427V8.57744V8.57062V8.56379V8.55696V8.55013V8.54331V8.53648V8.52966V8.52284V8.51601V8.50919V8.50237V8.49555V8.48873V8.48192V8.4751V8.46828V8.46147V8.45465V8.44784V8.44103V8.43422V8.42741V8.4206V8.41379V8.40699V8.40018V8.39338V8.38657V8.37977V8.37297V8.36617V8.35938V8.35258V8.34579V8.33899V8.3322V8.32541V8.31862V8.31184V8.30505V8.29827V8.29148V8.2847V8.27792V8.27115V8.26437V8.2576V8.25082V8.24405V8.23728V8.23052V8.22375V8.21699V8.21023V8.20347V8.19671V8.18996V8.1832V8.17645V8.1697V8.16295V8.15621V8.14947V8.14273V8.13599V8.12925V8.12252V8.11578V8.10905V8.10233V8.0956V8.08888V8.08216V8.07544V8.06872V8.06201V8.0553V8.04859V8.04188V8.03518V8.02848V8.02178V8.01509V8.00839V8.0017V7.99501V7.98833V7.98165V7.97497V7.96829V7.96162V7.95495V7.94828V7.94161V7.93495V7.92829V7.92163V7.91498V7.90833V7.90168V7.89504V7.88839V7.87512V7.84861V7.79575V7.7431V7.69069V7.63852V7.58661V7.53497V7.48361V7.43255V7.38179V7.33135V7.28125V7.23148V7.18208V7.13304V7.08439V7.03613V6.94084V6.84728V6.75555V6.66574C17.6666 6.11373 18.114 5.66659 18.6666 5.66659H22.6666C23.2191 5.66659 23.6666 6.11373 23.6666 6.66574V6.67129V6.67686V6.68243V6.688V6.69359V6.69918V6.70479V6.7104V6.71601V6.72164V6.72727V6.73291V6.73856V6.74421V6.74988V6.75555V6.76122V6.76691V6.7726V6.7783V6.78401V6.78973V6.79545V6.80118V6.80692V6.81266V6.81841V6.82417V6.82994V6.83571V6.84149V6.84728V6.85308V6.85888V6.86469V6.8705V6.87633V6.88216V6.888V6.89384V6.89969V6.90555V6.91141V6.91729V6.92316V6.92905V6.93494V6.94084V6.94675V6.95266V6.95858V6.96451V6.97044V6.97638V6.98232V6.98828V6.99424V7.0002V7.00617V7.01215V7.01814V7.02413V7.03013V7.03613V7.04214V7.04816V7.05418V7.06021V7.06625V7.07229V7.07834V7.08439V7.09045V7.09652V7.10259V7.10867V7.11475V7.12084V7.12694V7.13304V7.13915V7.14527V7.15139V7.15752V7.16365V7.16979V7.17593V7.18208V7.18824V7.1944V7.20056V7.20674V7.21292V7.2191V7.22529V7.23149V7.23769V7.24389V7.25011V7.25632V7.26255V7.26877V7.27501V7.28125V7.28749V7.29374V7.3V7.30626V7.31252V7.3188V7.32507V7.33135V7.33764V7.34393V7.35023V7.35653V7.36284V7.36915V7.37547V7.38179V7.38812V7.39445V7.40079V7.40713V7.41348V7.41983V7.42619V7.43255V7.43892V7.44529V7.45166V7.45805V7.46443V7.47082V7.47722V7.48361V7.49002V7.49643V7.50284V7.50926V7.51568V7.52211V7.52854V7.53497V7.54141V7.54786V7.55431V7.56076V7.56722V7.57368V7.58014V7.58661V7.59309V7.59957V7.60605V7.61254V7.61903V7.62552V7.63202V7.63853V7.64503V7.65154V7.65806V7.66458V7.6711V7.67763V7.68416V7.69069V7.69723V7.70377V7.71032V7.71687V7.72342V7.72998V7.73654V7.7431V7.74967V7.75624V7.76282V7.7694V7.77598V7.78257V7.78916V7.79575V7.80234V7.80894V7.81555V7.82215V7.82876V7.83538V7.84199V7.84861V7.85523V7.86186V7.86849V7.87512V7.88176V7.8884V7.89504V7.90168V7.90833V7.91498V7.92163V7.92829V7.93495V7.94161V7.94828V7.95495V7.96162V7.96829V7.97497V7.98165V7.98833V7.99502V8.0017V8.00839V8.01509V8.02178V8.02848V8.03518V8.04189V8.04859V8.0553V8.06201V8.06872V8.07544V8.08216V8.08888V8.0956V8.10233V8.10905V8.11578V8.12252V8.12925V8.13599V8.14273V8.14947V8.15621V8.16296V8.1697V8.17645V8.1832V8.18996V8.19671V8.20347V8.21023V8.21699V8.22375V8.23052V8.23729V8.24405V8.25082V8.2576V8.26437V8.27115V8.27792V8.2847V8.29148V8.29827V8.30505V8.31184V8.31862V8.32541V8.3322V8.33899V8.34579V8.35258V8.35938V8.36617V8.37297V8.37977V8.38657V8.39338V8.40018V8.40699V8.41379V8.4206V8.42741V8.43422V8.44103V8.44784V8.45465V8.46147V8.46828V8.4751V8.48192V8.48873V8.49555V8.50237V8.50919V8.51602V8.52284V8.52966V8.53648V8.54331V8.55014V8.55696V8.56379V8.57062V8.57744V8.58427V8.5911V8.59793V8.60476V8.61159V8.61842V8.62526V8.63209V8.63892V8.64575V8.65259V8.65942V8.66625V8.67309V8.67992V8.68676V8.69359V8.70043V8.70726V8.7141V8.72094V8.72777V8.73461V8.74144V8.74828V8.75511V8.76195V8.76879V8.77562V8.78246V8.78929V8.79613V8.80296V8.8098V8.81663V8.82347V8.8303V8.83714V8.84397V8.8508V8.85764V8.86447V8.8713V8.87813V8.88496V8.89179V8.89862V8.90545V8.91228V8.91911V8.92594V8.93276V8.93959V8.94642V8.95324V8.96007V8.96689V8.97371V8.98053V8.98736V8.99418V9.001V9.00781V9.01463V9.02145V9.02826V9.03508V9.04189V9.0487V9.05552V9.06233V9.06914V9.07594V9.08275V9.08956V9.09636V9.10316V9.10997V9.11677V9.12357V9.13036V9.13716V9.14396V9.15075V9.15754V9.16433V9.17112V9.17791V9.1847V9.19148V9.19826V9.20505V9.21183V9.2186V9.22538V9.23216V9.23893V9.2457V9.25247V9.25924V9.266V9.27277V9.27953V9.28629V9.29305V9.2998V9.30656V9.31331V9.32006V9.32681V9.33356V9.3403V9.34704V9.35378V9.36052V9.36726V9.37399V9.38072V9.38745V9.39418V9.4009V9.40762V9.41434V9.42106V9.42777V9.43448V9.44119V9.4479V9.45461V9.46131V9.46801V9.47471V9.4814V9.48809V9.49478V9.50147V9.50815V9.51483V9.52151V9.52819V9.53486V9.54153V9.54819V9.55486V9.56152V9.56818V9.57483V9.58149V9.58813V9.59478V9.60142V9.60806V9.6147V9.62134V9.62797V9.63459V9.64122V9.64784V9.65446V9.66107V9.66768V9.67429V9.6809V9.6875V9.69409V9.70069V9.70728V9.71387V9.72045V9.72703V9.73361V9.74018V9.74675V9.75332V9.75988V9.76644V9.773V9.77955V9.7861V9.79264V9.79918V9.80572V9.81225V9.81878V9.8253V9.83182V9.83834V9.84485V9.85136V9.85787V9.86437V9.87087V9.87736V9.88385V9.89033V9.89681V9.90329V9.90976V9.91623V9.92269V9.92915V9.93561V9.94206V9.94851V9.95495V9.96139V9.96782V9.97425V9.98067V9.98709V9.99351V9.99992C23.6666 11.5426 22.8988 12.6258 22.1103 13.3355C21.7158 13.6905 21.3201 13.9478 21.0231 14.1162C20.8749 14.2001 20.7522 14.2614 20.6677 14.3013C20.6673 14.3014 20.6669 14.3016 20.6666 14.3018C20.6662 14.3016 20.6659 14.3014 20.6655 14.3013C20.581 14.2614 20.4583 14.2001 20.3101 14.1162C20.0131 13.9478 19.6174 13.6905 19.2229 13.3355C18.4344 12.6258 17.6666 11.5426 17.6666 9.99992Z" fill="#FFD033" stroke="white" stroke-width="0.666667"/>
<mask id="mask1" style="mask-type:alpha" maskUnits="userSpaceOnUse" x="17" y="5" width="7" height="10">
<path d="M17.6666 9.99992V9.94851V9.89681V9.84485V9.79264V9.74018V9.6875V9.63459V9.58149V9.52819V9.47471V9.42106V9.36726V9.31331V9.28629V9.27953V9.27277V9.25924V9.20505V9.15075V9.09636V9.04189V8.98736V8.93276V8.87813V8.82347V8.76879V8.74144V8.73461V8.72777V8.72093V8.7141V8.70726V8.70043V8.69359V8.68676V8.67992V8.67309V8.66625V8.65942V8.65259V8.64575V8.63892V8.63209V8.62526V8.61842V8.61159V8.60476V8.59793V8.5911V8.58427V8.57744V8.57062V8.56379V8.55696V8.55013V8.54331V8.53648V8.52966V8.52284V8.51601V8.50919V8.50237V8.49555V8.48873V8.48192V8.4751V8.46828V8.46147V8.45465V8.44784V8.44103V8.43422V8.42741V8.4206V8.41379V8.40699V8.40018V8.39338V8.38657V8.37977V8.37297V8.36617V8.35938V8.35258V8.34579V8.33899V8.3322V8.32541V8.31862V8.31184V8.30505V8.29827V8.29148V8.2847V8.27792V8.27115V8.26437V8.2576V8.25082V8.24405V8.23728V8.23052V8.22375V8.21699V8.21023V8.20347V8.19671V8.18996V8.1832V8.17645V8.1697V8.16295V8.15621V8.14947V8.14273V8.13599V8.12925V8.12252V8.11578V8.10905V8.10233V8.0956V8.08888V8.08216V8.07544V8.06872V8.06201V8.0553V8.04859V8.04188V8.03518V8.02848V8.02178V8.01509V8.00839V8.0017V7.99501V7.98833V7.98165V7.97497V7.96829V7.96162V7.95495V7.94828V7.94161V7.93495V7.92829V7.92163V7.91498V7.90833V7.90168V7.89504V7.88839V7.87512V7.84861V7.79575V7.7431V7.69069V7.63852V7.58661V7.53497V7.48361V7.43255V7.38179V7.33135V7.28125V7.23148V7.18208V7.13304V7.08439V7.03613V6.94084V6.84728V6.75555V6.66574C17.6666 6.11373 18.114 5.66659 18.6666 5.66659H22.6666C23.2191 5.66659 23.6666 6.11373 23.6666 6.66574V6.67129V6.67686V6.68243V6.688V6.69359V6.69918V6.70479V6.7104V6.71601V6.72164V6.72727V6.73291V6.73856V6.74421V6.74988V6.75555V6.76122V6.76691V6.7726V6.7783V6.78401V6.78973V6.79545V6.80118V6.80692V6.81266V6.81841V6.82417V6.82994V6.83571V6.84149V6.84728V6.85308V6.85888V6.86469V6.8705V6.87633V6.88216V6.888V6.89384V6.89969V6.90555V6.91141V6.91729V6.92316V6.92905V6.93494V6.94084V6.94675V6.95266V6.95858V6.96451V6.97044V6.97638V6.98232V6.98828V6.99424V7.0002V7.00617V7.01215V7.01814V7.02413V7.03013V7.03613V7.04214V7.04816V7.05418V7.06021V7.06625V7.07229V7.07834V7.08439V7.09045V7.09652V7.10259V7.10867V7.11475V7.12084V7.12694V7.13304V7.13915V7.14527V7.15139V7.15752V7.16365V7.16979V7.17593V7.18208V7.18824V7.1944V7.20056V7.20674V7.21292V7.2191V7.22529V7.23149V7.23769V7.24389V7.25011V7.25632V7.26255V7.26877V7.27501V7.28125V7.28749V7.29374V7.3V7.30626V7.31252V7.3188V7.32507V7.33135V7.33764V7.34393V7.35023V7.35653V7.36284V7.36915V7.37547V7.38179V7.38812V7.39445V7.40079V7.40713V7.41348V7.41983V7.42619V7.43255V7.43892V7.44529V7.45166V7.45805V7.46443V7.47082V7.47722V7.48361V7.49002V7.49643V7.50284V7.50926V7.51568V7.52211V7.52854V7.53497V7.54141V7.54786V7.55431V7.56076V7.56722V7.57368V7.58014V7.58661V7.59309V7.59957V7.60605V7.61254V7.61903V7.62552V7.63202V7.63853V7.64503V7.65154V7.65806V7.66458V7.6711V7.67763V7.68416V7.69069V7.69723V7.70377V7.71032V7.71687V7.72342V7.72998V7.73654V7.7431V7.74967V7.75624V7.76282V7.7694V7.77598V7.78257V7.78916V7.79575V7.80234V7.80894V7.81555V7.82215V7.82876V7.83538V7.84199V7.84861V7.85523V7.86186V7.86849V7.87512V7.88176V7.8884V7.89504V7.90168V7.90833V7.91498V7.92163V7.92829V7.93495V7.94161V7.94828V7.95495V7.96162V7.96829V7.97497V7.98165V7.98833V7.99502V8.0017V8.00839V8.01509V8.02178V8.02848V8.03518V8.04189V8.04859V8.0553V8.06201V8.06872V8.07544V8.08216V8.08888V8.0956V8.10233V8.10905V8.11578V8.12252V8.12925V8.13599V8.14273V8.14947V8.15621V8.16296V8.1697V8.17645V8.1832V8.18996V8.19671V8.20347V8.21023V8.21699V8.22375V8.23052V8.23729V8.24405V8.25082V8.2576V8.26437V8.27115V8.27792V8.2847V8.29148V8.29827V8.30505V8.31184V8.31862V8.32541V8.3322V8.33899V8.34579V8.35258V8.35938V8.36617V8.37297V8.37977V8.38657V8.39338V8.40018V8.40699V8.41379V8.4206V8.42741V8.43422V8.44103V8.44784V8.45465V8.46147V8.46828V8.4751V8.48192V8.48873V8.49555V8.50237V8.50919V8.51602V8.52284V8.52966V8.53648V8.54331V8.55014V8.55696V8.56379V8.57062V8.57744V8.58427V8.5911V8.59793V8.60476V8.61159V8.61842V8.62526V8.63209V8.63892V8.64575V8.65259V8.65942V8.66625V8.67309V8.67992V8.68676V8.69359V8.70043V8.70726V8.7141V8.72094V8.72777V8.73461V8.74144V8.74828V8.75511V8.76195V8.76879V8.77562V8.78246V8.78929V8.79613V8.80296V8.8098V8.81663V8.82347V8.8303V8.83714V8.84397V8.8508V8.85764V8.86447V8.8713V8.87813V8.88496V8.89179V8.89862V8.90545V8.91228V8.91911V8.92594V8.93276V8.93959V8.94642V8.95324V8.96007V8.96689V8.97371V8.98053V8.98736V8.99418V9.001V9.00781V9.01463V9.02145V9.02826V9.03508V9.04189V9.0487V9.05552V9.06233V9.06914V9.07594V9.08275V9.08956V9.09636V9.10316V9.10997V9.11677V9.12357V9.13036V9.13716V9.14396V9.15075V9.15754V9.16433V9.17112V9.17791V9.1847V9.19148V9.19826V9.20505V9.21183V9.2186V9.22538V9.23216V9.23893V9.2457V9.25247V9.25924V9.266V9.27277V9.27953V9.28629V9.29305V9.2998V9.30656V9.31331V9.32006V9.32681V9.33356V9.3403V9.34704V9.35378V9.36052V9.36726V9.37399V9.38072V9.38745V9.39418V9.4009V9.40762V9.41434V9.42106V9.42777V9.43448V9.44119V9.4479V9.45461V9.46131V9.46801V9.47471V9.4814V9.48809V9.49478V9.50147V9.50815V9.51483V9.52151V9.52819V9.53486V9.54153V9.54819V9.55486V9.56152V9.56818V9.57483V9.58149V9.58813V9.59478V9.60142V9.60806V9.6147V9.62134V9.62797V9.63459V9.64122V9.64784V9.65446V9.66107V9.66768V9.67429V9.6809V9.6875V9.69409V9.70069V9.70728V9.71387V9.72045V9.72703V9.73361V9.74018V9.74675V9.75332V9.75988V9.76644V9.773V9.77955V9.7861V9.79264V9.79918V9.80572V9.81225V9.81878V9.8253V9.83182V9.83834V9.84485V9.85136V9.85787V9.86437V9.87087V9.87736V9.88385V9.89033V9.89681V9.90329V9.90976V9.91623V9.92269V9.92915V9.93561V9.94206V9.94851V9.95495V9.96139V9.96782V9.97425V9.98067V9.98709V9.99351V9.99992C23.6666 11.5426 22.8988 12.6258 22.1103 13.3355C21.7158 13.6905 21.3201 13.9478 21.0231 14.1162C20.8749 14.2001 20.7522 14.2614 20.6677 14.3013C20.6673 14.3014 20.6669 14.3016 20.6666 14.3018C20.6662 14.3016 20.6659 14.3014 20.6655 14.3013C20.581 14.2614 20.4583 14.2001 20.3101 14.1162C20.0131 13.9478 19.6174 13.6905 19.2229 13.3355C18.4344 12.6258 17.6666 11.5426 17.6666 9.99992Z" fill="white" stroke="white" stroke-width="0.666667"/>
</mask>
<g mask="url(#mask1)">
<path fill-rule="evenodd" clip-rule="evenodd" d="M21.9999 9.33317C22.3681 9.33317 22.6666 8.73622 22.6666 7.99984C22.6666 7.26346 22.3681 6.6665 21.9999 6.6665C21.6317 6.6665 21.3333 7.26346 21.3333 7.99984C21.3333 8.73622 21.6317 9.33317 21.9999 9.33317Z" fill="#BA5B1F"/>
<path fill-rule="evenodd" clip-rule="evenodd" d="M19.5385 9.29297C19.8845 9.16704 19.9608 8.504 19.709 7.81203C19.4571 7.12006 18.9724 6.66119 18.6265 6.78712C18.2805 6.91305 18.2042 7.57609 18.456 8.26806C18.7079 8.96003 19.1925 9.4189 19.5385 9.29297Z" fill="#FF9F3E"/>
<path fill-rule="evenodd" clip-rule="evenodd" d="M19.0514 9.27083C19.3851 9.42644 19.9079 9.01155 20.2191 8.34417C20.5303 7.67678 20.5121 7.00961 20.1784 6.85401C19.8447 6.69841 19.3219 7.11329 19.0107 7.78068C18.6995 8.44806 18.7177 9.11523 19.0514 9.27083Z" fill="#FF937F"/>
<path fill-rule="evenodd" clip-rule="evenodd" d="M20 10.6666L20.6667 9.33325L21.3333 10.6666V11.9999H20V10.6666Z" fill="#01A827"/>
</g>
<path d="M0 -0.333333H-0.901086L-0.21693 0.253086L4.33333 4.15331V5.16179L-0.193746 8.39542L-0.333333 8.49513V8.66667V9.33333V9.93475L0.176666 9.616L5.42893 6.33333H6.55984L11.0821 9.56351C11.176 9.6306 11.2886 9.66667 11.404 9.66667C11.9182 9.66667 12.1548 9.02698 11.7644 8.69237L7.66667 5.18002V4.17154L12.0542 1.03762C12.2294 0.912475 12.3333 0.710428 12.3333 0.495127V0V-0.601416L11.8233 -0.282666L6.57107 3H5.44016L0.860413 -0.271244L0.773488 -0.333333H0.666667H0Z" fill="#DB1E36" stroke="white" stroke-width="0.666667"/>
<path fill-rule="evenodd" clip-rule="evenodd" d="M0 3.33333V6H4.66667V9.33333C4.66667 9.70152 4.96514 10 5.33333 10H6.66667C7.03486 10 7.33333 9.70152 7.33333 9.33333V6H12C12.3682 6 12.6667 5.70152 12.6667 5.33333V4C12.6667 3.63181 12.3682 3.33333 12 3.33333H7.33333V0H4.66667V3.33333H0Z" fill="white"/>
<path fill-rule="evenodd" clip-rule="evenodd" d="M0 4H5.33333V3.33333V0H6.66667V3.33333V4H12V5.33333H6.66667V6V9.33333H5.33333V6V5.33333H0V4Z" fill="#DB1E36"/>
</g>
</svg>
