<svg width="28" height="20" viewBox="0 0 28 20" fill="none" xmlns="http://www.w3.org/2000/svg">
<rect width="28" height="20" rx="2" fill="white"/>
<mask id="mask0" style="mask-type:alpha" maskUnits="userSpaceOnUse" x="0" y="0" width="28" height="20">
<rect width="28" height="20" rx="2" fill="white"/>
</mask>
<g mask="url(#mask0)">
<path fill-rule="evenodd" clip-rule="evenodd" d="M0 20H28V0H0V20Z" fill="#30C375"/>
<rect x="4" width="4" height="20" fill="#DE414F"/>
<path fill-rule="evenodd" clip-rule="evenodd" d="M6 3.99992C7.10457 3.99992 8 3.40297 8 2.66659C8 1.93021 7.10457 1.33325 6 1.33325C4.89543 1.33325 4 1.93021 4 2.66659C4 3.40297 4.89543 3.99992 6 3.99992Z" fill="white"/>
<mask id="mask1" style="mask-type:alpha" maskUnits="userSpaceOnUse" x="4" y="1" width="4" height="3">
<path fill-rule="evenodd" clip-rule="evenodd" d="M6 3.99992C7.10457 3.99992 8 3.40297 8 2.66659C8 1.93021 7.10457 1.33325 6 1.33325C4.89543 1.33325 4 1.93021 4 2.66659C4 3.40297 4.89543 3.99992 6 3.99992Z" fill="white"/>
</mask>
<g mask="url(#mask1)">
<path fill-rule="evenodd" clip-rule="evenodd" d="M5.99992 3.33333C6.36811 3.33333 6.66659 3.03486 6.66659 2.66667C6.66659 2.29848 6.36811 2 5.99992 2C5.63173 2 5.33325 2.29848 5.33325 2.66667C5.33325 3.03486 5.63173 3.33333 5.99992 3.33333Z" fill="#DD404F"/>
<rect x="4" y="1.33325" width="2" height="1.33333" fill="#FBAF29"/>
<rect x="6" y="2.6665" width="2" height="1.33333" fill="#FBAF29"/>
</g>
<path fill-rule="evenodd" clip-rule="evenodd" d="M6 18.6667C7.10457 18.6667 8 18.0697 8 17.3333C8 16.597 7.10457 16 6 16C4.89543 16 4 16.597 4 17.3333C4 18.0697 4.89543 18.6667 6 18.6667Z" fill="white"/>
<mask id="mask2" style="mask-type:alpha" maskUnits="userSpaceOnUse" x="4" y="16" width="4" height="3">
<path fill-rule="evenodd" clip-rule="evenodd" d="M6 18.6667C7.10457 18.6667 8 18.0697 8 17.3333C8 16.597 7.10457 16 6 16C4.89543 16 4 16.597 4 17.3333C4 18.0697 4.89543 18.6667 6 18.6667Z" fill="white"/>
</mask>
<g mask="url(#mask2)">
<path fill-rule="evenodd" clip-rule="evenodd" d="M5.99992 18.0001C6.36811 18.0001 6.66659 17.7016 6.66659 17.3334C6.66659 16.9652 6.36811 16.6667 5.99992 16.6667C5.63173 16.6667 5.33325 16.9652 5.33325 17.3334C5.33325 17.7016 5.63173 18.0001 5.99992 18.0001Z" fill="#DD404F"/>
<rect x="4" y="16" width="2" height="1.33333" fill="#FBAF29"/>
<rect x="6" y="17.3333" width="2" height="1.33333" fill="#FBAF29"/>
</g>
<path fill-rule="evenodd" clip-rule="evenodd" d="M6 11.9999C7.10457 11.9999 8 11.403 8 10.6666C8 9.93021 7.10457 9.33325 6 9.33325C4.89543 9.33325 4 9.93021 4 10.6666C4 11.403 4.89543 11.9999 6 11.9999Z" fill="#28AE67"/>
<mask id="mask3" style="mask-type:alpha" maskUnits="userSpaceOnUse" x="4" y="9" width="4" height="3">
<path fill-rule="evenodd" clip-rule="evenodd" d="M6 11.9999C7.10457 11.9999 8 11.403 8 10.6666C8 9.93021 7.10457 9.33325 6 9.33325C4.89543 9.33325 4 9.93021 4 10.6666C4 11.403 4.89543 11.9999 6 11.9999Z" fill="white"/>
</mask>
<g mask="url(#mask3)">
<path fill-rule="evenodd" clip-rule="evenodd" d="M6.00008 11.3333C6.73646 11.3333 7.33341 11.0349 7.33341 10.6667C7.33341 10.2985 6.73646 10 6.00008 10C5.2637 10 4.66675 10.2985 4.66675 10.6667C4.66675 11.0349 5.2637 11.3333 6.00008 11.3333Z" fill="#DD404F"/>
</g>
<path fill-rule="evenodd" clip-rule="evenodd" d="M6 14.6666C7.10457 14.6666 8 14.3681 8 13.9999C8 13.6317 7.10457 13.3333 6 13.3333C4.89543 13.3333 4 13.6317 4 13.9999C4 14.3681 4.89543 14.6666 6 14.6666Z" fill="#28AE67"/>
<mask id="mask4" style="mask-type:alpha" maskUnits="userSpaceOnUse" x="4" y="13" width="4" height="2">
<path fill-rule="evenodd" clip-rule="evenodd" d="M6 14.6666C7.10457 14.6666 8 14.3681 8 13.9999C8 13.6317 7.10457 13.3333 6 13.3333C4.89543 13.3333 4 13.6317 4 13.9999C4 14.3681 4.89543 14.6666 6 14.6666Z" fill="white"/>
</mask>
<g mask="url(#mask4)">
</g>
<path fill-rule="evenodd" clip-rule="evenodd" d="M6 7.99992C7.10457 7.99992 8 7.40297 8 6.66659C8 5.93021 7.10457 5.33325 6 5.33325C4.89543 5.33325 4 5.93021 4 6.66659C4 7.40297 4.89543 7.99992 6 7.99992Z" fill="#FBAF29"/>
<mask id="mask5" style="mask-type:alpha" maskUnits="userSpaceOnUse" x="4" y="5" width="4" height="3">
<path fill-rule="evenodd" clip-rule="evenodd" d="M6 7.99992C7.10457 7.99992 8 7.40297 8 6.66659C8 5.93021 7.10457 5.33325 6 5.33325C4.89543 5.33325 4 5.93021 4 6.66659C4 7.40297 4.89543 7.99992 6 7.99992Z" fill="white"/>
</mask>
<g mask="url(#mask5)">
<path fill-rule="evenodd" clip-rule="evenodd" d="M5.99992 7.33333C6.36811 7.33333 6.66659 7.03486 6.66659 6.66667C6.66659 6.29848 6.36811 6 5.99992 6C5.63173 6 5.33325 6.29848 5.33325 6.66667C5.33325 7.03486 5.63173 7.33333 5.99992 7.33333Z" fill="#DD404F"/>
<rect x="4" y="5.33325" width="1.33333" height="2.66667" fill="#28AE67"/>
<rect x="6.66675" y="5.33325" width="1.33333" height="2.66667" fill="#28AE67"/>
</g>
<path fill-rule="evenodd" clip-rule="evenodd" d="M14.8227 4.23824C14.5861 4.52029 14.6229 4.94079 14.9049 5.17746C15.187 5.41413 15.6075 5.37734 15.8441 5.09529C16.0808 4.81324 16.044 4.39274 15.762 4.15607C15.4799 3.9194 15.0594 3.95619 14.8227 4.23824ZM13.0953 6.82273C12.8132 6.58607 12.3927 6.62286 12.1561 6.90491C11.9194 7.18695 11.9562 7.60746 12.2382 7.84413C12.5203 8.08079 12.9408 8.044 13.1775 7.76196C13.4141 7.47991 13.3773 7.0594 13.0953 6.82273ZM11.762 5.4894C11.4799 5.25273 11.0594 5.28952 10.8227 5.57157C10.5861 5.85362 10.6229 6.27413 10.9049 6.51079C11.187 6.74746 11.6075 6.71067 11.8441 6.42862C12.0808 6.14657 12.044 5.72607 11.762 5.4894ZM14.4286 2.82273C14.1466 2.58607 13.7261 2.62286 13.4894 2.90491C13.2527 3.18695 13.2895 3.60746 13.5716 3.84413C13.8536 4.08079 14.2741 4.04401 14.5108 3.76196C14.7475 3.47991 14.7107 3.0594 14.4286 2.82273ZM13.762 4.82273C13.4799 4.58607 13.0594 4.62286 12.8227 4.90491C12.5861 5.18695 12.6229 5.60746 12.9049 5.84413C13.187 6.08079 13.6075 6.04401 13.8441 5.76196C14.0808 5.47991 14.044 5.0594 13.762 4.82273Z" fill="white"/>
<path fill-rule="evenodd" clip-rule="evenodd" d="M17.4761 9.45045C15.888 11.0385 13.3133 11.0385 11.7253 9.45045C11.5714 9.29658 11.4324 9.13343 11.3083 8.96282C12.8985 10.1191 15.1374 9.98009 16.5716 8.54592C18.0057 7.11175 18.1447 4.87284 16.9885 3.28271C17.1591 3.40677 17.3222 3.54574 17.4761 3.69962C19.0641 5.28767 19.0641 7.8624 17.4761 9.45045Z" fill="white"/>
</g>
</svg>
