<svg width="28" height="20" viewBox="0 0 28 20" fill="none" xmlns="http://www.w3.org/2000/svg">
<rect width="28" height="20" rx="2" fill="white"/>
<mask id="mask0" style="mask-type:alpha" maskUnits="userSpaceOnUse" x="0" y="0" width="28" height="20">
<rect width="28" height="20" rx="2" fill="white"/>
</mask>
<g mask="url(#mask0)">
<rect width="28" height="20" fill="#E92434"/>
<path fill-rule="evenodd" clip-rule="evenodd" d="M19.0209 10.7684L17.7961 12.2534L17.8795 10.3303L16.0887 9.62432L17.9435 9.10939L18.0615 7.18808L19.1244 8.79296L20.9882 8.31151L19.7903 9.81831L20.8241 11.4421L19.0209 10.7684Z" fill="white"/>
<path fill-rule="evenodd" clip-rule="evenodd" d="M17.4028 13.6841C16.3049 15.0935 14.5917 16 12.6667 16C9.35304 16 6.66675 13.3137 6.66675 10C6.66675 6.68629 9.35304 4 12.6667 4C14.5917 4 16.3049 4.90649 17.4028 6.31588C16.5556 5.70011 15.4904 5.33333 14.3334 5.33333C11.572 5.33333 9.33341 7.42267 9.33341 10C9.33341 12.5773 11.572 14.6667 14.3334 14.6667C15.4904 14.6667 16.5556 14.2999 17.4028 13.6841Z" fill="white"/>
</g>
</svg>
