<svg width="28" height="20" viewBox="0 0 28 20" fill="none" xmlns="http://www.w3.org/2000/svg">
<rect width="28" height="20" rx="2" fill="white"/>
<mask id="mask0" style="mask-type:alpha" maskUnits="userSpaceOnUse" x="0" y="0" width="28" height="20">
<rect width="28" height="20" rx="2" fill="white"/>
</mask>
<g mask="url(#mask0)">
<rect width="28" height="20" fill="#07319C"/>
<path fill-rule="evenodd" clip-rule="evenodd" d="M17.3333 9.99992C17.3333 8.90618 17.3333 7.61306 17.3333 6.66574C17.3333 5.92936 17.9302 5.33325 18.6666 5.33325H22.6666C23.403 5.33325 23.9999 5.92936 23.9999 6.66574C23.9999 7.61306 23.9999 8.90618 23.9999 9.99992C23.9999 13.3333 20.6666 14.6666 20.6666 14.6666C20.6666 14.6666 17.3333 13.3333 17.3333 9.99992Z" fill="#008339"/>
<mask id="mask1" style="mask-type:alpha" maskUnits="userSpaceOnUse" x="17" y="5" width="7" height="10">
<path fill-rule="evenodd" clip-rule="evenodd" d="M17.3333 9.99992C17.3333 8.90618 17.3333 7.61306 17.3333 6.66574C17.3333 5.92936 17.9302 5.33325 18.6666 5.33325H22.6666C23.403 5.33325 23.9999 5.92936 23.9999 6.66574C23.9999 7.61306 23.9999 8.90618 23.9999 9.99992C23.9999 13.3333 20.6666 14.6666 20.6666 14.6666C20.6666 14.6666 17.3333 13.3333 17.3333 9.99992Z" fill="white"/>
</mask>
<g mask="url(#mask1)">
<path fill-rule="evenodd" clip-rule="evenodd" d="M19.3332 7.99984C19.7014 7.99984 19.9998 7.70136 19.9998 7.33317C19.9998 6.96498 19.7014 6.6665 19.3332 6.6665C18.965 6.6665 18.6665 6.96498 18.6665 7.33317C18.6665 7.70136 18.965 7.99984 19.3332 7.99984ZM19.3332 9.33317C19.7014 9.33317 19.9998 9.03469 19.9998 8.6665C19.9998 8.29831 19.7014 7.99984 19.3332 7.99984C18.965 7.99984 18.6665 8.29831 18.6665 8.6665C18.6665 9.03469 18.965 9.33317 19.3332 9.33317ZM19.3332 10.6665C18.965 10.6665 18.6665 10.368 18.6665 9.99984C18.6665 9.63165 18.965 9.33317 19.3332 9.33317C19.7014 9.33317 19.9998 9.63165 19.9998 9.99984C19.9998 10.368 19.7014 10.6665 19.3332 10.6665ZM19.3332 10.6665C19.7014 10.6665 19.9998 10.965 19.9998 11.3332C19.9998 11.7014 19.7014 11.9998 19.3332 11.9998C18.965 11.9998 18.6665 11.7014 18.6665 11.3332C18.6665 10.965 18.965 10.6665 19.3332 10.6665ZM22.6665 11.3332C22.6665 11.7014 22.368 11.9998 21.9998 11.9998C21.6316 11.9998 21.3332 11.7014 21.3332 11.3332C21.3332 10.965 21.6316 10.6665 21.9998 10.6665C22.368 10.6665 22.6665 10.965 22.6665 11.3332ZM21.9998 9.33317C22.368 9.33317 22.6665 9.63165 22.6665 9.99984C22.6665 10.368 22.368 10.6665 21.9998 10.6665C21.6316 10.6665 21.3332 10.368 21.3332 9.99984C21.3332 9.63165 21.6316 9.33317 21.9998 9.33317ZM21.9998 7.99984C21.6316 7.99984 21.3332 8.29831 21.3332 8.6665C21.3332 9.03469 21.6316 9.33317 21.9998 9.33317C22.368 9.33317 22.6665 9.03469 22.6665 8.6665C22.6665 8.29831 22.368 7.99984 21.9998 7.99984ZM21.9998 7.99984C21.6316 7.99984 21.3332 7.70136 21.3332 7.33317C21.3332 6.96498 21.6316 6.6665 21.9998 6.6665C22.368 6.6665 22.6665 6.96498 22.6665 7.33317C22.6665 7.70136 22.368 7.99984 21.9998 7.99984Z" fill="#FFD033"/>
<path fill-rule="evenodd" clip-rule="evenodd" d="M20.6667 11.3333C21.0349 11.3333 21.3333 10.4378 21.3333 9.33325C21.3333 8.22868 21.0349 7.33325 20.6667 7.33325C20.2985 7.33325 20 8.22868 20 9.33325C20 10.4378 20.2985 11.3333 20.6667 11.3333Z" fill="white"/>
</g>
<path d="M16.6667 13.3334C16.6667 14.6049 18.4879 15.3334 20.6667 15.3334C22.8455 15.3334 24.6667 14.6049 24.6667 13.3334C24.6667 12.9652 24.3683 12.6667 24.0001 12.6667C23.6319 12.6667 23.3334 12.9652 23.3334 13.3334C23.3334 13.3462 23.1718 13.499 22.7762 13.6572C22.2391 13.8721 21.4825 14.0001 20.6667 14.0001C19.851 14.0001 19.0944 13.8721 18.5573 13.6572C18.1617 13.499 18.0001 13.3462 18.0001 13.3334C18.0001 12.9652 17.7016 12.6667 17.3334 12.6667C16.9652 12.6667 16.6667 12.9652 16.6667 13.3334Z" fill="#FFD033"/>
<path d="M0 -0.333333H-0.901086L-0.21693 0.253086L4.33333 4.15331V5.16179L-0.193746 8.39542L-0.333333 8.49513V8.66667V9.33333V9.93475L0.176666 9.616L5.42893 6.33333H6.55984L11.0821 9.56351C11.176 9.6306 11.2886 9.66667 11.404 9.66667C11.9182 9.66667 12.1548 9.02698 11.7644 8.69237L7.66667 5.18002V4.17154L12.0542 1.03762C12.2294 0.912475 12.3333 0.710428 12.3333 0.495127V0V-0.601416L11.8233 -0.282666L6.57107 3H5.44016L0.860413 -0.271244L0.773488 -0.333333H0.666667H0Z" fill="#DB1E36" stroke="white" stroke-width="0.666667"/>
<path fill-rule="evenodd" clip-rule="evenodd" d="M0 3.33333V6H4.66667V9.33333C4.66667 9.70152 4.96514 10 5.33333 10H6.66667C7.03486 10 7.33333 9.70152 7.33333 9.33333V6H12C12.3682 6 12.6667 5.70152 12.6667 5.33333V4C12.6667 3.63181 12.3682 3.33333 12 3.33333H7.33333V0H4.66667V3.33333H0Z" fill="white"/>
<path fill-rule="evenodd" clip-rule="evenodd" d="M0 4H5.33333V3.33333V0H6.66667V3.33333V4H12V5.33333H6.66667V6V9.33333H5.33333V6V5.33333H0V4Z" fill="#DB1E36"/>
</g>
</svg>
