<svg width="28" height="20" viewBox="0 0 28 20" fill="none" xmlns="http://www.w3.org/2000/svg">
<rect width="28" height="20" rx="2" fill="white"/>
<mask id="mask0" style="mask-type:alpha" maskUnits="userSpaceOnUse" x="0" y="0" width="28" height="20">
<rect width="28" height="20" rx="2" fill="white"/>
</mask>
<g mask="url(#mask0)">
<rect width="28" height="20" fill="#19BFBF"/>
<path fill-rule="evenodd" clip-rule="evenodd" d="M14.0001 17.3334C18.0502 17.3334 21.3334 14.0502 21.3334 10.0001C21.3334 5.94999 18.0502 2.66675 14.0001 2.66675C9.94999 2.66675 6.66675 5.94999 6.66675 10.0001C6.66675 14.0502 9.94999 17.3334 14.0001 17.3334ZM19.9635 10.6667C19.7159 12.9059 18.2362 14.7737 16.2174 15.5771C16.8675 14.253 17.2472 12.5281 17.3204 10.6667H19.9635ZM15.9857 10.6667C15.8884 12.9158 15.3012 14.9035 14.3856 15.9879C14.2581 15.996 14.1296 16.0001 14.0001 16.0001C13.8706 16.0001 13.742 15.996 13.6146 15.9879C12.699 14.9035 12.1118 12.9158 12.0144 10.6667H15.9857ZM10.6798 10.6667C10.7529 12.5281 11.1327 14.253 11.7828 15.5771C9.76394 14.7737 8.28423 12.9059 8.0367 10.6667H10.6798ZM12.0144 9.33341H15.9857C15.8884 7.08437 15.3012 5.09665 14.3856 4.01227C14.2581 4.00418 14.1296 4.00008 14.0001 4.00008C13.8706 4.00008 13.742 4.00418 13.6146 4.01227C12.699 5.09665 12.1118 7.08437 12.0144 9.33341ZM11.7828 4.4231C11.1327 5.74713 10.7529 7.47205 10.6798 9.33341H8.0367C8.28423 7.09425 9.76394 5.22645 11.7828 4.4231ZM19.9635 9.33341H17.3204C17.2472 7.47205 16.8675 5.74713 16.2174 4.4231C18.2362 5.22645 19.7159 7.09425 19.9635 9.33341Z" fill="white"/>
</g>
</svg>
